<?xml version="1.0" encoding="utf-8"?>
<!-- Generator: Adobe Illustrator 17.1.0, SVG Export Plug-In . SVG Version: 6.00 Build 0)  -->
<!DOCTYPE svg PUBLIC "-//W3C//DTD SVG 1.1//EN" "http://www.w3.org/Graphics/SVG/1.1/DTD/svg11.dtd">
<svg version="1.1" id="Layer_1" xmlns="http://www.w3.org/2000/svg" xmlns:xlink="http://www.w3.org/1999/xlink" x="0px" y="0px"
	 viewBox="0 0 300 300" style="enable-background:new 0 0 300 300;" xml:space="preserve">
<style type="text/css">
	.st0{fill:none;}
	.st1{fill:#C6DD7F;}
	.st2{fill:#E9DDB7;}
	.st3{fill:#A6D0E4;}
	.st4{fill:#231F20;}
	.st5{fill:url(#Alyssa);}
	.st6{fill:none;stroke:#000000;stroke-width:2;stroke-miterlimit:10;stroke-dasharray:12;}
</style>
<pattern  x="-330" y="-130" width="144.1" height="138.4" patternUnits="userSpaceOnUse" id="Alyssa" viewBox="100 -216.8 144.1 138.4" style="overflow:visible;">
	<g>
		<polygon class="st0" points="100,-216.8 244.1,-216.8 244.1,-78.5 100,-78.5 		"/>
		<g>
			<path class="st1" d="M311-58.3c-11.8-1.4-19.4,0.3-22.7,3.1c-3,2.5-5,5.4-2.2,11.9c2.9,7.1,1.5,14.7-5.5,15.9
				c-6.2,1-10.9-4.8-11.2-12.3c-0.2-5.2-1.9-8.3-5.5-7.6c-3.6,0.7-4.6,5.9-3.6,11.8c1.4,8.1,5.5,11.8,6.2,20.2
				c0.5,6.1-2.9,13.7-12.5,15c-9.3,1.4-15.9-4.3-16.6-10.5c-0.7-6.6,3.6-10.9,3.1-17.6c-0.5-6.7-4-10.2-5.9-17.3
				c-2.8-10.5,1.2-19,7.8-22.7c14.7-8.1,22.8,3.6,36,1.6c10.9-1.7,23.3-18.2,33-19.5c8.2-1.2,13.8,4.7,15,14
				C327.6-63,321.7-57.1,311-58.3z M268.8-57.8c0-2.3-1.9-4.2-4.2-4.2c-2.3,0-4.2,1.9-4.2,4.2s1.9,4.2,4.2,4.2
				C267-53.6,268.8-55.5,268.8-57.8z M318.3-73.2c0-1-0.8-1.7-1.7-1.7s-1.7,0.8-1.7,1.7s0.8,1.7,1.7,1.7S318.3-72.2,318.3-73.2z"/>
		</g>
		<g>
			<path class="st2" d="M148.8-77.5c0,7.2,4.6,13.8-1,16.3c-8.5,3.8-28-14.3-28-36.2c0-12,8.7-19,17.8-19c12.3,0,18,8.2,18,17.5
				C155.6-89.5,148.8-85.7,148.8-77.5z M143.4-82.9c0-1.1-0.9-2.1-2.1-2.1c-1.1,0-2.1,0.9-2.1,2.1c0,1.1,0.9,2.1,2.1,2.1
				C142.5-80.8,143.4-81.7,143.4-82.9z"/>
			<path class="st3" d="M223.5-54c-7.9,2.7-19.4-15.3-17.7-27c1.2-8.2,7.1-13.2,13.1-14.2c7.5-1.3,12.9,2.6,13.3,7.2
				c0.5,6.3-3.6,7.5-4.2,15C227.4-65.9,231.7-56.8,223.5-54z M219.7-81.5c0-1.4-1.2-2.6-2.6-2.6c-1.4,0-2.6,1.2-2.6,2.6
				c0,1.4,1.2,2.6,2.6,2.6C218.5-78.9,219.7-80.1,219.7-81.5z"/>
			<path class="st2" d="M119.4-76.5c0,1.4-1.2,2.6-2.6,2.6c-1.4,0-2.6-1.2-2.6-2.6s1.2-2.6,2.6-2.6
				C118.2-79.1,119.4-77.9,119.4-76.5z"/>
			<path class="st3" d="M184.6-84.2c0.7,8.1,12.7,7,17.9,14.2c10.5,14.5-1.2,46.4-21.6,46.4c-11.7,0-24.2-9.7-24.2-29.2
				c0-15.8,10.2-21.5,8.2-42.2c-1-10.8-12.5-20.3-12.5-34.8c0-5.9,3.6-13.4,11.6-13.4c7.1,0,10.8,6,10.8,12.9c0,6.8-5.4,15.7,1.4,19
				c5.2,2.6,13.2-4.8,19.5-6.8c5.2-1.6,12.4,0.2,14.8,8.5c2.5,8.9-3.3,14.7-11.6,16.7C192.5-91.3,184-90.6,184.6-84.2z M168.6-114.7
				c0-1.8-1.5-3.3-3.3-3.3c-1.8,0-3.3,1.5-3.3,3.3c0,1.8,1.5,3.3,3.3,3.3C167.1-111.5,168.6-112.9,168.6-114.7z M194.6-105.1
				c1.3,0,2.3-1,2.3-2.3c0-1.3-1-2.3-2.3-2.3c-1.3,0-2.3,1-2.3,2.3C192.2-106.1,193.3-105.1,194.6-105.1z M174.6-45.4
				c0-1.8-1.5-3.3-3.3-3.3c-1.8,0-3.3,1.5-3.3,3.3c0,1.8,1.5,3.3,3.3,3.3C173.1-42.1,174.6-43.6,174.6-45.4z"/>
			<path class="st1" d="M166.9-58.3c-11.8-1.4-19.4,0.3-22.7,3.1c-3,2.5-5,5.4-2.2,11.9c2.9,7.1,1.5,14.7-5.5,15.9
				c-6.2,1-10.9-4.8-11.2-12.3c-0.2-5.2-1.9-8.3-5.5-7.6c-3.6,0.7-4.6,5.9-3.6,11.8c1.4,8.1,5.5,11.8,6.2,20.2
				c0.5,6.1-2.9,13.7-12.5,15c-9.3,1.4-15.9-4.3-16.6-10.5c-0.7-6.6,3.6-10.9,3.1-17.6c-0.5-6.7-4-10.2-5.9-17.3
				c-2.8-10.5,1.2-19,7.8-22.7c14.7-8.1,22.8,3.6,36,1.6c10.9-1.7,23.3-18.2,33-19.5c8.2-1.2,13.8,4.7,15,14
				C183.5-63,177.6-57.1,166.9-58.3z M124.7-57.8c0-2.3-1.9-4.2-4.1-4.2c-2.3,0-4.2,1.9-4.2,4.2s1.9,4.2,4.2,4.2
				C122.9-53.6,124.7-55.5,124.7-57.8z M174.2-73.2c0-1-0.8-1.7-1.7-1.7c-1,0-1.7,0.8-1.7,1.7s0.8,1.7,1.7,1.7
				C173.4-71.4,174.2-72.2,174.2-73.2z"/>
		</g>
		<g>
			<path class="st3" d="M290.3-104.8c0,6.2-4.2,10.7-8.6,11.6c-4.5,0.9-8.3-1.3-13,1.2c-4.8,2.6-7.1,11.1-16.8,11.1
				c-8,0-15.2-8-15.2-18.8c0-20.2,13.1-29.2,25.6-29.2C278.9-129.1,290.3-116.4,290.3-104.8z M270.6-119.2c0-2.1-1.7-3.8-3.8-3.8
				c-2.1,0-3.8,1.7-3.8,3.8c0,2.1,1.7,3.8,3.8,3.8C268.9-115.4,270.6-117.1,270.6-119.2z"/>
			<path class="st1" d="M311-196.7c-11.8-1.4-19.4,0.3-22.7,3.1c-3,2.5-5,5.4-2.2,11.9c2.9,7.1,1.5,14.7-5.5,15.9
				c-6.2,1-10.9-4.8-11.2-12.3c-0.2-5.2-1.9-8.3-5.5-7.6c-3.6,0.7-4.6,5.9-3.6,11.8c1.4,8.1,5.5,11.8,6.2,20.2
				c0.5,6.1-2.9,13.7-12.5,15c-9.3,1.4-15.9-4.3-16.6-10.5c-0.7-6.6,3.6-10.9,3.1-17.6c-0.5-6.7-4-10.2-5.9-17.3
				c-2.8-10.5,1.2-19,7.8-22.7c14.7-8.1,22.8,3.6,36,1.6c10.9-1.7,23.3-18.2,33-19.5c8.2-1.2,13.8,4.7,15,14
				C327.6-201.3,321.7-195.4,311-196.7z M268.8-196.2c0-2.3-1.9-4.2-4.2-4.2c-2.3,0-4.2,1.9-4.2,4.2c0,2.3,1.9,4.2,4.2,4.2
				C267-192,268.8-193.9,268.8-196.2z M318.3-211.5c0-1-0.8-1.7-1.7-1.7s-1.7,0.8-1.7,1.7c0,1,0.8,1.7,1.7,1.7
				S318.3-210.6,318.3-211.5z"/>
		</g>
		<g>
			<path class="st3" d="M131.8-133.2c-14,2-21.2-13.3-17.7-20.3c3.7-7.3,12.1-4.2,19.5-4.2c9.7,0,16.4-7.6,20.4-2.2
				C158.3-154.4,149-135.6,131.8-133.2z M132.3-150.7c0-1.2-1-2.2-2.2-2.2c-1.2,0-2.2,1-2.2,2.2c0,1.2,1,2.2,2.2,2.2
				C131.3-148.4,132.3-149.4,132.3-150.7z"/>
			<path class="st2" d="M148.8-215.9c0,7.2,4.6,13.8-1,16.3c-8.5,3.8-28-14.3-28-36.2c0-12,8.7-19,17.8-19c12.3,0,18,8.2,18,17.5
				C155.6-227.9,148.8-224.1,148.8-215.9z M143.4-221.2c0-1.1-0.9-2.1-2.1-2.1c-1.1,0-2.1,0.9-2.1,2.1c0,1.1,0.9,2.1,2.1,2.1
				C142.5-219.2,143.4-220.1,143.4-221.2z"/>
			<path class="st3" d="M146.2-104.8c0,6.2-4.2,10.7-8.6,11.6c-4.5,0.9-8.3-1.3-13,1.2c-4.8,2.6-7.1,11.1-16.8,11.1
				c-8,0-15.2-8-15.2-18.8c0-20.2,13.1-29.2,25.6-29.2C134.7-129.1,146.2-116.4,146.2-104.8z M126.4-119.2c0-2.1-1.7-3.8-3.8-3.8
				c-2.1,0-3.8,1.7-3.8,3.8c0,2.1,1.7,3.8,3.8,3.8C124.7-115.4,126.4-117.1,126.4-119.2z"/>
			<path class="st1" d="M145.5-128.5c0,1.3-1.1,2.4-2.4,2.4c-1.3,0-2.4-1.1-2.4-2.4c0-1.3,1.1-2.4,2.4-2.4
				C144.4-131,145.5-129.9,145.5-128.5z"/>
			<path class="st3" d="M229.2-147c-3.2,4.7,1,10.7-1.4,15.2c-2.4,4.5-6.7,5-9.9,2.6c-3.6-2.8-3.4-6.6-8.3-8.8
				c-5.5-2.5-18,2.2-19.7-7.3c-0.9-4.8,2.4-8.6,7.3-9.7c6.1-1.4,9.4-0.2,15.4-3.1c6.1-2.9,11.2-9,22.1-12.1
				c10.4-3,16.1,1.6,16.6,5.9C252.3-155.9,234.2-154.4,229.2-147z M226.9-154.5c0-1.2-1-2.2-2.2-2.2c-1.2,0-2.2,1-2.2,2.2
				c0,1.2,1,2.2,2.2,2.2C225.9-152.2,226.9-153.2,226.9-154.5z"/>
			<path class="st2" d="M256.1-107.9c0,17.2-14.5,25.5-27,22.8c-10.3-2.2-12.8-17.3-16.7-26.2c-3.7-8.6-8.8-22.5-20.2-22.5
				c-11.2,0-12.8,14.5-23.7,14.5c-11,0-24.5-15.7-24.5-39.7c0-14.7,9.8-31.5,20.8-30.7c11.7,0.8,4.5,19.7,15.3,19.7
				c9.5,0,7.9-16.3,9.2-23.3c1.7-9,6.8-14.2,18.5-13.2c14.4,1.2,22.3,13.5,18.9,23.3c-4,11.5-23.9,17.3-21.5,30.5
				c1.3,7.6,13,12,26,16.2C245.8-131.7,256.1-125,256.1-107.9z M211.2-183.7c0,1.8,1.5,3.3,3.3,3.3c1.8,0,3.3-1.5,3.3-3.3
				s-1.5-3.3-3.3-3.3C212.6-187,211.2-185.5,211.2-183.7z M164.5-158.8c0-1-0.8-1.7-1.7-1.7c-1,0-1.7,0.8-1.7,1.7
				c0,1,0.8,1.7,1.7,1.7C163.7-157.1,164.5-157.8,164.5-158.8z M182-148.1c0-2.1-1.7-3.8-3.8-3.8c-2.1,0-3.8,1.7-3.8,3.8
				c0,2.1,1.7,3.8,3.8,3.8C180.2-144.3,182-146,182-148.1z M201.8-163.6c0-0.9-0.7-1.6-1.6-1.6c-0.9,0-1.6,0.7-1.6,1.6
				c0,0.9,0.7,1.6,1.6,1.6C201.1-162.1,201.8-162.8,201.8-163.6z M231.5-108.9c0-1.8-1.4-3.2-3.2-3.2c-1.8,0-3.2,1.4-3.2,3.2
				c0,1.8,1.4,3.2,3.2,3.2C230.1-105.8,231.5-107.2,231.5-108.9z"/>
			<path class="st3" d="M223.5-192.4c-7.9,2.7-19.4-15.3-17.7-27c1.2-8.2,7.1-13.2,13.1-14.2c7.5-1.3,12.9,2.6,13.3,7.2
				c0.5,6.3-3.6,7.5-4.2,15C227.4-204.3,231.7-195.2,223.5-192.4z M219.7-219.9c0-1.4-1.2-2.6-2.6-2.6c-1.4,0-2.6,1.2-2.6,2.6
				c0,1.4,1.2,2.6,2.6,2.6C218.5-217.3,219.7-218.4,219.7-219.9z"/>
			<path class="st2" d="M119.4-214.8c0,1.4-1.2,2.6-2.6,2.6c-1.4,0-2.6-1.2-2.6-2.6c0-1.4,1.2-2.6,2.6-2.6
				C118.2-217.4,119.4-216.3,119.4-214.8z"/>
			<path class="st2" d="M253.3-128.1c0-8.4-5.1-15.2-11.3-15.2s-11.3,6.8-11.3,15.2c0,8.4,5.1,12.4,11.3,12.4
				S253.3-119.7,253.3-128.1z"/>
			<path class="st3" d="M184.6-222.6c0.7,8.1,12.7,7,17.9,14.2c10.5,14.5-1.2,46.4-21.6,46.4c-11.7,0-24.2-9.7-24.2-29.2
				c0-15.8,10.2-21.5,8.2-42.2c-1-10.8-12.5-20.3-12.5-34.8c0-5.9,3.6-13.4,11.6-13.4c7.1,0,10.8,6,10.8,12.9c0,6.8-5.4,15.7,1.4,19
				c5.2,2.6,13.2-4.8,19.5-6.8c5.2-1.6,12.4,0.2,14.8,8.5c2.5,8.9-3.3,14.7-11.6,16.7C192.5-229.7,184-229,184.6-222.6z
				 M168.6-253.1c0-1.8-1.5-3.3-3.3-3.3c-1.8,0-3.3,1.5-3.3,3.3c0,1.8,1.5,3.3,3.3,3.3C167.1-249.8,168.6-251.3,168.6-253.1z
				 M194.6-243.4c1.3,0,2.3-1,2.3-2.3c0-1.3-1-2.3-2.3-2.3c-1.3,0-2.3,1-2.3,2.3C192.2-244.5,193.3-243.4,194.6-243.4z M174.6-183.7
				c0-1.8-1.5-3.3-3.3-3.3c-1.8,0-3.3,1.5-3.3,3.3c0,1.8,1.5,3.3,3.3,3.3C173.1-180.5,174.6-181.9,174.6-183.7z"/>
			<path class="st1" d="M166.9-196.7c-11.8-1.4-19.4,0.3-22.7,3.1c-3,2.5-5,5.4-2.2,11.9c2.9,7.1,1.5,14.7-5.5,15.9
				c-6.2,1-10.9-4.8-11.2-12.3c-0.2-5.2-1.9-8.3-5.5-7.6c-3.6,0.7-4.6,5.9-3.6,11.8c1.4,8.1,5.5,11.8,6.2,20.2
				c0.5,6.1-2.9,13.7-12.5,15c-9.3,1.4-15.9-4.3-16.6-10.5c-0.7-6.6,3.6-10.9,3.1-17.6c-0.5-6.7-4-10.2-5.9-17.3
				c-2.8-10.5,1.2-19,7.8-22.7c14.7-8.1,22.8,3.6,36,1.6c10.9-1.7,23.3-18.2,33-19.5c8.2-1.2,13.8,4.7,15,14
				C183.5-201.3,177.6-195.4,166.9-196.7z M124.7-196.2c0-2.3-1.9-4.2-4.1-4.2c-2.3,0-4.2,1.9-4.2,4.2c0,2.3,1.9,4.2,4.2,4.2
				C122.9-192,124.7-193.9,124.7-196.2z M174.2-211.5c0-1-0.8-1.7-1.7-1.7c-1,0-1.7,0.8-1.7,1.7c0,1,0.8,1.7,1.7,1.7
				C173.4-209.8,174.2-210.6,174.2-211.5z"/>
			<path class="st1" d="M230.2-174.4c0,0.8-0.6,1.4-1.4,1.4c-0.8,0-1.4-0.6-1.4-1.4c0-0.8,0.6-1.4,1.4-1.4
				C229.6-175.7,230.2-175.1,230.2-174.4z"/>
			<path class="st2" d="M235.7-212.8c0,1.2-1,2.2-2.2,2.2s-2.2-1-2.2-2.2c0-1.2,1-2.2,2.2-2.2S235.7-214,235.7-212.8z"/>
			<path class="st3" d="M152.2-189.6c0,0.7-0.5,1.2-1.2,1.2s-1.2-0.5-1.2-1.2s0.5-1.2,1.2-1.2S152.2-190.2,152.2-189.6z"/>
			<path class="st3" d="M148.6-121.1c0,0.8-0.6,1.4-1.4,1.4s-1.4-0.6-1.4-1.4c0-0.8,0.6-1.4,1.4-1.4S148.6-121.9,148.6-121.1z"/>
			<path class="st2" d="M233.1-143.1c0,0.7-0.5,1.2-1.2,1.2c-0.7,0-1.2-0.5-1.2-1.2c0-0.7,0.5-1.2,1.2-1.2
				C232.6-144.3,233.1-143.7,233.1-143.1z"/>
			<path class="st1" d="M195.9-125.1c0,1.9-1.5,3.4-3.4,3.4c-1.9,0-3.4-1.5-3.4-3.4c0-1.9,1.5-3.4,3.4-3.4
				C194.3-128.5,195.9-127,195.9-125.1z"/>
			<path class="st2" d="M200.8-85.3c0,1.2-0.9,2.1-2.1,2.1s-2.1-0.9-2.1-2.1s0.9-2.1,2.1-2.1S200.8-86.4,200.8-85.3z"/>
			<path class="st2" d="M162-91.6c0,0.9-0.7,1.6-1.6,1.6c-0.9,0-1.6-0.7-1.6-1.6c0-0.9,0.7-1.6,1.6-1.6
				C161.3-93.1,162-92.4,162-91.6z"/>
			<path class="st1" d="M235.7-205.6c0,1.4-1.2,2.6-2.6,2.6c-1.4,0-2.6-1.2-2.6-2.6c0-1.4,1.2-2.6,2.6-2.6
				C234.5-208.2,235.7-207.1,235.7-205.6z"/>
			<path class="st3" d="M225.5-170.8c0,1.3-1.1,2.4-2.4,2.4c-1.3,0-2.4-1.1-2.4-2.4s1.1-2.4,2.4-2.4
				C224.4-173.1,225.5-172.1,225.5-170.8z"/>
			<path class="st2" d="M127.7-164.2c0,1.4-1.2,2.6-2.6,2.6c-1.4,0-2.6-1.2-2.6-2.6c0-1.4,1.2-2.6,2.6-2.6
				C126.5-166.8,127.7-165.6,127.7-164.2z"/>
			<path class="st3" d="M122.7-171.3c0,0.7-0.6,1.3-1.3,1.3c-0.7,0-1.3-0.6-1.3-1.3s0.6-1.3,1.3-1.3
				C122.1-172.6,122.7-172,122.7-171.3z"/>
			<path class="st2" d="M186.9-119.4c0,0.9-0.7,1.6-1.6,1.6c-0.9,0-1.6-0.7-1.6-1.6c0-0.9,0.7-1.6,1.6-1.6
				C186.2-120.9,186.9-120.2,186.9-119.4z"/>
		</g>
		<g>
			<path class="st3" d="M85-147c-3.2,4.7,1,10.7-1.4,15.2c-2.4,4.5-6.7,5-9.9,2.6c-3.6-2.8-3.4-6.6-8.3-8.8
				c-5.5-2.5-18,2.2-19.7-7.3c-0.9-4.8,2.4-8.6,7.3-9.7c6.1-1.4,9.4-0.2,15.4-3.1c6.1-2.9,11.2-9,22.1-12.1
				c10.4-3,16.1,1.6,16.6,5.9C108.2-155.9,90-154.4,85-147z M82.8-154.5c0-1.2-1-2.2-2.2-2.2c-1.2,0-2.2,1-2.2,2.2
				c0,1.2,1,2.2,2.2,2.2C81.8-152.2,82.8-153.2,82.8-154.5z"/>
			<path class="st2" d="M112-107.9c0,17.2-14.5,25.5-27,22.8c-10.3-2.2-12.8-17.3-16.7-26.2c-3.7-8.6-8.8-22.5-20.2-22.5
				c-11.2,0-12.8,14.5-23.7,14.5c-11,0-24.5-15.7-24.5-39.7c0-14.7,9.8-31.5,20.8-30.7c11.7,0.8,4.5,19.7,15.3,19.7
				c9.5,0,7.9-16.3,9.2-23.3c1.7-9,6.8-14.2,18.5-13.2c14.4,1.2,22.3,13.5,18.9,23.3c-4,11.5-23.9,17.3-21.5,30.5
				c1.3,7.6,13,12,26,16.2C101.7-131.7,112-125,112-107.9z M67-183.7c0,1.8,1.5,3.3,3.3,3.3c1.8,0,3.3-1.5,3.3-3.3s-1.5-3.3-3.3-3.3
				C68.5-187,67-185.5,67-183.7z M20.4-158.8c0-1-0.8-1.7-1.7-1.7c-1,0-1.7,0.8-1.7,1.7c0,1,0.8,1.7,1.7,1.7
				C19.6-157.1,20.4-157.8,20.4-158.8z M37.8-148.1c0-2.1-1.7-3.8-3.8-3.8c-2.1,0-3.8,1.7-3.8,3.8c0,2.1,1.7,3.8,3.8,3.8
				C36.1-144.3,37.8-146,37.8-148.1z M57.7-163.6c0-0.9-0.7-1.6-1.6-1.6c-0.9,0-1.6,0.7-1.6,1.6c0,0.9,0.7,1.6,1.6,1.6
				C57-162.1,57.7-162.8,57.7-163.6z M87.4-108.9c0-1.8-1.4-3.2-3.2-3.2c-1.8,0-3.2,1.4-3.2,3.2c0,1.8,1.4,3.2,3.2,3.2
				C85.9-105.8,87.4-107.2,87.4-108.9z"/>
			<path class="st2" d="M109.2-128.1c0-8.4-5.1-15.2-11.3-15.2s-11.3,6.8-11.3,15.2c0,8.4,5.1,12.4,11.3,12.4
				S109.2-119.7,109.2-128.1z"/>
		</g>
	</g>
</pattern>
<g>
	<g id="XMLID_1_">
		<g>
			<path class="st4" d="M271.5,246c0.9,4.4-4.3,7.8-5.4,8.5l-0.1,0.1c-6.6,3.5-17.3,5.3-31.8,5.3c-16.2,0-31.7-2.3-31.8-2.3l-0.2,0
				l-0.2-0.1c-3.2-1.1-7.9-1.7-13.8-1.7c-22.4,0-55.9,8.2-58.7,8.8l-1.5,0.7c-0.6,0.3-1.2,0.4-1.9,0.4c-0.5,0-0.9-0.1-1.3-0.1
				c-0.2,0-0.3,0-0.5-0.1c-0.3,0-0.8,0-1.3,0c-10.6,0-43.4,6.9-43.7,6.9c-9.4,2.1-18.4,3.2-26.5,3.2c-7.4,0-11.5-0.9-12-1
				c-5.4-1.2-8-2.8-8.5-5.2c-0.4-1.8,0.7-3.2,1.6-3.9l0.5-0.4L35,265c3.5-0.3,8.4-8.3,10.8-14l3.7-30.4l0-0.2
				c9.7-36-20.7-183.6-21-185.1L28.4,35l0.1-0.4c1-6.6,5-10.2,11.3-10.2c5.5,0,11,2.8,11.3,2.9l0.2,0.1l10.5,7
				c1.6-0.6,3.5-0.9,5.4-0.9c6.4,0,12.2,3.2,12.5,3.3l1.2,0.7v0.2c3,1,12.9,2,21.4,2.6l53-3.3c3.1-1.1,7.3-1.6,13.1-1.6
				c13.3,0,31.4,2.9,44.4,5.4c6.2-5.7,27.4-5.7,34.5-5.7c6.5,0,11.5,0.2,11.5,0.2l0.9,0l0.6,0.7c11.3,12.5-4,38.3-6.6,42.5
				c-0.4,7.2-4.9,61.6-5.4,68.2l-0.4,1.4l-0.2,0.6c-0.8,4.5-0.3,7.9,0.2,9.4c2.8,3.2,5.9,9.8,9.5,37.6c2.1,16.1,2.9,31.6,2.9,31.8
				l0,0.5l-0.2,0.4c-1.1,2.9-0.7,7.2,0.1,11.1C265.2,240.3,270.6,241.9,271.5,246z M263.7,250.5c1.8-1.1,3.4-2.9,3.2-3.6
				c0,0-0.4-1.3-4.9-2.3l0.7,2.3l-4.4,1.5c-0.1-0.3-1.5-3.8-2.4-8.2l-0.4-1.3l0.1,0c-0.7-3.8-0.9-8.1,0.2-11.5
				c-0.2-2.7-1-16.6-2.8-31c-3.7-29-5.8-33.5-7-34.2c-0.2-0.1-0.5-0.2-0.6-0.4c-0.1-0.1-0.2-0.5-0.3-0.6c-0.2-0.3-3-6.4-1.3-14.7
				c2.2-26.8,5.4-66.7,5.4-68.6l0-0.7l0.3-0.6c4.7-7.2,14.9-27.5,8-36.7c-1.7-0.1-5.6-0.2-10.3-0.2c-7.6,0-14.2,0.3-19.4,1
				c-3.2,0.4-5.6,0.9-7.4,1.4l9,2.2l-1.1,4.5c-0.4-0.1-37.9-8.7-60.1-8.7c-5.3,0-9.3,0.5-11.8,1.4l-0.3,0.1l-53.9,3.3l-0.1,0
				c-0.1,0-6-0.4-12-1c-3.5-0.4-6.3-0.8-8.3-1.2c-1.6-0.3-3.8-0.8-4.9-2c-1.4-0.7-5.5-2.4-9.7-2.4c-1.8,0-3.4,0.3-4.7,1l-1.2,0.5
				l-12.5-8.4c-0.7-0.4-5-2.4-9.1-2.4c-3.9,0-6,1.8-6.7,5.8c2.2,10.5,30.5,150,20.9,186.6l-3.7,30.7l-0.1,0.3
				c-1,2.4-5.8,13.5-12.2,16.4c0.8,0.3,2,0.7,3.8,1.1l0.1,0c0,0,3.8,0.9,10.9,0.9c7.8,0,16.4-1.1,25.5-3.1
				c1.4-0.3,33.6-7.1,44.7-7.1c0.6,0,1.2,0,1.7,0.1c0.2,0,0.5,0.1,0.7,0.1c0.3,0,0.5,0.1,0.7,0.1c0.1,0,0.1,0,0.1,0l1.9-0.8l0.2,0
				c1.5-0.4,36.1-9,60-9c6.3,0,11.4,0.6,15.1,1.9c1.8,0.3,16.1,2.2,31,2.2C247.6,255.2,257.9,253.6,263.7,250.5z"/>
			<path class="st5" d="M199.3,119.5c3.3,0,5.9-2.7,5.9-5.9c0-3.3-2.7-5.9-5.9-5.9c-3.3,0-5.9,2.7-5.9,5.9
				C193.3,116.8,196,119.5,199.3,119.5z M201.7,201.1c-3.3,0-5.9,2.6-5.9,5.9c0,3.3,2.6,5.9,5.9,5.9c3.3,0,5.9-2.7,5.9-5.9
				C207.7,203.8,205,201.1,201.7,201.1z M109.3,107.1c-3.3,0-5.9,2.7-5.9,5.9c0,3.3,2.7,5.9,5.9,5.9c3.3,0,5.9-2.7,5.9-5.9
				C115.3,109.8,112.6,107.1,109.3,107.1z M108.6,219.1c3.3,0,5.9-2.7,5.9-5.9c0-3.3-2.7-5.9-5.9-5.9c-3.3,0-5.9,2.7-5.9,5.9
				C102.6,216.5,105.3,219.1,108.6,219.1z M266.9,246.9c0.1,0.7-1.5,2.5-3.2,3.6c-5.9,3.1-16.1,4.7-29.6,4.7
				c-14.9,0-29.1-1.9-31-2.2c-3.7-1.2-8.8-1.9-15.1-1.9c-23.9,0-58.5,8.7-60,9l-0.2,0l-1.9,0.8c0,0,0,0-0.1,0c-0.2,0-0.4,0-0.7-0.1
				c-0.2,0-0.5-0.1-0.7-0.1c-0.5,0-1.1-0.1-1.7-0.1c-11.1,0-43.3,6.8-44.7,7.1c-9.1,2.1-17.7,3.1-25.5,3.1c-7.1,0-10.8-0.9-10.9-0.9
				l-0.1,0c-1.8-0.4-3-0.8-3.8-1.1c6.4-3,11.2-14,12.2-16.4l0.1-0.3l3.7-30.7c9.6-36.6-18.7-176.2-20.9-186.6c0.7-4,2.8-5.8,6.7-5.8
				c4,0,8.4,2,9.1,2.4l12.5,8.4l1.2-0.5c1.4-0.6,2.9-1,4.7-1c4.2,0,8.2,1.7,9.7,2.4c1.1,1.2,3.3,1.7,4.9,2c2,0.4,4.8,0.8,8.3,1.2
				c5.9,0.6,11.9,1,12,1l0.1,0l53.9-3.3l0.3-0.1c2.5-1,6.5-1.4,11.8-1.4c22.2,0,59.8,8.6,60.1,8.7l1.1-4.5l-9-2.2
				c1.8-0.5,4.2-1,7.4-1.4c5.2-0.6,11.8-1,19.4-1c4.7,0,8.5,0.1,10.3,0.2c6.9,9.2-3.3,29.5-8,36.7l-0.3,0.6l0,0.7
				c0,1.9-3.3,41.8-5.4,68.6c-1.7,8.3,1.1,14.4,1.3,14.7c0.1,0.2,0.2,0.5,0.3,0.6c0.1,0.1,0.4,0.3,0.6,0.4c1.2,0.8,3.3,5.2,7,34.2
				c1.8,14.4,2.7,28.3,2.8,31c-1.1,3.4-0.9,7.7-0.2,11.5l-0.1,0l0.4,1.3c0.9,4.4,2.3,7.9,2.4,8.2l4.4-1.5l-0.7-2.3
				C266.5,245.6,266.9,246.9,266.9,246.9z"/>
			<path class="st4" d="M207.7,207h-5.9v-5.9C205,201.1,207.7,203.8,207.7,207z M205.3,204.2c0-0.5-0.4-0.9-0.9-0.9
				s-0.9,0.4-0.9,0.9s0.4,0.9,0.9,0.9S205.3,204.7,205.3,204.2z"/>
			<path class="st4" d="M201.7,207h5.9c0,3.3-2.7,5.9-5.9,5.9V207z M205.3,210.1c0-0.5-0.4-0.9-0.9-0.9s-0.9,0.4-0.9,0.9
				c0,0.5,0.4,0.9,0.9,0.9S205.3,210.6,205.3,210.1z"/>
			<path class="st4" d="M205.2,113.6h-5.9v-5.9C202.5,107.6,205.2,110.3,205.2,113.6z M202.8,110.8c0-0.5-0.4-0.9-1-0.9
				c-0.5,0-0.9,0.4-0.9,0.9c0,0.5,0.4,0.9,0.9,0.9C202.4,111.7,202.8,111.3,202.8,110.8z"/>
			<path class="st4" d="M199.3,113.6h5.9c0,3.3-2.7,5.9-5.9,5.9V113.6z M202.8,116.6c0-0.5-0.4-0.9-1-0.9c-0.5,0-0.9,0.4-0.9,0.9
				c0,0.5,0.4,0.9,0.9,0.9C202.4,117.6,202.8,117.1,202.8,116.6z"/>
			<path class="st4" d="M201.7,207v5.9c-3.3,0-5.9-2.7-5.9-5.9H201.7z M200,210.1c0-0.5-0.4-0.9-0.9-0.9c-0.5,0-0.9,0.4-0.9,0.9
				c0,0.5,0.4,0.9,0.9,0.9C199.5,211,200,210.6,200,210.1z"/>
			<path class="st4" d="M201.7,201.1v5.9h-5.9C195.8,203.8,198.4,201.1,201.7,201.1z M200,204.2c0-0.5-0.4-0.9-0.9-0.9
				c-0.5,0-0.9,0.4-0.9,0.9s0.4,0.9,0.9,0.9C199.5,205.2,200,204.7,200,204.2z"/>
			<path class="st4" d="M199.3,113.6v5.9c-3.3,0-5.9-2.7-5.9-5.9H199.3z M197.5,116.6c0-0.5-0.4-0.9-0.9-0.9s-0.9,0.4-0.9,0.9
				c0,0.5,0.4,0.9,0.9,0.9S197.5,117.1,197.5,116.6z"/>
			<path class="st4" d="M199.3,107.6v5.9h-5.9C193.3,110.3,196,107.6,199.3,107.6z M197.5,110.8c0-0.5-0.4-0.9-0.9-0.9
				s-0.9,0.4-0.9,0.9c0,0.5,0.4,0.9,0.9,0.9S197.5,111.3,197.5,110.8z"/>
			<path class="st4" d="M115.3,113h-5.9v-5.9C112.6,107.1,115.3,109.8,115.3,113z M112.9,110.2c0-0.5-0.4-0.9-0.9-0.9
				c-0.5,0-0.9,0.4-0.9,0.9c0,0.5,0.4,1,0.9,1C112.5,111.2,112.9,110.7,112.9,110.2z"/>
			<path class="st4" d="M109.3,113h5.9c0,3.3-2.6,5.9-5.9,5.9V113z M112.9,116.1c0-0.5-0.4-0.9-0.9-0.9c-0.5,0-0.9,0.4-0.9,0.9
				c0,0.5,0.4,0.9,0.9,0.9C112.5,117,112.9,116.6,112.9,116.1z"/>
			<path class="st4" d="M114.5,213.2h-5.9v-5.9C111.8,207.3,114.5,209.9,114.5,213.2z M112.1,210.4c0-0.5-0.4-0.9-1-0.9
				c-0.5,0-0.9,0.4-0.9,0.9c0,0.5,0.4,1,0.9,1C111.7,211.3,112.1,210.9,112.1,210.4z"/>
			<path class="st4" d="M108.6,213.2h5.9c0,3.3-2.7,5.9-5.9,5.9V213.2z M112.1,216.2c0-0.5-0.4-0.9-1-0.9c-0.5,0-0.9,0.4-0.9,0.9
				c0,0.5,0.4,0.9,0.9,0.9C111.7,217.2,112.1,216.8,112.1,216.2z"/>
			<path class="st4" d="M109.3,113v5.9c-3.3,0-5.9-2.7-5.9-5.9H109.3z M107.6,116.1c0-0.5-0.4-0.9-1-0.9c-0.5,0-0.9,0.4-0.9,0.9
				c0,0.5,0.4,0.9,0.9,0.9C107.2,117,107.6,116.6,107.6,116.1z"/>
			<path class="st4" d="M109.3,107.1v5.9h-5.9C103.4,109.8,106.1,107.1,109.3,107.1z M107.6,110.2c0-0.5-0.4-0.9-1-0.9
				c-0.5,0-0.9,0.4-0.9,0.9c0,0.5,0.4,1,0.9,1C107.2,111.2,107.6,110.7,107.6,110.2z"/>
			<path class="st4" d="M108.6,213.2v5.9c-3.3,0-5.9-2.7-5.9-5.9H108.6z M106.8,216.2c0-0.5-0.4-0.9-0.9-0.9c-0.5,0-0.9,0.4-0.9,0.9
				c0,0.5,0.4,0.9,0.9,0.9C106.4,217.2,106.8,216.8,106.8,216.2z"/>
			<path class="st4" d="M108.6,207.3v5.9h-5.9C102.6,209.9,105.3,207.3,108.6,207.3z M106.8,210.4c0-0.5-0.4-0.9-0.9-0.9
				c-0.5,0-0.9,0.4-0.9,0.9c0,0.5,0.4,1,0.9,1C106.4,211.3,106.8,210.9,106.8,210.4z"/>
		</g>
		<g>
			<line class="st6" x1="109.3" y1="107.1" x2="109.3" y2="95.3"/>
			<line class="st6" x1="109.3" y1="130.7" x2="109.3" y2="119"/>
			<line class="st6" x1="115.3" y1="113" x2="126.5" y2="113"/>
			<line class="st6" x1="92.2" y1="113" x2="103.4" y2="113"/>
			<line class="st6" x1="199.3" y1="107.6" x2="199.3" y2="95.9"/>
			<line class="st6" x1="199.3" y1="131.3" x2="199.3" y2="119.5"/>
			<line class="st6" x1="205.2" y1="113.6" x2="216.4" y2="113.6"/>
			<line class="st6" x1="182.1" y1="113.6" x2="193.3" y2="113.6"/>
			<line class="st6" x1="201.7" y1="201.1" x2="201.7" y2="189.4"/>
			<line class="st6" x1="201.7" y1="224.7" x2="201.7" y2="213"/>
			<line class="st6" x1="207.7" y1="207" x2="218.9" y2="207"/>
			<line class="st6" x1="184.6" y1="207" x2="195.8" y2="207"/>
			<line class="st6" x1="108.6" y1="207.3" x2="108.6" y2="195.5"/>
			<line class="st6" x1="108.6" y1="230.9" x2="108.6" y2="219.1"/>
			<line class="st6" x1="114.5" y1="213.2" x2="125.7" y2="213.2"/>
			<line class="st6" x1="91.4" y1="213.2" x2="102.6" y2="213.2"/>
		</g>
	</g>
</g>
</svg>
