<?xml version="1.0" encoding="utf-8"?>
<!-- Generator: Adobe Illustrator 17.1.0, SVG Export Plug-In . SVG Version: 6.00 Build 0)  -->
<!DOCTYPE svg PUBLIC "-//W3C//DTD SVG 1.1//EN" "http://www.w3.org/Graphics/SVG/1.1/DTD/svg11.dtd">
<svg version="1.1" id="Layer_1" xmlns="http://www.w3.org/2000/svg" xmlns:xlink="http://www.w3.org/1999/xlink" x="0px" y="0px"
	 viewBox="0 0 300 300" style="enable-background:new 0 0 300 300;" xml:space="preserve">
<style type="text/css">
	.st0{fill:#231F20;}
	.st1{fill:#506837;}
	.st2{fill:none;stroke:#000000;stroke-width:2;stroke-miterlimit:10;stroke-dasharray:12;}
</style>
<g>
	<g id="XMLID_1_">
		<g>
			<path class="st0" d="M271.5,246c0.9,4.4-4.3,7.8-5.4,8.5l-0.1,0.1c-6.6,3.5-17.3,5.3-31.8,5.3c-16.2,0-31.7-2.3-31.8-2.3l-0.2,0
				l-0.2-0.1c-3.2-1.1-7.9-1.7-13.8-1.7c-22.4,0-55.9,8.2-58.7,8.8l-1.5,0.7c-0.6,0.3-1.2,0.4-1.9,0.4c-0.5,0-0.9-0.1-1.3-0.1
				c-0.2,0-0.3,0-0.5-0.1c-0.3,0-0.8,0-1.3,0c-10.6,0-43.4,6.9-43.7,6.9c-9.4,2.1-18.4,3.2-26.5,3.2c-7.4,0-11.5-0.9-12-1
				c-5.4-1.2-8-2.8-8.5-5.2c-0.4-1.8,0.7-3.2,1.6-3.9l0.5-0.4L35,265c3.5-0.3,8.4-8.3,10.8-14l3.7-30.4l0-0.2
				c9.7-36-20.7-183.6-21-185.1L28.4,35l0.1-0.4c1-6.6,5-10.2,11.3-10.2c5.5,0,11,2.8,11.3,2.9l0.2,0.1l10.5,7
				c1.6-0.6,3.5-0.9,5.4-0.9c6.4,0,12.2,3.2,12.5,3.3l1.2,0.7v0.2c3,1,12.9,2,21.4,2.6l53-3.3c3.1-1.1,7.3-1.6,13.1-1.6
				c13.3,0,31.4,2.9,44.4,5.4c6.2-5.7,27.4-5.7,34.5-5.7c6.5,0,11.5,0.2,11.5,0.2l0.9,0l0.6,0.7c11.3,12.5-4,38.3-6.6,42.5
				c-0.4,7.2-4.9,61.6-5.4,68.2l-0.4,1.4l-0.2,0.6c-0.8,4.5-0.3,7.9,0.2,9.4c2.8,3.2,5.9,9.8,9.5,37.6c2.1,16.1,2.9,31.6,2.9,31.8
				l0,0.5l-0.2,0.4c-1.1,2.9-0.7,7.2,0.1,11.1C265.2,240.3,270.6,241.9,271.5,246z M263.7,250.5c1.8-1.1,3.4-2.9,3.2-3.6
				c0,0-0.4-1.3-4.9-2.3l0.7,2.3l-4.4,1.5c-0.1-0.3-1.5-3.8-2.4-8.2l-0.4-1.3l0.1,0c-0.7-3.8-0.9-8.1,0.2-11.5
				c-0.2-2.7-1-16.6-2.8-31c-3.7-29-5.8-33.5-7-34.2c-0.2-0.1-0.5-0.2-0.6-0.4c-0.1-0.1-0.2-0.5-0.3-0.6c-0.2-0.3-3-6.4-1.3-14.7
				c2.2-26.8,5.4-66.7,5.4-68.6l0-0.7l0.3-0.6c4.7-7.2,14.9-27.5,8-36.7c-1.7-0.1-5.6-0.2-10.3-0.2c-7.6,0-14.2,0.3-19.4,1
				c-3.2,0.4-5.6,0.9-7.4,1.4l9,2.2l-1.1,4.5c-0.4-0.1-37.9-8.7-60.1-8.7c-5.3,0-9.3,0.5-11.8,1.4l-0.3,0.1l-53.9,3.3l-0.1,0
				c-0.1,0-6-0.4-12-1c-3.5-0.4-6.3-0.8-8.3-1.2c-1.6-0.3-3.8-0.8-4.9-2c-1.4-0.7-5.5-2.4-9.7-2.4c-1.8,0-3.4,0.3-4.7,1l-1.2,0.5
				l-12.5-8.4c-0.7-0.4-5-2.4-9.1-2.4c-3.9,0-6,1.8-6.7,5.8c2.2,10.5,30.5,150,20.9,186.6l-3.7,30.7l-0.1,0.3
				c-1,2.4-5.8,13.5-12.2,16.4c0.8,0.3,2,0.7,3.8,1.1l0.1,0c0,0,3.8,0.9,10.9,0.9c7.8,0,16.4-1.1,25.5-3.1
				c1.4-0.3,33.6-7.1,44.7-7.1c0.6,0,1.2,0,1.7,0.1c0.2,0,0.5,0.1,0.7,0.1c0.3,0,0.5,0.1,0.7,0.1c0.1,0,0.1,0,0.1,0l1.9-0.8l0.2,0
				c1.5-0.4,36.1-9,60-9c6.3,0,11.4,0.6,15.1,1.9c1.8,0.3,16.1,2.2,31,2.2C247.6,255.2,257.9,253.6,263.7,250.5z"/>
			<path class="st1" d="M199.3,119.5c3.3,0,5.9-2.7,5.9-5.9c0-3.3-2.7-5.9-5.9-5.9c-3.3,0-5.9,2.7-5.9,5.9
				C193.3,116.8,196,119.5,199.3,119.5z M201.7,201.1c-3.3,0-5.9,2.6-5.9,5.9c0,3.3,2.6,5.9,5.9,5.9c3.3,0,5.9-2.7,5.9-5.9
				C207.7,203.8,205,201.1,201.7,201.1z M109.3,107.1c-3.3,0-5.9,2.7-5.9,5.9c0,3.3,2.7,5.9,5.9,5.9c3.3,0,5.9-2.7,5.9-5.9
				C115.3,109.8,112.6,107.1,109.3,107.1z M108.6,219.1c3.3,0,5.9-2.7,5.9-5.9c0-3.3-2.7-5.9-5.9-5.9c-3.3,0-5.9,2.7-5.9,5.9
				C102.6,216.5,105.3,219.1,108.6,219.1z M266.9,246.9c0.1,0.7-1.5,2.5-3.2,3.6c-5.9,3.1-16.1,4.7-29.6,4.7
				c-14.9,0-29.1-1.9-31-2.2c-3.7-1.2-8.8-1.9-15.1-1.9c-23.9,0-58.5,8.7-60,9l-0.2,0l-1.9,0.8c0,0,0,0-0.1,0c-0.2,0-0.4,0-0.7-0.1
				c-0.2,0-0.5-0.1-0.7-0.1c-0.5,0-1.1-0.1-1.7-0.1c-11.1,0-43.3,6.8-44.7,7.1c-9.1,2.1-17.7,3.1-25.5,3.1c-7.1,0-10.8-0.9-10.9-0.9
				l-0.1,0c-1.8-0.4-3-0.8-3.8-1.1c6.4-3,11.2-14,12.2-16.4l0.1-0.3l3.7-30.7c9.6-36.6-18.7-176.2-20.9-186.6c0.7-4,2.8-5.8,6.7-5.8
				c4,0,8.4,2,9.1,2.4l12.5,8.4l1.2-0.5c1.4-0.6,2.9-1,4.7-1c4.2,0,8.2,1.7,9.7,2.4c1.1,1.2,3.3,1.7,4.9,2c2,0.4,4.8,0.8,8.3,1.2
				c5.9,0.6,11.9,1,12,1l0.1,0l53.9-3.3l0.3-0.1c2.5-1,6.5-1.4,11.8-1.4c22.2,0,59.8,8.6,60.1,8.7l1.1-4.5l-9-2.2
				c1.8-0.5,4.2-1,7.4-1.4c5.2-0.6,11.8-1,19.4-1c4.7,0,8.5,0.1,10.3,0.2c6.9,9.2-3.3,29.5-8,36.7l-0.3,0.6l0,0.7
				c0,1.9-3.3,41.8-5.4,68.6c-1.7,8.3,1.1,14.4,1.3,14.7c0.1,0.2,0.2,0.5,0.3,0.6c0.1,0.1,0.4,0.3,0.6,0.4c1.2,0.8,3.3,5.2,7,34.2
				c1.8,14.4,2.7,28.3,2.8,31c-1.1,3.4-0.9,7.7-0.2,11.5l-0.1,0l0.4,1.3c0.9,4.4,2.3,7.9,2.4,8.2l4.4-1.5l-0.7-2.3
				C266.5,245.6,266.9,246.9,266.9,246.9z"/>
			<path class="st0" d="M207.7,207h-5.9v-5.9C205,201.1,207.7,203.8,207.7,207z M205.3,204.2c0-0.5-0.4-0.9-0.9-0.9
				s-0.9,0.4-0.9,0.9s0.4,0.9,0.9,0.9S205.3,204.7,205.3,204.2z"/>
			<path class="st0" d="M201.7,207h5.9c0,3.3-2.7,5.9-5.9,5.9V207z M205.3,210.1c0-0.5-0.4-0.9-0.9-0.9s-0.9,0.4-0.9,0.9
				c0,0.5,0.4,0.9,0.9,0.9S205.3,210.6,205.3,210.1z"/>
			<path class="st0" d="M205.2,113.6h-5.9v-5.9C202.5,107.6,205.2,110.3,205.2,113.6z M202.8,110.8c0-0.5-0.4-0.9-1-0.9
				c-0.5,0-0.9,0.4-0.9,0.9c0,0.5,0.4,0.9,0.9,0.9C202.4,111.7,202.8,111.3,202.8,110.8z"/>
			<path class="st0" d="M199.3,113.6h5.9c0,3.3-2.7,5.9-5.9,5.9V113.6z M202.8,116.6c0-0.5-0.4-0.9-1-0.9c-0.5,0-0.9,0.4-0.9,0.9
				c0,0.5,0.4,0.9,0.9,0.9C202.4,117.6,202.8,117.1,202.8,116.6z"/>
			<path class="st0" d="M201.7,207v5.9c-3.3,0-5.9-2.7-5.9-5.9H201.7z M200,210.1c0-0.5-0.4-0.9-0.9-0.9c-0.5,0-0.9,0.4-0.9,0.9
				c0,0.5,0.4,0.9,0.9,0.9C199.5,211,200,210.6,200,210.1z"/>
			<path class="st0" d="M201.7,201.1v5.9h-5.9C195.8,203.8,198.4,201.1,201.7,201.1z M200,204.2c0-0.5-0.4-0.9-0.9-0.9
				c-0.5,0-0.9,0.4-0.9,0.9s0.4,0.9,0.9,0.9C199.5,205.2,200,204.7,200,204.2z"/>
			<path class="st0" d="M199.3,113.6v5.9c-3.3,0-5.9-2.7-5.9-5.9H199.3z M197.5,116.6c0-0.5-0.4-0.9-0.9-0.9s-0.9,0.4-0.9,0.9
				c0,0.5,0.4,0.9,0.9,0.9S197.5,117.1,197.5,116.6z"/>
			<path class="st0" d="M199.3,107.6v5.9h-5.9C193.3,110.3,196,107.6,199.3,107.6z M197.5,110.8c0-0.5-0.4-0.9-0.9-0.9
				s-0.9,0.4-0.9,0.9c0,0.5,0.4,0.9,0.9,0.9S197.5,111.3,197.5,110.8z"/>
			<path class="st0" d="M115.3,113h-5.9v-5.9C112.6,107.1,115.3,109.8,115.3,113z M112.9,110.2c0-0.5-0.4-0.9-0.9-0.9
				c-0.5,0-0.9,0.4-0.9,0.9c0,0.5,0.4,1,0.9,1C112.5,111.2,112.9,110.7,112.9,110.2z"/>
			<path class="st0" d="M109.3,113h5.9c0,3.3-2.6,5.9-5.9,5.9V113z M112.9,116.1c0-0.5-0.4-0.9-0.9-0.9c-0.5,0-0.9,0.4-0.9,0.9
				c0,0.5,0.4,0.9,0.9,0.9C112.5,117,112.9,116.6,112.9,116.1z"/>
			<path class="st0" d="M114.5,213.2h-5.9v-5.9C111.8,207.3,114.5,209.9,114.5,213.2z M112.1,210.4c0-0.5-0.4-0.9-1-0.9
				c-0.5,0-0.9,0.4-0.9,0.9c0,0.5,0.4,1,0.9,1C111.7,211.3,112.1,210.9,112.1,210.4z"/>
			<path class="st0" d="M108.6,213.2h5.9c0,3.3-2.7,5.9-5.9,5.9V213.2z M112.1,216.2c0-0.5-0.4-0.9-1-0.9c-0.5,0-0.9,0.4-0.9,0.9
				c0,0.5,0.4,0.9,0.9,0.9C111.7,217.2,112.1,216.8,112.1,216.2z"/>
			<path class="st0" d="M109.3,113v5.9c-3.3,0-5.9-2.7-5.9-5.9H109.3z M107.6,116.1c0-0.5-0.4-0.9-1-0.9c-0.5,0-0.9,0.4-0.9,0.9
				c0,0.5,0.4,0.9,0.9,0.9C107.2,117,107.6,116.6,107.6,116.1z"/>
			<path class="st0" d="M109.3,107.1v5.9h-5.9C103.4,109.8,106.1,107.1,109.3,107.1z M107.6,110.2c0-0.5-0.4-0.9-1-0.9
				c-0.5,0-0.9,0.4-0.9,0.9c0,0.5,0.4,1,0.9,1C107.2,111.2,107.6,110.7,107.6,110.2z"/>
			<path class="st0" d="M108.6,213.2v5.9c-3.3,0-5.9-2.7-5.9-5.9H108.6z M106.8,216.2c0-0.5-0.4-0.9-0.9-0.9c-0.5,0-0.9,0.4-0.9,0.9
				c0,0.5,0.4,0.9,0.9,0.9C106.4,217.2,106.8,216.8,106.8,216.2z"/>
			<path class="st0" d="M108.6,207.3v5.9h-5.9C102.6,209.9,105.3,207.3,108.6,207.3z M106.8,210.4c0-0.5-0.4-0.9-0.9-0.9
				c-0.5,0-0.9,0.4-0.9,0.9c0,0.5,0.4,1,0.9,1C106.4,211.3,106.8,210.9,106.8,210.4z"/>
		</g>
		<g>
			<line class="st2" x1="109.3" y1="107.1" x2="109.3" y2="95.3"/>
			<line class="st2" x1="109.3" y1="130.7" x2="109.3" y2="119"/>
			<line class="st2" x1="115.3" y1="113" x2="126.5" y2="113"/>
			<line class="st2" x1="92.2" y1="113" x2="103.4" y2="113"/>
			<line class="st2" x1="199.3" y1="107.6" x2="199.3" y2="95.9"/>
			<line class="st2" x1="199.3" y1="131.3" x2="199.3" y2="119.5"/>
			<line class="st2" x1="205.2" y1="113.6" x2="216.4" y2="113.6"/>
			<line class="st2" x1="182.1" y1="113.6" x2="193.3" y2="113.6"/>
			<line class="st2" x1="201.7" y1="201.1" x2="201.7" y2="189.4"/>
			<line class="st2" x1="201.7" y1="224.7" x2="201.7" y2="213"/>
			<line class="st2" x1="207.7" y1="207" x2="218.9" y2="207"/>
			<line class="st2" x1="184.6" y1="207" x2="195.8" y2="207"/>
			<line class="st2" x1="108.6" y1="207.3" x2="108.6" y2="195.5"/>
			<line class="st2" x1="108.6" y1="230.9" x2="108.6" y2="219.1"/>
			<line class="st2" x1="114.5" y1="213.2" x2="125.7" y2="213.2"/>
			<line class="st2" x1="91.4" y1="213.2" x2="102.6" y2="213.2"/>
		</g>
	</g>
</g>
</svg>
