<?xml version="1.0" encoding="utf-8"?>
<!-- Generator: Adobe Illustrator 17.1.0, SVG Export Plug-In . SVG Version: 6.00 Build 0)  -->
<!DOCTYPE svg PUBLIC "-//W3C//DTD SVG 1.1//EN" "http://www.w3.org/Graphics/SVG/1.1/DTD/svg11.dtd">
<svg version="1.1" id="Layer_1" xmlns="http://www.w3.org/2000/svg" xmlns:xlink="http://www.w3.org/1999/xlink" x="0px" y="0px"
	 viewBox="0 0 300 300" style="enable-background:new 0 0 300 300;" xml:space="preserve">
<style type="text/css">
	.st0{fill:#8C6239;}
	.st1{fill:#603813;}
</style>
<g>
	<g id="XMLID_1_">
		<g>
			<path d="M208.5,188.1c10-0.9,19.9,0,29.9,0C228.4,188.1,218.4,188.1,208.5,188.1z"/>
			<path d="M62,188.2c10.6-0.1,21.2-1,31.7,0C83.1,188.2,72.5,188.2,62,188.2z"/>
			<path d="M257,184.6c0.7,1,1,1.7,1,2.8c-4.7,0.6-9.4,0.5-14.1,0.4C248.4,187.1,252.8,186.8,257,184.6z"/>
			<path d="M193.5,187.9c-3.1,0-6.2,0-9.9,0c2-1.3,3.4-2.2,5.1-3.3C190,186.3,191.6,187.2,193.5,187.9z"/>
			<path d="M116.6,187.8c-3.6,0-6.7,0-9.8,0c1.8-0.8,3.5-1.5,4.6-3.2C113,185.6,114.5,186.5,116.6,187.8z"/>
			<path d="M56,187.7c-4.6,0.2-9.2,0.2-13.7-0.3c-0.3-1.1,0.5-1.7,0.6-2.8C47.1,186.5,51.5,187.2,56,187.7z"/>
			<path class="st0" d="M33.6,209.1c3.3-0.6,6.4,0.6,10,0C40.7,213.1,35.8,212.9,33.6,209.1z"/>
			<path class="st0" d="M266.8,208.8c-1.1,2.1-2.3,3.1-4.4,3.1c-2.1,0-4.4,0.4-5.5-2.5C260.2,209.2,263.4,209,266.8,208.8z"/>
			<path class="st1" d="M226.4,182.8c7.5-0.2,15-0.5,22.4-1.4c2.3-0.2,4.6,0,7.3,0c-1,1.7-2.5,2-3.9,2.4c-4,1.1-8.1,1.2-12.1,1.2
				c-14,0.2-28,0.2-41.9,0.3c-1.5,0-3,0-4.4-0.5c-1.1-0.4-2.4-0.7-2.8-2.2c0.7-1.3,1.9-0.8,2.9-0.8
				C204.6,182.2,215.5,183.1,226.4,182.8z"/>
			<path class="st1" d="M189.4,180.4c-2.3,2.5-4.4,4.6-7.4,5c-10.2,1.1-20.4,1-30.7,1c-10,0-20-0.4-30-0.3c-4.5,0-7.1-2.7-10.1-5.2
				C137.1,182.2,162.9,182.2,189.4,180.4z"/>
			<path class="st1" d="M44.3,181.3c21.6,1.9,43.2,2.4,64.8,0.2c0,2.9-1.8,3.2-3.3,3.5c-3.6,0.6-7.3,0.3-11,0.3
				c-10.2-0.1-20.3-0.1-30.5-0.3c-5.4-0.1-10.8,0-16.1-1.3C46.7,183.4,45.1,183.2,44.3,181.3z"/>
			<path class="st1" d="M59.9,126.6c1.6,4,1.1,8.1,1.1,12.3c0,5.7-1.9,9.4-7.7,11.4c-4.3,1.5-7.9,4.8-11.5,7.9
				c-2.2-13.7-11.9-21.9-26.8-17.8c2.6-3.9,6.1-6.5,10-8.7c9-4.9,18.8-7.6,28.6-10.3C55.5,120.9,58.8,123.8,59.9,126.6z"/>
			<path class="st1" d="M116.6,150.4c-2.7,3.7-5.3,7.4-8,11.1c-0.9,1.3-2.3,1.2-3.6,1.3c-7.6,0.8-15.3,0.5-23,0.2
				c-10.3-0.4-20.6-0.8-30.9-1.2c-2.7-0.1-5.4-0.5-8.7-0.8c0.7-0.9,0.9-1.5,1.4-1.8c7.8-5.3,15.4-11,25.1-12.3
				c7-0.9,14.1-0.9,21.2-0.5c8,0.5,16,0.7,23.8,2.9C114.8,149.6,115.8,149.7,116.6,150.4z"/>
			<path class="st1" d="M187.9,161.3c-25.3,0-50.6-0.4-75.8,0.1c2.1-3.1,4.3-6.6,7.1-9.5c2.8-2.8,6.5-3.7,10.2-4.2
				c13.8-1.9,27.7-1.9,41.5,0.1c6.3,0.9,11.3,3.8,14.3,9.6C186.1,158.9,187.2,160.2,187.9,161.3z"/>
			<path class="st1" d="M257.4,161c-5.4,0.4-10.5,0.9-15.7,1.2c-13.6,0.7-27.1,1.1-40.7,1.1c-5.8,0-10.6-1-13.2-6.9
				c-1-2.1-2.8-3.9-4.3-5.9c1.1-1.1,2.6-1.3,3.8-1.5c15.2-2.7,30.6-3.8,46-1.6c6.4,0.9,11.8,4.4,17.1,7.8c1.6,1,3.2,2.1,4.8,3.2
				C256.1,158.9,256.9,159.4,257.4,161z"/>
			<path class="st1" d="M273.4,130.7c4.5,2.4,8.6,5.4,12,9.9c-13.5-4.5-23.5,2.1-27,17.4c-5.3-4.5-11.2-8.1-17.6-10.7
				c-0.6-0.2-0.9-0.7-1-1.3c-0.5-5.9-1.5-11.7-0.2-17.6c0.7-3.1,2.8-5,5.3-6.6c0.6-0.4,1.1-0.4,1.6-0.2
				C255.7,124.1,264.9,126.2,273.4,130.7z"/>
			<path class="st1" d="M118.3,138c-0.3,3.4,0,6.6,0.8,10.1c-18.8-5.3-37.5-4.6-56.5-2.8c0.5-3.5,0.9-7.3,0.7-11.1
				c-0.2-4.3-0.9-8.4-3.9-11.8c-2.2-2.4-4.7-3.3-7.8-2.3c-1.2,0.4-2.4,0.6-4,1c0.3-7,0.6-13.6,5.1-19.3c0.8-1,1.9-1.9,2.6-3
				c4-6.4,9.9-8.5,17.1-9c12-0.8,24-2.3,36.1-2.4c2.8,0,5.7,0.2,8.3,1.4c1.5,0.7,2.2,1.6,2,3.5c-0.9,11-1.9,22.1-0.5,33.1
				C118.8,129.5,118.7,133.8,118.3,138z"/>
			<path class="st1" d="M179.6,94.2c0.9,5.6,0.5,11.3,0.4,17c-0.2,9.7-0.5,19.5-0.5,29.2c0,2.2-0.3,4.5-0.6,6.4
				c-19.3-3.8-38.4-3.8-57.7,0c-0.2-1.3-0.5-2.9-0.5-4.6c0.2-12.9-0.9-25.8-0.8-38.7c0-3.2,0.1-6.5,0.7-9.7c0.7-3.8,1.7-4.9,5.5-5.2
				c16.1-1.3,32.3-1.2,48.4,0C177.8,88.9,179,90.3,179.6,94.2z"/>
			<path class="st1" d="M239.2,92.8c8.6,7.3,14.2,16,13.1,28.2c-0.8-0.2-1.5-0.3-2.2-0.5c-6.4-1.7-10.8,0.9-12.5,7.4
				c-1.4,5.3-0.9,10.7-0.2,16.1c0.1,0.5,0.1,1,0.2,1.3c-18.9-1.9-37.7-2.5-55.9,2.6c-0.4-13.2,0.9-26.6,0.7-39.9
				c-0.1-5.3-0.1-10.6-1.1-15.9c-0.3-1.5,0.4-2.4,1.6-3.1c2.1-1.2,4.4-1.7,6.7-1.7c14.6,0.3,29.1,1.4,43.6,3.2
				C235.4,90.8,237.4,91.3,239.2,92.8z"/>
			<path class="st1" d="M190.4,164.3c0.5,4.8-1.1,9.4-0.8,14.4c-26.5,1.1-52.7,1.1-79.1,0c0.1-4.9-1.2-9.4-0.9-14.2
				c4-1.2,8.2-1.4,12.3-1.4c13.1,0,26.1,0.4,39.2,0c8.8-0.2,17.5-0.4,26.2,0.7C188.3,163.9,189.3,164.1,190.4,164.3z"/>
			<path class="st1" d="M107.5,165.2c-0.3,4.6,1.1,9.1,0.5,13.9c-2.6,0.2-5.2,0.5-7.9,0.6c-16.3,0.7-32.6,1.3-48.9-0.8
				c-1.7-0.2-3.5-0.1-5.2,0c-2.5,0-4.2-1.2-4.4-3.7c-0.2-3.9,0-7.8,0-11.9C63.5,165.2,85.3,165.6,107.5,165.2z"/>
			<path class="st1" d="M258.2,189.6c-1.2,5.7-2.4,11.5-3.6,17.2c-69.6,3.4-139.1,3.5-209,0c-1.2-5.4-2.4-11.4-3.7-17.2
				C114.1,190.9,186,191,258.2,189.6z"/>
			<path class="st1" d="M41.4,197.6l1.7,8.8c-4.9,0.2-9.8,0.4-14.3-1.3c-2.5-0.9-3.1-4-4.1-6.3c-4.3-8.9-5.6-18.2-4.2-28
				c0-0.2,0-0.3,0-0.5c0.2-1.2,0.2-2.5,0.3-3.8c0.4-2.9-0.2-4.9-3.2-6.4c-3.9-2-6.3-9.3-4.9-13.4c1.1-3.2,4.9-5.4,9.1-5.2
				c9,0.4,17,7.5,17.6,16.4c0.2,4.1,0.4,8.4,0,12.6c-0.4,3.3-0.2,6.7,1.5,9.7c0.5,0.9,0.6,1.9,0.2,2.7c-1,2.3-1.2,4.6-1,6.9
				C40.3,192.3,40.9,194.9,41.4,197.6z"/>
			<path class="st1" d="M279.6,141.6c5,0.1,8.3,3.3,8.3,8.1c0,0.3,0,0.7-0.1,1c-0.4,4.2-2.2,8-6.1,10c-2.2,1.1-2.6,2.8-2.5,4.9
				c0.3,4.8,1.1,9.6,1,14.4c-0.2,8.6-3.3,16.2-7.2,23.6c-0.4,0.8-1,1.3-1.9,1.5c-4.6,1.2-9.2,1.4-14,1.2l2.7-14.2
				c0.2-0.8,0.3-1.6,0.4-2.4c0.2-1.8,0-3.7-0.7-5.5c-0.6-1.7-0.7-3.4,0.3-5c0.7-1.2,1.1-2.4,1-3.8c-0.2-5.4,0.4-10.9,0-16.3
				c-0.5-7.4,7.2-16.4,14.7-17.3C276.8,141.7,278.2,141.6,279.6,141.6z"/>
			<path class="st1" d="M258.6,163.4c0.1,4.1,0.3,8.4-0.5,12.7c-0.3,1.4-1.1,3-3.3,2.8c-7.2-0.5-14.2,1-21.4,1.2
				c-13.3,0.3-26.6,0.2-39.9-0.8c-1.7-0.1-1.6-1-1.6-2.2c0-4,0.9-7.9,0.8-12C214.8,165.7,236.6,165.1,258.6,163.4z"/>
			<path d="M33.6,209.1c2.2,3.8,7,4,10,0C40,209.7,36.9,208.5,33.6,209.1z M262.4,211.9c2.1,0,3.3-1,4.4-3.1
				c-3.5,0.2-6.6,0.4-9.9,0.5C258,212.3,260.2,211.9,262.4,211.9z M251.2,209.4c-22.8,1-45.6,1.8-68.4,2.3
				c-28.2,0.6-56.3,0.7-84.5-0.6c-16.5-0.8-33.1-1.2-49.7-1.8c-1.7-0.1-2.6,0.7-3.4,1.9c-3.5,4.8-10.3,4.6-13.6-0.3
				c-1-1.5-1.9-2.8-3.9-3.1c-1.8-0.3-2.5-2-3.3-3.5c-6.1-10.4-7.6-21.7-5.8-33.5c0-0.2,0.1-0.5,0.1-0.7l1.7,0.2c0,0.2,0,0.3,0,0.5
				c-1.4,9.8-0.1,19.1,4.2,28c1.1,2.2,1.6,5.3,4.1,6.3c4.5,1.7,9.4,1.5,14.3,1.3l-1.7-8.8c-0.5-2.6-1.2-5.2-1.3-7.8l1.8-0.2
				c1.2,5.8,2.5,11.8,3.7,17.2c69.9,3.5,139.4,3.5,209,0c1.2-5.6,2.4-11.5,3.6-17.2l1.9,0.2c0,0.8-0.2,1.6-0.4,2.4l-2.7,14.2
				c4.9,0.2,9.5-0.1,14-1.2c0.9-0.2,1.4-0.7,1.9-1.5c3.9-7.4,7.1-15,7.2-23.6c0.1-4.9-0.6-9.6-1-14.4c-0.1-2.1,0.2-3.7,2.5-4.9
				c4-2,5.8-5.7,6.1-10c0-0.3,0.1-0.7,0.1-1l1.7,0.1c0,2.6-0.6,5.2-1.8,7.6c-1,2.1-2.3,4.2-4.5,5.2c-2,0.9-2.2,2.3-2,4.2
				c0.5,7,1.3,13.9,0.4,20.9c-0.9,6.7-3.9,12.5-6.9,18.3c-0.4,0.8-1.2,1.7-2.1,1.7c-2.2,0.2-3.2,1.7-4.3,3.3
				c-3.3,4.9-10.1,5.1-13.5,0.2C253.9,209.8,253,209.3,251.2,209.4z"/>
			<path d="M111.3,184.6c-1.1,1.7-2.8,2.5-4.6,3.2c3.1,0,6.2,0,9.8,0C114.5,186.5,113,185.6,111.3,184.6z M119.9,103.5
				c-0.1,12.9,1,25.8,0.8,38.7c0,1.6,0.3,3.3,0.5,4.6c19.3-3.8,38.5-3.8,57.7,0c0.4-2,0.7-4.2,0.6-6.4c-0.1-9.7,0.2-19.5,0.5-29.2
				c0.1-5.7,0.5-11.3-0.4-17c-0.6-3.9-1.8-5.3-5.1-5.6c-16.1-1.2-32.3-1.3-48.4,0c-3.8,0.3-4.8,1.3-5.5,5.2
				C120,97,119.9,100.2,119.9,103.5z M119.2,151.9c-2.8,2.9-5,6.4-7.1,9.5c25.2-0.6,50.5-0.2,75.8-0.1c-0.8-1.1-1.9-2.4-2.6-3.8
				c-3-5.8-8-8.7-14.3-9.6c-13.8-2-27.7-2-41.5-0.1C125.8,148.2,122,149.1,119.2,151.9z M93.7,188.2c-10.5-1-21.1-0.1-31.7,0
				C72.5,188.2,83.1,188.2,93.7,188.2z M109.1,181.5c-21.7,2.1-43.2,1.6-64.8-0.2c0.8,1.9,2.4,2.1,3.9,2.5
				c5.3,1.3,10.7,1.2,16.1,1.3c10.2,0.1,20.3,0.2,30.5,0.3c3.7,0,7.3,0.3,11-0.3C107.3,184.8,109.1,184.5,109.1,181.5z M51.6,120.1
				c3.1-1,5.6-0.2,7.8,2.3c3.1,3.4,3.8,7.5,3.9,11.8c0.2,3.8-0.3,7.6-0.7,11.1c19-1.8,37.8-2.5,56.5,2.8c-0.8-3.5-1.1-6.7-0.8-10.1
				c0.4-4.2,0.5-8.5-0.1-12.7c-1.3-11.1-0.4-22.1,0.5-33.1c0.1-1.9-0.5-2.8-2-3.5c-2.7-1.1-5.5-1.4-8.3-1.4
				c-12.1,0.1-24.1,1.6-36.1,2.4c-7.2,0.5-13.1,2.7-17.1,9c-0.7,1.1-1.8,2-2.6,3c-4.5,5.6-4.7,12.3-5.1,19.3
				C49.2,120.7,50.4,120.5,51.6,120.1z M107.5,165.2c-22.2,0.4-44,0-65.8-1.9c0,4.1-0.1,8,0,11.9c0.1,2.4,1.9,3.7,4.4,3.7
				c1.8,0,3.5-0.2,5.2,0c16.3,2.1,32.6,1.5,48.9,0.8c2.6-0.1,5.2-0.4,7.9-0.6C108.6,174.3,107.2,169.8,107.5,165.2z M56,187.7
				c-4.5-0.5-8.8-1.2-13.1-3.1c-0.1,1.1-0.8,1.7-0.6,2.8C46.8,187.9,51.4,187.9,56,187.7z M42.5,161c3.2,0.3,6,0.7,8.7,0.8
				c10.3,0.5,20.6,0.9,30.9,1.2c7.7,0.3,15.3,0.5,23-0.2c1.3-0.1,2.7,0,3.6-1.3c2.6-3.7,5.3-7.4,8-11.1c-0.8-0.7-1.8-0.8-2.8-1.1
				c-7.8-2.2-15.8-2.4-23.8-2.9c-7.1-0.5-14.2-0.4-21.2,0.5c-9.7,1.2-17.3,7-25.1,12.3C43.4,159.5,43.2,160.1,42.5,161z M53.6,121.4
				c-9.8,2.7-19.6,5.3-28.6,10.3c-3.9,2.1-7.4,4.7-10,8.7c14.8-4,24.6,4.1,26.8,17.8c3.6-3.1,7.2-6.4,11.5-7.9
				c5.8-2,7.7-5.7,7.7-11.4c0-4.2,0.5-8.3-1.1-12.3C58.8,123.8,55.5,120.9,53.6,121.4z M208.5,188.1c10,0,19.9,0,29.9,0
				C228.4,188.1,218.5,187.2,208.5,188.1z M243.9,187.8c4.7,0.1,9.4,0.2,14.1-0.4c0-1-0.3-1.8-1-2.8
				C252.8,186.8,248.4,187.1,243.9,187.8z M239.9,146c0,0.6,0.4,1.1,1,1.3c6.4,2.7,12.2,6.2,17.6,10.7c3.5-15.3,13.5-21.9,27-17.4
				c-3.4-4.6-7.5-7.5-12-9.9c-8.5-4.5-17.7-6.6-26.9-9.2c-0.6-0.2-1.1-0.2-1.6,0.2c-2.5,1.6-4.6,3.5-5.3,6.6
				C238.4,134.2,239.4,140.1,239.9,146z M181.9,185.3c3-0.3,5.1-2.4,7.4-5c-26.5,1.8-52.3,1.8-78.2,0.3c3,2.5,5.6,5.3,10.1,5.2
				c10-0.1,20,0.3,30,0.3C161.5,186.3,171.8,186.4,181.9,185.3z M193.5,187.9c-1.9-0.7-3.5-1.6-4.8-3.3c-1.7,1.1-3.1,2-5.1,3.3
				C187.3,187.9,190.4,187.9,193.5,187.9z M189.7,178.7c-0.4-4.9,1.2-9.6,0.8-14.4c-1.1-0.2-2.1-0.4-3.1-0.5
				c-8.7-1.1-17.4-0.9-26.2-0.7c-13.1,0.3-26.1-0.1-39.2,0c-4.1,0-8.3,0.1-12.3,1.4c-0.3,4.8,1,9.4,0.9,14.2
				C137,179.8,163.2,179.8,189.7,178.7z M233.2,90.5c-14.5-1.7-29-2.8-43.6-3.2c-2.4-0.1-4.6,0.5-6.7,1.7c-1.2,0.7-1.9,1.6-1.6,3.1
				c1,5.2,1,10.6,1.1,15.9c0.2,13.4-1.2,26.7-0.7,39.9c18.2-5.1,36.9-4.5,55.9-2.6c0-0.4-0.1-0.8-0.2-1.3
				c-0.7-5.4-1.2-10.8,0.2-16.1c1.7-6.5,6.1-9,12.5-7.4c0.7,0.2,1.4,0.3,2.2,0.5c1-12.1-4.6-20.9-13.1-28.2
				C237.4,91.3,235.4,90.8,233.2,90.5z M191.6,85.2c12,0.4,23.9,1.1,35.8,2.8c0.2,0,0.5,0.1,0.7,0.1c5.4,0.4,10.5,1.1,14.6,5.4
				c5.6,5.9,10.4,12.2,11.4,20.6c0.1,0.7,0.4,1.3,0.3,2c-0.6,4.7,1.9,6.2,6,7.4c7.8,2.2,15.2,5.5,21.5,10.7
				c5.1,4.1,7.6,9.9,7.5,15.5l-1.7-0.1c0-4.7-3.3-7.9-8.3-8.1c-1.4,0-2.8,0.1-4.2,0.2c-7.5,0.9-15.2,9.9-14.7,17.3
				c0.4,5.4-0.2,10.9,0,16.3c0.1,1.4-0.3,2.6-1,3.8c-1,1.6-1,3.3-0.3,5c0.7,1.8,0.9,3.6,0.7,5.5l-1.9-0.2
				c-72.2,1.4-144.1,1.3-216.2-0.1l-1.8,0.2c-0.2-2.3,0-4.6,1-6.9c0.3-0.8,0.2-1.8-0.2-2.7c-1.8-3-1.9-6.4-1.5-9.7
				c0.4-4.2,0.3-8.5,0-12.6c-0.6-9-8.6-16.1-17.6-16.4c-4.2-0.2-8,2-9.1,5.2c-1.4,4.2,1,11.5,4.9,13.4c3,1.5,3.6,3.5,3.2,6.4
				c-0.2,1.2-0.2,2.5-0.3,3.8l-1.7-0.2c0.2-1.6,0.1-3.3,0.3-5c0.1-0.9-0.2-1.5-1-2.1c-5.9-3.7-8.5-9.5-7.2-16.4
				c1.1-5.5,3.8-9.9,8.4-13.3c7.2-5.4,15.4-8.5,23.9-11c0.6-0.2,1.2-0.4,1.9-0.7c0.5-5.1,0.9-10.2,2.9-14.9
				c2.6-6,6.8-10.8,11.6-15.1c2.5-2.2,5.7-2.6,8.8-3.1c14.4-2,28.9-3.3,43.5-3.3c2.9,0,5.6,0.8,8,2.9c1.5-1.7,3.5-2,5.5-2.2
				c7.5-0.9,14.9-0.9,22.4-0.6c5.2,0.2,10.5,0,15.7-0.2c3.8-0.1,7.5,0.4,11.2,0.7c1.9,0.1,3.8,0.5,5,2.3
				C183.4,85.6,187.5,85.1,191.6,85.2z M258.6,163.4c-22.1,1.6-43.9,2.2-66,1.7c0.2,4.1-0.7,8-0.8,12c0,1.1-0.1,2,1.6,2.2
				c13.3,1,26.6,1.1,39.9,0.8c7.2-0.1,14.2-1.6,21.4-1.2c2.1,0.1,3-1.4,3.3-2.8C258.9,171.9,258.8,167.6,258.6,163.4z M201.1,163.3
				c13.6,0,27.1-0.4,40.7-1.1c5.1-0.3,10.2-0.8,15.7-1.2c-0.6-1.6-1.3-2.1-2.2-2.7c-1.6-1-3.2-2.1-4.8-3.2
				c-5.4-3.4-10.8-6.9-17.1-7.8c-15.4-2.2-30.7-1.1-46,1.6c-1.3,0.2-2.8,0.4-3.8,1.5c1.5,2,3.3,3.8,4.3,5.9
				C190.5,162.3,195.3,163.3,201.1,163.3z M226.4,182.8c-10.9,0.3-21.8-0.6-32.7-1c-1,0-2.2-0.5-2.9,0.8c0.4,1.4,1.7,1.8,2.8,2.2
				c1.4,0.5,2.9,0.5,4.4,0.5c14-0.1,28-0.1,41.9-0.3c4.1,0,8.2-0.1,12.1-1.2c1.4-0.4,2.9-0.7,3.9-2.4c-2.6,0-5-0.2-7.3,0
				C241.3,182.3,233.9,182.6,226.4,182.8z"/>
		</g>
	</g>
</g>
</svg>
