<?xml version="1.0" encoding="utf-8"?>
<!-- Generator: Adobe Illustrator 17.1.0, SVG Export Plug-In . SVG Version: 6.00 Build 0)  -->
<!DOCTYPE svg PUBLIC "-//W3C//DTD SVG 1.1 Basic//EN" "http://www.w3.org/Graphics/SVG/1.1/DTD/svg11-basic.dtd">
<svg version="1.1" baseProfile="basic" id="Layer_1"
	 xmlns="http://www.w3.org/2000/svg" xmlns:xlink="http://www.w3.org/1999/xlink" x="0px" y="0px" viewBox="0 0 319.333 89.333"
	 xml:space="preserve">
<rect x="6.818" y="13.317" fill="none" width="289.13" height="51.087"/>
<text transform="matrix(1 0 0 1 6.8178 32.7159)"><tspan x="0" y="0" fill="#231F20" font-family="'AlexBrush-Regular'" font-size="40">Urban Adornments</tspan><tspan x="0" y="27.6" fill="#231F20" font-family="'HelveticaNeue-Thin'" font-size="23">Home décor and accessories</tspan></text>
<g>
	<path fill="#231F20" d="M284.876,70.191l-1.587,0.202c5.142-0.578,10.5-1.707,15.315-3.855c-2.619,1.158-5.573,1.861-8.534,2.503
		c-1.51,0.232-2.997,0.567-4.526,0.701c-0.759,0.091-1.515,0.182-2.267,0.273c-0.754,0.086-1.514,0.115-2.263,0.18
		c-6.017,0.457-11.846,0.676-16.41,1.267c-1.004-0.481-12.514-0.697-12.75-0.594c-2.392,0.085-4.816,0.142-7.268,0.174
		c1.685-0.026,3.362-0.052,5.03-0.078c-1.668,0.026-3.345,0.052-5.03,0.078c-15.501,0.204-32.34-0.541-49.748-1.444
		c-9.657-0.471-35.897-1.774-45.794-2.39c-1.436-0.083-2.863-0.166-4.311-0.251c2.401,0.158,2.401,0.158,4.801,0.316
		c-6.05-0.144-11.534-0.274-16.831-0.4c0.93,0.118,1.089,0.2,3.3,0.405l-2.702-0.174c-2.474,0.108-8.155-0.158-10.83-0.182
		c0.579-0.09-1.524-0.206-3.38-0.305l0.732,0.108c-7.045-0.358-15.23-0.607-21.53-0.864c-0.878-0.034-1.535-0.102-1.931-0.157
		l-6.045-0.135c0.47-0.139-5.007-0.312-2.12-0.308c-4.529,0.024-9.115-0.235-13.434-0.166c-7.709-0.204-15.667-0.34-23.695-0.322
		c-8.027,0.028-16.127,0.175-24.1,0.766l0.394,0.033c-2.79,0.217-5.409,0.517-8.164,0.935c-1.377,0.211-2.789,0.451-4.267,0.77
		c-1.47,0.343-3.038,0.683-4.595,1.523c-0.264,0.177-0.525,0.378-0.763,0.624c-0.242,0.262-0.395,0.549-0.574,0.833
		c-0.345,0.573-0.62,1.209-0.809,1.873c-0.387,1.328-0.276,2.795,0.275,3.951c0.065,0.146,0.116,0.297,0.191,0.434l0.258,0.388
		c0.178,0.248,0.315,0.516,0.514,0.726c0.417,0.403,0.739,0.839,1.15,1.116c0.39,0.284,0.743,0.541,1.053,0.766
		c0.336,0.177,0.619,0.316,0.838,0.41c2.33,1.428,4.19,2.05,6.018,2.6c1.836,0.549,3.696,0.984,6.363,1.488
		c-1.349-0.409,5.224,0.794,2.61,0.186c-1.742-0.453-2.666-0.642-3.527-0.812c-0.851-0.198-1.632-0.404-3.076-0.853l0.073,0.073
		c-1.681-0.513-3.344-1.071-4.919-1.776c-0.804-0.325-1.52-0.776-2.285-1.153c-0.671-0.481-1.436-0.879-1.998-1.442
		c-1.231-1.034-2.115-2.32-2.281-3.667c-0.239-1.315,0.403-2.835,1.246-3.913c0.234-0.286,0.993-0.673,1.722-0.927
		c0.758-0.269,1.588-0.478,2.43-0.657c1.689-0.358,3.45-0.596,5.219-0.792c3.546-0.379,7.152-0.577,10.773-0.715
		c9.667-0.533,20.219-0.36,30.323-0.231c10.881,0.13,22.662,0.412,32.006,0.627c2.231,0.037,3.832,0.232,5.729,0.381
		c8.59,0.262,19.517,0.787,29.208,1.136c-0.182-0.01-0.358-0.02-0.474-0.027c5.148,0.205,8.996,0.545,14.023,0.748
		c-0.023-0.046,0.756-0.014,1.136-0.02c0.862,0.254,29.613,0.919,31.382,1.109c0.523,0.015,1.065,0.031,1.617,0.047
		c10.608,0.563,21.569,1.429,30.685,1.724c1.983-0.027,4.214-0.036,5.884-0.091c1.609,0.145,1.924-0.019,3.867,0.068
		c4.919,0.584,7.815,0.487,5.272,0.262c4.066,0.096,8.134,0.192,11.741,0.277c1.674,0.002,3.336,0.003,5.026,0.005
		c1.433-0.007,2.232,0.067,2.953,0.18c3.67-0.005,2.586,0.087,6.433,0.173c0.929,0.172,9.653-0.177,10.741-0.154l-0.629,0.024
		c4.45,0.009,7.413,0.261,11.772,0.166c3.027-0.05,6.126-0.154,9.249-0.322c1.574-0.125,3.156-0.242,4.735-0.393
		c1.574-0.237,3.156-0.383,4.714-0.7c1.559-0.31,3.114-0.593,4.629-1.045c1.532-0.365,3.007-0.918,4.472-1.427
		c2.892-1.144,5.623-2.564,7.998-4.334c0.037-0.143-2.131,1.492-2.349,1.403c2.947-1.78,5.648-4.144,7.667-7.068
		c0.248-0.367,0.506-0.73,0.745-1.104l0.642-1.168c0.461-0.765,0.747-1.611,1.116-2.421c0.596-1.669,1.098-3.386,1.316-5.138
		c0.237-1.251,0.397-2.803,0.444-3.38c0.059-1.126,0.016-1.456-0.018-1.711c-0.035-0.255-0.064-0.434-0.095-1.252l0.12-0.23
		c-0.312-2.372-0.241-3.5-0.769-5.69c-0.073-0.106-0.278-0.898-0.474-1.669c0.149-0.083-0.708-2.35-0.558-2.278l-0.018-0.019
		c-0.157-0.458-0.266-0.778-0.461-1.346c-0.048-0.107-0.146-0.324-0.281-0.625c-0.072-0.153-0.155-0.327-0.246-0.519
		c-0.06-0.149-0.18-0.357-0.242-0.437c-0.063-0.095-0.128-0.193-0.196-0.294c-0.527-0.818-1.24-1.808-2.039-2.729
		c-1.571-1.872-3.552-3.366-3.974-3.607l-0.34-0.296c-1.131-0.742-1.676-0.943-1.028-0.502c0,0-0.334-0.24-0.718-0.418
		c-0.374-0.19-0.747-0.381-0.747-0.381l0.177,0.077c0,0-0.361-0.206-0.77-0.339c-0.399-0.147-0.799-0.293-0.799-0.293
		c-0.287-0.122-0.642-0.242-0.133-0.203c-0.495-0.079-1.009-0.193-1.535-0.259c-0.538-0.013-1.069-0.097-1.58-0.06
		c1.42-0.009,2.964,0.335,4.316,0.984c1.338,0.668,2.542,1.524,3.5,2.426c-0.837-0.675-2.468-1.803-3.604-2.256
		c-0.333-0.146-0.755-0.336-1.25-0.52c-0.522-0.115-1.083-0.342-1.727-0.378c-1.268-0.231-2.72,0.041-3.9,0.425
		c-0.246,0.121-0.436,0.26-0.703,0.428c-0.134,0.084-0.286,0.175-0.476,0.276c-0.171,0.125-0.375,0.265-0.63,0.424
		c-0.262,0.132-0.573,0.307-0.841,0.58c-0.273,0.271-0.577,0.579-0.957,0.897c0.387-0.412,0.759-0.831,1.2-1.192
		c0.48-0.323,0.915-0.705,1.459-0.961c-0.145-0.041-0.756,0.344-1.419,0.821c-0.632,0.482-1.251,1.168-1.559,1.429
		c-0.107,0.139-0.488,0.526-0.937,0.986c-0.445,0.464-1.045,0.914-1.458,1.315c0.316-0.407-0.788,0.501-1.384,0.838
		c-0.656,0.408-1.049,0.715-0.759,0.586c-0.076,0.117,0.612-0.248,1.16-0.638c0.553-0.38,1.028-0.699,0.633-0.317
		c-0.137,0.058-0.51,0.318-0.932,0.627c-0.444,0.275-0.931,0.61-1.285,0.82c0.032,0.077,0.515-0.24,0.092,0.1
		c-0.804,0.444-1.64,0.978-2.141,1.094c0.144-0.088,0.485-0.22,0.727-0.344c-0.541,0.255,0.883-0.524,2.124-1.502
		c0.637-0.46,1.193-1.002,1.562-1.303c0.337-0.339,0.461-0.479,0.182-0.222c0.181-0.096-1.044,1.064-2.408,2.003
		c-0.682,0.463-1.377,0.889-1.859,1.149c-0.23,0.123-0.407,0.218-0.509,0.272c-0.095,0.05-0.133,0.07-0.029,0.032
		c0.605-0.207-0.383,0.307,0.25,0.077c0,0,0.179-0.105,0.357-0.21c0.178-0.112,0.355-0.224,0.355-0.224
		c0.936-0.426,1.365-0.559,1.073-0.321c-0.779,0.408,0.283-0.263,1.269-1.072c0.988-0.806,1.924-1.688,1.365-1.207
		c0.009,0.011,0.484-0.352,0.484-0.352c-0.429,0.458-1.779,1.47-2.379,1.729c0.043,0.078-0.669,0.536-1.275,0.894l-0.226,0.101
		c-0.643,0.385-1.512,0.712-1.077,0.644c1.893-0.894,1.371-0.457,0.802,0.062c-0.571,0.469-1.189,1.015,0.756,0.105
		c-1.693,0.63,0.502-0.352,2.044-1.432c0.187-0.044,0.929-0.449,2.016-1.269c0.885-0.778,0.486-0.498,0.627-0.676
		c0.535-0.377,1.387-1.289,1.35-1.098c0.279-0.364,0.552-0.616,0.864-0.881c0.322-0.246,0.595-0.576,1.068-0.894
		c0.789-0.623-0.084,0.003,0.471-0.455c0.637-0.41,1.478-0.806,2.336-0.995c0.852-0.2,1.701-0.225,2.297-0.15
		c0.482,0.045,1.777,0.571,0.78,0.458c-2.189-0.254,0.883-0.182-1.44-0.323c0.5,0.136-0.016,0.064-0.694,0.176
		c-0.17,0.019-0.351,0.04-0.53,0.06c-0.172,0.052-0.343,0.103-0.5,0.15c-0.311,0.099-0.562,0.189-0.648,0.251
		c0.715-0.146,2.131-0.504,3.362-0.316l-0.242-0.04c0.272-0.009,0.604,0.055,0.97,0.135c0.184,0.037,0.376,0.077,0.573,0.117
		c0.19,0.068,0.384,0.137,0.579,0.207c0.194,0.072,0.389,0.143,0.581,0.214c0.181,0.095,0.359,0.188,0.532,0.278
		c0.34,0.186,0.659,0.347,0.886,0.542c-0.272-0.082,0.149,0.204-0.55-0.165c0,0,0.082,0.042,0.205,0.105
		c0.116,0.076,0.272,0.178,0.427,0.279c0.31,0.203,0.62,0.406,0.62,0.406c0.167,0.089,0.337,0.187-0.005-0.072
		c0.589,0.383,1.152,0.82,1.51,1.232c0.035,0.078,1.578,1.349,2.793,2.896c1.249,1.523,2.165,3.203,2.051,3.12
		c0.403,1.019,0.392,1.303,0.793,2.293c0.024,0.022-0.174-0.587-0.524-1.473c-0.179-0.434-0.379-0.975-0.651-1.461
		c-0.324-0.49-0.624-1.033-0.994-1.518c-1.402-2.002-3.096-3.509-2.579-3.012c0.262,0.35,2.542,2.528,3.861,5.261
		c1.227,2.808,1.941,5.788,1.935,6.132c0.183,0.79,0.346,1.755,0.391,1.555c0.188,1.359-0.191-0.384-0.109,0.59
		c0.014,0.02,0.025-0.084,0.064,0.224l0.037,0.938c0.403,2.095,0.296,5.214,0.123,7.423c0.018-0.322-0.009-0.67-0.028-1.114
		c-0.025-0.444-0.004-0.979-0.043-1.689l0.042-0.247c-0.007-0.202-0.035-1.368-0.122-1.332c-0.007,1.344-0.052,2.484-0.111,3.897
		c-0.057,0.254-0.122,0.547-0.168,0.751c0.01-0.004,0.021-0.024,0.031-0.017c-0.112,0.449-0.112,0.399-0.115,0.229
		c-0.002-0.022-0.004-0.05-0.002-0.098c-0.151,0.4-0.329,1.69-0.708,3.144c-0.197,0.724-0.409,1.499-0.716,2.201
		c-0.256,0.724-0.601,1.367-0.914,1.887c-0.315,0.642,0.017,0.086-0.398,0.875c-0.359,0.506-0.691,0.973-1.01,1.421
		c-0.359,0.416-0.704,0.814-1.051,1.215c-0.328,0.416-0.74,0.762-1.142,1.154c-0.407,0.388-0.821,0.809-1.346,1.191
		c-0.581,0.592-0.613,0.666,0.227,0.099c0,0-0.386,0.307-0.772,0.613c-0.193,0.153-0.385,0.307-0.53,0.422
		c-0.154,0.102-0.257,0.171-0.257,0.171c1.336-1.184-3.17,1.848-1.669,0.554c-0.479,0.301-1.542,0.791-2.47,1.365
		c-0.065,0.113-0.172,0.283-1.445,0.831c-1.789,0.709-1.367,0.532-2.897,0.993c-0.382,0.05,0.16-0.172,0.076-0.209
		c-2.277,0.924-2.096,0.471-4.313,1.115c-1.406,0.358-4.234,0.909-4.286,1.038C284.709,70.429,284.697,70.329,284.876,70.191z"/>
</g>
</svg>
