<?xml version="1.0" encoding="utf-8"?>
<!-- Generator: Adobe Illustrator 17.1.0, SVG Export Plug-In . SVG Version: 6.00 Build 0)  -->
<!DOCTYPE svg PUBLIC "-//W3C//DTD SVG 1.1//EN" "http://www.w3.org/Graphics/SVG/1.1/DTD/svg11.dtd">
<svg version="1.1" id="Layer_1" xmlns="http://www.w3.org/2000/svg" xmlns:xlink="http://www.w3.org/1999/xlink" x="0px" y="0px"
	 viewBox="0 219 792 221" enable-background="new 0 219 792 221" xml:space="preserve">
<rect x="21.3" y="252.4" fill="none" width="717.1" height="126.7"/>
<g enable-background="new    ">
	<path fill="#231F20" d="M55.4,302.5c-2.8,0-4.3-1-4.3-3c0-3.5,4.4-11.4,13.2-23.7s14.1-19.9,15.9-22.8c4-6.2,6.1-10.5,6.1-12.7
		c0-1.2-0.4-1.8-1.3-2.1c-1.6-0.6-3.5-1-5.6-1c-7.2,0-16.6,3.9-27.8,11.6c-7.4,5.2-13.6,11.3-18.4,18.1c-4.9,6.9-7.2,12.6-7.2,17.1
		c0,3.2,1.3,5,4,5.6c1,0.3,2.1,0.3,3.2,0.3c3.4,0,6.9-1,10.4-3.2c1.8-1,4-2.8,6.7-5.3l1.8-0.6c-1.3,2.3-3.9,4.8-7.9,7.2
		c-4,2.5-8.2,3.6-12.3,3.6c-1,0-2.2-0.1-3.5-0.4s-2.6-1.2-3.9-2.8c-1.2-1.7-1.8-3.8-1.8-6.3c0-10.4,9.8-22.6,29.4-36.6
		c4-2.8,8.7-5.3,14.1-7.4C71.6,236,76.6,235,81,235c2.2,0,4.4,0.4,6.5,1.3c2.1,0.9,3.1,2.3,3.1,4.3c0,2.1-1.2,4.9-3.5,8.7
		s-6.1,9.1-11,15.8c-5,6.7-9.2,13.1-12.7,19c-3.5,5.8-5.2,10-5.2,12.3c0,1.2,0.5,1.7,1.4,1.7c1.8,0,5.2-1.8,10-5.6
		c11.6-8.8,25.4-23.3,41-43.1c2.5-3.2,4.5-4.8,6.1-4.8c0.6,0,0.9,0.3,0.9,0.9c0,0.3-0.1,0.6-0.3,1c0.1,0.3,0.1,0.4,0.1,0.6
		c0,1.4-0.8,3.2-2.3,5.7l-11.6,16.6c-4.8,6.9-8.9,13.3-12.6,19.5s-5.3,9.7-5,10.9l1.8-0.6c3.4-1.8,6.2-4,8.7-6.5
		c0.9-0.6,1.4-1,1.6-1l0.3,0.3c0,0.6-0.9,1.8-2.7,3.8c-4.7,4-7.9,6.1-10,6.1c-1.9,0-3-0.6-3-1.9s1.8-5.2,5.3-11.6
		c3.5-6.6,9.2-15.5,17-27c-1.3,1.6-3.4,3.9-6.2,7c-16.3,16.7-26,26.3-29.2,28.9C64.1,300.6,59.6,302.5,55.4,302.5z"/>
	<path fill="#231F20" d="M120.9,301.1c-4.9,0-7.4-2.7-7.4-8.3c0-2.7,0.8-5.8,2.2-9.2c1.4-3.4,3.1-6.1,4.8-8.3
		c-0.4,0.1-0.8,0.1-1.3,0.1c-1.6,0-2.8-1.2-4-3.4l-7.4,9.6c-4.1,5-6.5,7.6-7.1,7.6c-0.4,0-0.5-0.1-0.5-0.4c0-0.6,0.5-1.7,1.7-2.8
		c5.7-6.7,9.8-12.3,12.2-17c1.6-5.7,3.5-8.7,5.7-8.7c1.6,0,2.3,0.6,2.3,1.9s-0.8,3-2.5,5l-2.3,3.2c0,1.4,1,2.1,3.1,2.1
		c1.2,0,2.5-0.4,4-1.3l2.6-1.6c0.1-0.1,0.5-0.1,1-0.1s1,0.4,1.7,1c0.6,0.6,0.8,1.3,0.6,1.8l-6.9,8.7c-4.3,5.4-6.3,9.7-6.3,12.8
		s1.4,4.7,4.4,4.7c3.1,0,6.7-1.7,11.3-4.9c2.6-1.9,5-4,7.2-6.5c2.1-2.3,3.2-3.6,3.4-3.6c0.5,0,0.6,0.3,0.6,0.8s-0.3,1-0.9,1.7
		l-3.2,3.6c-1.8,1.8-3.8,3.6-6,5.3C128.6,299.2,124.3,301.1,120.9,301.1z"/>
	<path fill="#231F20" d="M162.5,275.9c0-4.5,1.4-6.7,4.1-6.7c0.3,0,0.5,0,0.9,0.1c1.2,0.3,1.7,1,1.7,2.6s-0.3,3.5-0.8,5.7
		c-0.5,1.7-0.9,3-1,3.9c0.3,1.2,0.8,2.6,1.7,4.3c0.9,1.8,2.1,2.6,3.6,2.6s3.2-1,5.2-3.2c0.4-0.5,0.8-0.6,1.2-0.6s0.5,0.3,0.6,0.6
		c0,0.4-0.3,1-0.8,1.7c-2.1,2.5-4.1,3.6-6.5,3.6c-3.2,0-5.8-2.3-7.9-7.1c-2.1,4.7-4.9,8.8-8.7,12.2c-3.8,3.4-7.5,5-11.3,5
		c-3.5,0-5.3-2.6-5.3-7.9c0-4.1,3.9-11.8,11.6-23c7.8-11.1,13.7-16.8,17.9-16.8c0.9,0,1.7,0.3,2.3,0.8s1,1.2,1,1.9
		c0-0.1-0.5,0.4-1.4,1.4s-3.6,3.9-7.9,8.5c-4.3,4.7-8.4,9.7-12.6,15.3c-4.1,5.6-6.2,9.8-6.2,12.9c0,0.8,0.3,1.7,0.6,2.6
		c0.4,0.9,1.2,1.4,2.1,1.4c2.8,0,6.3-2.2,10.2-6.7c3.2-4,5.2-7.2,6-10C162.6,279.6,162.5,277.9,162.5,275.9z"/>
	<path fill="#231F20" d="M209.1,271l1.4-0.3c0.8,0,1.4,0.3,2.1,0.9c0.6,0.6,1,1,1,1.4s-2.1,3.5-6.2,9.6c-4.1,6.1-6.2,10.2-6.2,12.7
		c0,0.3,0,0.4,0.1,0.6c0.4,1.6,1,2.3,2.2,2.3c3.5,0,9.7-5.7,18.9-17.1c0.3-0.3,0.4-0.4,0.6-0.4s0.4,0.3,0.4,0.8s-0.3,1.2-0.9,1.9
		c-8.4,11.3-14.9,17-19.3,17c-0.6,0-1.2-0.1-1.7-0.3c-2.8-1.2-4.4-3.4-4.4-6.6c0-1.2,0.1-2.2,0.4-3.4l-6.2,6
		c-3.9,3.5-6.7,5.2-8.5,5.2s-3.4-0.5-5-1.7c-1.8-1.3-2.7-3.1-2.7-5.3c0-4.8,3.4-10.6,10.1-17.3c6.7-6.7,12.9-10.1,18.5-10.1
		c2.2,0,3.6,0.8,4.4,2.3c0.3,0.5,0.4,1,0.5,1.3C208.9,270.7,208.9,271,209.1,271z M179.4,295.3c0,2.3,0.8,3.6,2.5,3.6
		c3.9,0,9.1-4.1,15.7-12.6l10.5-14.5c-0.5-0.9-1.4-1.4-2.6-1.4c-4,0-9.4,3.1-16,9.3C182.7,286.1,179.4,291.3,179.4,295.3z"/>
	<path fill="#231F20" d="M232.9,269.3c1.8,0,2.7,0.6,2.7,2.1c0,0.4-0.1,0.8-0.3,1.2c-6,8.3-9.6,14.5-10.7,18.8
		c15.3-15.4,24.7-23.2,28-23.2c0.4-0.1,0.6-0.1,0.9-0.1c1.8,0,2.7,0.8,2.7,2.5c0,0.4-0.1,0.6-0.3,1c-0.1,0.4-1.4,2.1-4,5.3
		c-2.8,3.5-5.4,6.7-7.4,10c-2.1,3.2-3,5.8-3,7.9s0.5,3.2,1.4,3.2c2.8,0,8-4,15.1-12c0.1-0.1,0.4-0.4,0.6-0.9c1-1.2,1.6-1.8,1.8-1.8
		s0.3,0.4,0.3,1s-0.5,1.6-1.4,2.6c-8.2,9.3-14,14-17.5,14c-3.2,0-4.9-1.8-4.9-5.3s1.3-7.6,4-12.3l6.3-10.4c-4.5,3.4-8.5,7-12,10.9
		s-6.7,7.8-9.6,11.5c-2.8,3.8-4.5,5.6-5,5.6c-1,0-1.8-0.4-2.3-1.3c-0.5-0.8-0.9-1.8-0.9-3.1c0-1.2,0.4-2.8,1.3-4.9
		c0.9-2.1,1.9-4.5,3.2-7.4l-6,6.2c-1.4,1.4-2.3,2.2-2.7,2.2s-0.5-0.3-0.5-0.6s0.3-0.9,0.8-1.4c2.5-2.5,4.5-4.8,6.3-7
		c1.7-2.2,5.3-6.6,10.6-12.9C231.6,269.7,232.2,269.3,232.9,269.3z"/>
	<path fill="#231F20" d="M370.3,272.2l9.6-0.3c2.3,0,3.6,0.1,3.6,0.5c0,0.9-4.8,1.7-14.5,2.3c-6.2,12-9.2,20.2-9.2,24.6
		c0,3.1,0.9,4.5,2.8,4.5c0.8,0,1.7-0.4,2.7-1.3s1.8-1.3,1.9-1.3c0.3,0,0.4,0.1,0.4,0.5c-0.4,1.2-1.3,2.2-3,3s-3.1,1.2-4.3,1.2
		s-2.1-0.1-2.7-0.3c-1.6-0.6-2.3-2.5-2.3-5.7c0-6.7,2.6-15.1,7.6-25.5l-11.9,0.3c-8.8,8.7-17.7,16.3-26.7,22.8
		c-13.3,9.7-23.8,14.6-31.3,14.6c-0.5,0-0.9,0-1.4-0.1c-10.2-0.9-15.3-6.1-15.3-15.7c0-5.7,1.8-11.6,5.3-18.1
		c4.8-8.4,11.3-15.7,19.5-21.7c8.3-6,15.7-8.9,22.3-8.9c6.6,0,9.8,2.5,9.8,7.2c0,3.2-1,6.9-3,10.9c-1.9,4-4,6.5-6.1,7.5
		c-0.3,0.1-0.4,0.1-0.6,0.1s-0.4-0.1-0.4-0.3l3.2-5.3c2.2-3.5,3.4-6.6,3.4-9.2s-0.5-4.8-1.7-6.3c-1.2-1.7-3-2.5-5.6-2.5
		c-5.2,0-11.4,2.8-18.5,8.7c-7.1,5.7-12.7,12.8-16.3,21.2c-3.8,8.4-5.6,15-5.6,19.7c0,7.1,3.6,10.6,10.9,10.6
		c6.9,0,16.2-4.4,28-13.3c5.2-3.9,13.7-11.3,25.5-22.1c-2.3,0.1-4.4,0.4-6.5,0.6c-4.3,0.8-6.2,0.6-6-0.4c0.3-2.5,1.6-3.6,3.8-3.6
		c4.4,0.5,8,0.8,11,0.8c5.7-5.2,14.2-13.8,25.5-25.8c7.6-8,12.3-12,13.8-12c0.8,0,1,0.5,1,1.7s-0.3,2.8-0.9,5.3s-1.3,3.9-1.9,4.4
		c-1.6,1-3,2.5-4.3,4.3s-3.2,5.2-5.7,10.2C374.2,265,372.1,269.1,370.3,272.2z M378.3,248L353,271.9h5.8c1.4,0.1,3.1,0.1,5.2,0.1
		C365.8,268.1,370.6,260.2,378.3,248z"/>
	<path fill="#231F20" d="M410.3,270.6c7.4-12,12.6-18.1,15.5-18.1c0.5,0,1.2,0.1,1.9,0.4c0.8,0.3,1.3,0.8,1.3,1.3
		c0,0.4-0.1,0.8-0.5,1.3c-5.3,6.5-9.2,11.4-11.8,14.6c-7.8,9.8-12.2,17-12.9,21.2c-0.3,0.9-0.3,1.8-0.3,2.7c0,3,1.2,4.4,3.6,4.4
		c4.9,0,11.3-4.5,19.2-13.6c0.6-0.6,1.2-1,1.7-1.2s0.6,0,0.6,0.4s-0.3,0.8-0.6,1.2c-7.6,9.2-14.5,14.4-20.4,15.4
		c-0.4,0.1-0.8,0.1-1.4,0.1c-2.1,0-3.6-0.6-4.7-2.1c-1-1.4-1.6-3-1.6-4.7c0-1.8,0.4-3.9,1-6.2l-8,8c-3.6,3.4-6.5,5-8.5,5
		c-2.1,0-3.9-0.5-5.2-1.7c-1.7-1.3-2.5-3-2.5-5.3c0-4.8,3.4-10.6,10.1-17.3c6.7-6.7,12.9-10.1,18.5-10.1c1.8,0,3.1,0.5,3.9,1.4
		C409.6,268.6,410,269.3,410.3,270.6z M381,295.3c0,2.3,0.8,3.6,2.5,3.6c2.8,0,7.6-3.9,14.2-11.6c1.2-1.4,5.2-6.6,11.9-15.5
		c-0.5-0.8-1.3-1.2-2.3-1.2c-4.1,0-9.4,3.1-16.2,9.3C384.4,286.1,381,291.3,381,295.3z"/>
	<path fill="#231F20" d="M449.9,279.5c0,2.3-2.2,6.2-6.6,11.6c-5.2,6.5-9.7,9.6-13.3,9.6h-1.6c-1.7,0-3.1-0.9-4-2.7
		c-0.8-1.3-1.2-2.6-1.2-4.1c0-4,2.8-9.6,8.7-16.7s10.5-10.7,14-10.7c3.4,0,5,1.8,5,5.3c0,0.9-0.1,2.1-0.5,3.6
		c0.1,0.3,0.6,0.3,1.9,0.3s3-0.6,5.4-1.9c-0.1,1.2-2.7,2.7-7.9,4.9C449.9,279,449.9,279.2,449.9,279.5z M443.4,274.4
		c-2.2,0-5.4,2.6-9.6,7.9c-4.1,5.3-6.2,9.2-6.2,11.6c0,2.5,0.8,3.8,2.3,3.8c2.8,0,6.5-2.6,10.9-7.8c4.4-5.2,6.6-8.8,6.6-11.1
		C446.4,278.3,445.1,276.9,443.4,274.4z"/>
	<path fill="#231F20" d="M472.2,301.1c-4.9,0-7.5-2.7-7.5-8.3c0-2.7,0.8-5.8,2.2-9.2c1.4-3.4,3.1-6.1,4.8-8.3
		c-0.4,0.1-0.8,0.1-1.3,0.1c-1.6,0-2.8-1.2-4-3.4l-7.4,9.6c-4.1,5-6.5,7.6-7.1,7.6c-0.4,0-0.5-0.1-0.5-0.4c0-0.6,0.5-1.7,1.7-2.8
		c5.7-6.7,9.8-12.3,12.2-17c1.6-5.7,3.5-8.7,5.7-8.7c1.6,0,2.3,0.6,2.3,1.9s-0.8,3-2.5,5l-2.3,3.2c0,1.4,1,2.1,3.1,2.1
		c1.2,0,2.5-0.4,4-1.3l2.6-1.6c0.1-0.1,0.5-0.1,1-0.1s1,0.4,1.7,1s0.8,1.3,0.6,1.8l-6.9,8.7c-4.3,5.4-6.3,9.7-6.3,12.8
		s1.4,4.7,4.4,4.7s6.7-1.7,11.3-4.9c2.6-1.9,5-4,7.2-6.5c2.1-2.3,3.2-3.6,3.4-3.6c0.5,0,0.6,0.3,0.6,0.8s-0.3,1-0.9,1.7l-3.2,3.6
		c-1.8,1.8-3.8,3.6-6,5.3C479.8,299.2,475.5,301.1,472.2,301.1z"/>
	<path fill="#231F20" d="M507,269.3c1.8,0,2.7,0.6,2.7,2.1c0,0.4-0.1,0.8-0.3,1.2c-6,8.3-9.6,14.5-10.7,18.8
		c15.4-15.4,24.7-23.2,28.1-23.2c0.4-0.1,0.6-0.1,0.9-0.1c1.8,0,2.7,0.8,2.7,2.5c0,0.4-0.1,0.6-0.3,1c-0.1,0.4-1.4,2.1-4,5.3
		c-2.8,3.5-5.4,6.7-7.4,10c-2.1,3.2-3,5.8-3,7.9s0.5,3.2,1.4,3.2c2.8,0,8-4,15.1-12c0.1-0.1,0.4-0.4,0.6-0.9c1-1.2,1.6-1.8,1.8-1.8
		s0.3,0.4,0.3,1s-0.5,1.6-1.4,2.6c-8.2,9.3-14,14-17.5,14c-3.2,0-4.9-1.8-4.9-5.3s1.3-7.6,4-12.3l6.3-10.4c-4.5,3.4-8.5,7-12,10.9
		s-6.7,7.8-9.6,11.5c-2.8,3.8-4.5,5.6-5,5.6c-1,0-1.8-0.4-2.3-1.3c-0.5-0.8-0.9-1.8-0.9-3.1c0-1.2,0.4-2.8,1.3-4.9s1.9-4.5,3.2-7.4
		l-6,6.2c-1.4,1.4-2.3,2.2-2.7,2.2s-0.5-0.3-0.5-0.6s0.3-0.9,0.8-1.4c2.5-2.5,4.5-4.8,6.3-7c1.7-2.2,5.3-6.6,10.6-12.9
		C505.7,269.7,506.3,269.3,507,269.3z"/>
	<path fill="#231F20" d="M578.4,299.4c-4.5,0-6.7-2.1-6.7-6.2c0-2.3,1-5.7,3.2-9.8c2.1-4.1,4.3-7.6,6.6-10.5
		c-4.1,1.9-8.8,5.6-14.2,10.7c-5.3,5.2-9.1,10.6-11.3,16.3c-0.4,0.5-0.9,0.8-1.7,0.8c-1.6,0-2.3-0.9-2.3-2.7
		c0.6-3.6,2.2-7.8,4.4-12.6c0.8-1.6,2.8-6,6.5-13.3c-5.2,3.4-9.6,7-13.2,10.9s-7,7.8-10,11.6c-3.1,3.9-4.8,5.8-5.2,5.8
		c-0.9,0-1.6-0.4-2.2-1.2c-0.6-0.8-0.9-1.6-0.9-2.3c0-1.2,1.7-5.6,5.2-13.1l-6,6.2c-1.4,1.4-2.3,2.2-2.7,2.2s-0.5-0.3-0.5-0.6
		s0.3-0.9,0.8-1.4c2.5-2.5,4.7-4.9,6.6-7.4c1.9-2.5,5-6.9,9.6-13.1c0.8-1,1.8-1.4,3.1-1.4s1.9,0.6,1.9,1.9c0,0.5-1.8,3.6-5.3,9.7
		c-3.5,6-5.4,9.7-5.8,11.3c2.7-3,6.7-7,12.2-12c8.2-7.5,13.5-11.3,16-11.3c0.8,0,1.6,0.3,2.2,0.6c0.6,0.5,1,1,1,1.6
		c0,0.5-1.3,3.1-3.9,7.5c-2.5,4.5-3.9,7.2-4.1,8.2c7.4-6.2,11-9.3,11-9.3c6.2-4.8,10.7-7.2,13.3-7.2c0.8,0,1.6,0.3,2.2,0.8
		c0.6,0.5,1,1,1,1.7c0,0.1-2.2,3-6.5,8.4s-6.7,10-7.2,13.5c-0.1,1.2,0.1,2.1,0.6,2.7s1.7,0.9,3.2,0.9c1.6,0,3.9-1,6.9-3.2
		s6.1-5,9.2-8.7c1.2-1.3,1.9-1.9,2.5-1.9c0.4,0,0.6,0.1,0.6,0.5c0,0.5-0.3,1-0.9,1.6c-3.2,3.9-6.7,7.2-10.5,10
		C583.4,298,580.5,299.4,578.4,299.4z"/>
	<path fill="#231F20" d="M598.6,301.9c-0.8,0-1.4-0.1-1.9-0.3c-4.3-1.2-6.3-3.6-6.3-7.1c0-4.7,2.8-10,8.7-16
		c5.8-6.1,11-9.2,15.7-9.2c1.6,0,2.7,0.4,3.8,1.3c0.9,0.8,1.4,1.8,1.4,3c0,3.8-2.8,7.2-8.4,10.6s-10.1,5-13.6,5
		c-0.5,0-1-0.1-1.4-0.3c-1,1.8-1.4,3.6-1.4,5.7c0,3.5,1.7,5.2,4.9,5.2s7.5-2.2,12.8-6.6c4-3.2,7.5-6.7,10.4-10.4
		c0.6-0.8,1.2-1.2,1.6-1.2c0.4,0,0.6,0.3,0.6,0.6c0,0.4-0.3,0.9-0.8,1.7c-3.6,4.7-7.9,8.8-12.9,12.6
		C606.4,300.1,602.1,301.9,598.6,301.9z M617.4,273.3c0-0.8-0.9-1.2-2.6-1.2s-4.1,1.3-7.2,3.9c-4.1,3.5-7.4,7-9.7,10.9
		c0.4,0.1,0.8,0.3,1.3,0.3c2.5,0,5.8-1.3,10.1-4c4.1-2.7,6.9-5.6,7.9-8.8C617.4,273.9,617.4,273.5,617.4,273.3z"/>
	<path fill="#231F20" d="M635.1,269.3c1.8,0,2.7,0.6,2.7,2.1c0,0.4-0.1,0.8-0.3,1.2c-6,8.3-9.6,14.5-10.7,18.8
		c15.4-15.4,24.7-23.2,28.1-23.2c0.4-0.1,0.6-0.1,0.9-0.1c1.8,0,2.7,0.8,2.7,2.5c0,0.4-0.1,0.6-0.3,1s-1.4,2.1-4,5.3
		c-2.8,3.5-5.4,6.7-7.4,10c-2.1,3.2-3,5.8-3,7.9s0.5,3.2,1.4,3.2c2.8,0,8-4,15.1-12c0.1-0.1,0.4-0.4,0.6-0.9c1-1.2,1.6-1.8,1.8-1.8
		s0.3,0.4,0.3,1s-0.5,1.6-1.4,2.6c-8.2,9.3-14,14-17.5,14c-3.2,0-4.9-1.8-4.9-5.3s1.3-7.6,4-12.3l6.3-10.4c-4.5,3.4-8.5,7-12,10.9
		s-6.7,7.8-9.6,11.5s-4.5,5.6-5,5.6c-1,0-1.8-0.4-2.3-1.3c-0.5-0.8-0.9-1.8-0.9-3.1c0-1.2,0.4-2.8,1.3-4.9c0.9-2.1,1.9-4.5,3.2-7.4
		l-6,6.2c-1.4,1.4-2.3,2.2-2.7,2.2s-0.5-0.3-0.5-0.6s0.3-0.9,0.8-1.4c2.5-2.5,4.5-4.8,6.3-7c1.7-2.2,5.3-6.6,10.6-12.9
		C633.8,269.7,634.3,269.3,635.1,269.3z"/>
	<path fill="#231F20" d="M684.9,268.6l14.2-0.3c0.3,0.1,0.3,0.3,0.3,0.3c0,0.6-4.1,1.4-12.3,2.5c-8.3,1-12.7,1.7-13.3,1.9
		c-1.3,1.2-3.6,4.5-7,10.1s-5,9.7-5,12.3c0,2.5,1.7,3.6,5,3.6c1.6,0,3.6-0.5,6.2-1.4c2.6-0.9,4.5-1.9,6-2.7
		c3.8-2.3,7.6-5.7,11.9-10.2c0.9-0.9,1.6-1.4,1.9-1.4c0.3,0,0.3,0.3,0.3,0.6c0,0.4-0.5,1.2-1.6,2.3c-3.5,4.3-7.2,7.6-11.6,10.2
		c-5.2,3.2-10.1,4.8-14.8,4.8c-2.1,0-3.8-0.4-5-1.3c-1.3-0.9-1.9-2.7-1.9-5.4s1.2-6.5,3.6-11.1c2.3-4.8,4.1-8.3,5.4-10.6
		c-0.9,0.3-1.7,0.3-2.3,0.3c-1.9,0-2.8-0.8-2.8-2.3c0-1.2,0.8-1.9,2.3-2.3c0.3,0,0.5,0,0.9-0.1h5.7c1.2-1.6,2.6-3.2,4-5.3
		c1.8-2.3,3.1-3.6,3.8-3.6c0.6,0,1.6,0.3,2.5,0.8c1,0.5,1.4,1.2,1.4,1.9c0,0.8-1.6,2.8-4.8,6.5C679.9,268.6,682.2,268.6,684.9,268.6
		z"/>
	<path fill="#231F20" d="M706.8,299c-1.9,1.2-4.3,1.7-7.1,1.7s-4.9-0.9-6.5-2.7c-1.6-1.8-2.7-4.8-3.9-8.8c-1.2,1.2-2.1,1.8-2.5,1.8
		s-0.5-0.3-0.5-0.6c0-0.5,0.1-0.9,0.5-1.2c2.2-2.7,5.8-6.6,11.1-11.6l12.6-11.6c3.6-3.4,5.7-5,6.3-5c2.1,0,3.2,0.8,3.2,2.3
		c0,0.8-0.3,1.6-0.9,2.3c-0.6,0.8-1,1.3-1.4,1.8c-0.3,0.4-0.6,0.9-0.9,1.3c-1.2,2.1-2.5,6.3-3.6,12.7c-1.2,6.5-2.2,10.9-2.8,13.3
		c5.4-0.1,11.1-3.6,17-10.7c0.6-0.6,1.2-1,1.6-1s0.5,0.3,0.5,0.6s-0.3,1-0.9,1.7c-3.9,4.5-7.4,7.6-10.7,9.4c-1.9,1-4.5,1.8-7.8,2.5
		L706.8,299z M693.3,288c0,2.2,0.8,4.1,2.2,5.6c1.4,1.4,3.1,2.1,5,2.1c1.8,0,3.2-0.4,4.3-1c1.3-0.8,2.6-3.8,3.9-9.2
		c1.3-5.3,2.1-10.1,2.3-14.2l0.4-3.4c-3.6,2.7-7.5,6.2-11.6,10.5s-6.2,7.1-6.3,8.5C693.4,287.4,693.3,287.8,693.3,288z"/>
</g>
<g enable-background="new    ">
	<path fill="#231F20" d="M24.8,328.3h2.5v18.5h26v-18.5h2.5V369h-2.5v-20H27.4v20h-2.5L24.8,328.3L24.8,328.3z"/>
	<path fill="#231F20" d="M61.3,354.4c0-2.1,0.3-4,0.9-6c0.6-1.8,1.4-3.5,2.6-4.9c1.2-1.4,2.6-2.5,4.3-3.4c1.7-0.8,3.6-1.2,5.8-1.2
		c2.2,0,4.1,0.4,5.8,1.2c1.7,0.8,3.1,1.9,4.3,3.4c1.2,1.4,1.9,3,2.6,4.9c0.6,1.8,0.9,3.8,0.9,6s-0.3,4-0.9,6
		c-0.6,1.8-1.4,3.5-2.6,4.9s-2.6,2.5-4.3,3.4c-1.7,0.8-3.6,1.2-5.8,1.2c-2.2,0-4.1-0.4-5.8-1.2c-1.7-0.8-3.1-1.9-4.3-3.4
		c-1.2-1.4-2.1-3-2.6-4.9C61.5,358.4,61.3,356.5,61.3,354.4z M63.5,354.4c0,1.8,0.3,3.5,0.8,5c0.5,1.6,1.2,3.1,2.2,4.3
		c0.9,1.3,2.1,2.2,3.5,3s3,1.2,4.8,1.2s3.5-0.4,4.8-1.2c1.4-0.8,2.6-1.7,3.5-3s1.7-2.7,2.2-4.3c0.5-1.6,0.8-3.2,0.8-5
		s-0.3-3.5-0.8-5s-1.2-3.1-2.2-4.3c-0.9-1.3-2.1-2.2-3.5-3s-3-1.2-4.8-1.2s-3.5,0.4-4.8,1.2c-1.4,0.8-2.6,1.7-3.5,3
		s-1.7,2.7-2.2,4.3C63.7,350.9,63.5,352.6,63.5,354.4z"/>
	<path fill="#231F20" d="M93.4,339.7h2.2v6h0.1c0.3-0.9,0.6-1.8,1.2-2.6c0.5-0.8,1.3-1.6,2.1-2.2c0.8-0.6,1.7-1,2.7-1.4
		s2.1-0.5,3.1-0.5c1.4,0,2.6,0.1,3.6,0.5s1.9,0.8,2.6,1.4c0.8,0.6,1.3,1.3,1.7,1.9c0.4,0.8,0.6,1.6,0.9,2.2h0.1
		c0.9-2.1,2.1-3.6,3.5-4.7c1.4-1,3.4-1.6,5.8-1.6c1.3,0,2.6,0.3,3.6,0.6c1,0.4,2.1,1,2.8,1.8c0.8,0.8,1.4,1.8,1.9,3.1
		c0.5,1.3,0.6,2.7,0.6,4.4V369h-2.2v-20c0-1.8-0.3-3.4-0.9-4.4c-0.5-1-1.3-1.8-2.1-2.5c-0.8-0.5-1.6-0.9-2.3-1
		c-0.8-0.1-1.4-0.3-1.8-0.3c-1.3,0-2.6,0.3-3.6,0.6c-1.2,0.5-2.1,1.2-2.8,2.1c-0.8,0.9-1.4,2.1-1.9,3.4s-0.6,2.8-0.6,4.7V369h-1.9
		v-20c0-1.8-0.3-3.2-0.8-4.4c-0.5-1-1.2-1.9-1.9-2.5c-0.8-0.5-1.6-0.9-2.3-1c-0.8-0.1-1.4-0.3-1.8-0.3c-1,0-2.1,0.3-3.2,0.6
		c-1.2,0.4-2.1,1-3,1.9s-1.7,1.9-2.2,3.4c-0.5,1.4-0.9,3-0.9,4.8V369h-2.2L93.4,339.7L93.4,339.7z"/>
	<path fill="#231F20" d="M139.4,354.7v0.4c0,1.7,0.3,3.4,0.6,4.9c0.5,1.6,1.2,3,2.1,4.1c0.9,1.2,2.1,2.1,3.4,2.8c1.3,0.6,3,1,4.7,1
		c3,0,5.3-0.8,7-2.3c1.7-1.6,2.8-3.6,3.5-6.5h2.2c-0.6,3.4-2.1,6.1-4.1,7.9c-2.2,1.8-5,2.7-8.5,2.7c-2.2,0-4-0.4-5.7-1.2
		c-1.6-0.8-3-1.8-4-3.2c-1-1.3-1.9-3-2.5-4.8c-0.5-1.8-0.8-3.9-0.8-6s0.3-4,0.8-6c0.5-1.9,1.4-3.5,2.5-4.9c1.2-1.4,2.5-2.6,4.1-3.4
		s3.6-1.3,5.8-1.3c2.1,0,3.9,0.4,5.4,1.2c1.6,0.8,2.8,1.8,4,3.1c1,1.3,1.8,2.8,2.5,4.5c0.5,1.7,0.8,3.6,0.8,5.6c0,0.1,0,0.4,0,0.6
		s0,0.4,0,0.6L139.4,354.7L139.4,354.7z M161,352.7c-0.1-1.6-0.4-3.1-0.8-4.5c-0.5-1.4-1.2-2.7-2.1-3.8c-0.9-1-1.9-1.9-3.2-2.6
		c-1.3-0.6-2.7-1-4.4-1c-1.8,0-3.2,0.4-4.7,1c-1.3,0.6-2.5,1.6-3.4,2.6s-1.7,2.3-2.1,3.8c-0.5,1.4-0.8,3-0.9,4.4H161V352.7z"/>
	<path fill="#231F20" d="M206.9,362.7L206.9,362.7c-1.3,2.3-2.8,4-4.7,5.2c-1.8,1.2-4,1.7-6.7,1.7c-2.2,0-4.1-0.4-5.7-1.3
		c-1.6-0.8-2.8-1.9-3.9-3.4c-1-1.4-1.8-3-2.3-4.9c-0.5-1.8-0.8-3.8-0.8-5.8c0-2.2,0.3-4.1,0.8-6.1c0.5-1.9,1.3-3.5,2.5-4.9
		c1-1.4,2.5-2.5,4.1-3.2s3.5-1.2,5.8-1.2c1.2,0,2.3,0.1,3.5,0.5c1.2,0.3,2.2,0.8,3.1,1.4c0.9,0.6,1.8,1.4,2.6,2.3s1.3,1.9,1.7,3.1
		h0.1v-18h2.2V369H207L206.9,362.7L206.9,362.7z M195.9,367.9c1.8,0,3.5-0.4,4.8-1.2c1.3-0.8,2.5-1.8,3.4-3s1.6-2.7,1.9-4.3
		c0.4-1.6,0.6-3.2,0.6-4.9s-0.3-3.4-0.6-5c-0.4-1.6-1-3.1-1.9-4.3c-0.9-1.3-2.1-2.3-3.4-3.1c-1.4-0.8-3-1.2-4.9-1.2
		s-3.6,0.4-4.9,1.2c-1.4,0.8-2.5,1.7-3.4,3s-1.6,2.7-1.9,4.4c-0.4,1.7-0.6,3.4-0.6,5s0.3,3.4,0.6,5c0.4,1.6,1.2,3.1,1.9,4.3
		c0.9,1.3,2.1,2.2,3.4,3C192.4,367.5,194,367.9,195.9,367.9z"/>
	<path fill="#231F20" d="M216.7,354.7v0.4c0,1.7,0.3,3.4,0.6,4.9c0.5,1.6,1.2,3,2.1,4.1c0.9,1.2,2.1,2.1,3.4,2.8c1.3,0.6,3,1,4.7,1
		c3,0,5.3-0.8,7-2.3c1.7-1.6,2.8-3.6,3.5-6.5h2.2c-0.6,3.4-2.1,6.1-4.1,7.9c-2.2,1.8-5,2.7-8.5,2.7c-2.2,0-4-0.4-5.7-1.2
		c-1.6-0.8-3-1.8-4-3.2c-1-1.3-1.9-3-2.5-4.8s-0.8-3.9-0.8-6s0.3-4,0.8-6c0.5-1.9,1.4-3.5,2.5-4.9c1.2-1.4,2.5-2.6,4.1-3.4
		s3.6-1.3,5.8-1.3c2.1,0,3.9,0.4,5.4,1.2c1.6,0.8,2.8,1.8,4,3.1c1,1.3,1.8,2.8,2.5,4.5c0.5,1.7,0.8,3.6,0.8,5.6c0,0.1,0,0.4,0,0.6
		s0,0.4,0,0.6L216.7,354.7L216.7,354.7z M238.2,352.7c-0.1-1.6-0.4-3.1-0.8-4.5c-0.5-1.4-1.2-2.7-2.1-3.8c-0.9-1-1.9-1.9-3.2-2.6
		c-1.3-0.6-2.7-1-4.4-1c-1.8,0-3.2,0.4-4.7,1c-1.3,0.6-2.5,1.6-3.4,2.6s-1.7,2.3-2.1,3.8c-0.5,1.4-0.8,3-0.9,4.4h21.5L238.2,352.7
		L238.2,352.7z M232.4,327.4h2.8l-7.6,8h-2.1L232.4,327.4z"/>
	<path fill="#231F20" d="M267.6,348.7c-0.1-1.3-0.4-2.5-1-3.4c-0.5-1-1.3-1.8-2.2-2.5c-0.9-0.6-1.9-1.2-3.1-1.4
		c-1.2-0.4-2.5-0.5-3.8-0.5c-1.8,0-3.5,0.4-4.8,1.2c-1.4,0.8-2.6,1.7-3.5,3s-1.7,2.6-2.2,4.3c-0.5,1.6-0.8,3.2-0.8,4.9
		c0,1.9,0.3,3.8,0.6,5.4c0.5,1.7,1.2,3.1,2.1,4.4c0.9,1.3,2.1,2.2,3.5,2.8c1.4,0.6,3.1,1,4.9,1c1.4,0,2.6-0.3,3.8-0.6
		c1.2-0.5,2.2-1,3.1-1.9c0.9-0.8,1.7-1.8,2.2-2.8c0.5-1.2,0.9-2.3,1.2-3.6h2.2c-0.3,1.8-0.6,3.4-1.4,4.7c-0.8,1.4-1.7,2.5-2.7,3.5
		c-1.2,0.9-2.3,1.7-3.8,2.2c-1.4,0.5-2.8,0.8-4.4,0.8c-2.5,0-4.4-0.4-6.1-1.3c-1.7-0.9-3.1-1.9-4.1-3.5c-1-1.4-1.9-3.1-2.5-5
		c-0.5-1.9-0.8-3.9-0.8-6s0.3-4,0.9-5.8c0.6-1.8,1.4-3.4,2.6-4.8c1.2-1.4,2.6-2.5,4.3-3.2c1.7-0.8,3.6-1.2,5.8-1.2
		c1.6,0,3.1,0.3,4.5,0.6c1.4,0.4,2.6,1,3.8,1.8c1,0.8,1.9,1.8,2.6,3.1c0.6,1.3,1.2,2.7,1.3,4.3h-2.2V348.7z"/>
	<path fill="#231F20" d="M273.8,354.4c0-2.1,0.3-4,0.9-6c0.6-1.8,1.4-3.5,2.6-4.9s2.6-2.5,4.3-3.4c1.7-0.8,3.6-1.2,5.8-1.2
		c2.2,0,4.1,0.4,5.8,1.2c1.7,0.8,3.1,1.9,4.3,3.4c1.2,1.4,1.9,3,2.6,4.9c0.6,1.8,0.9,3.8,0.9,6s-0.3,4-0.9,6
		c-0.6,1.8-1.4,3.5-2.6,4.9s-2.6,2.5-4.3,3.4c-1.7,0.8-3.6,1.2-5.8,1.2c-2.2,0-4.1-0.4-5.8-1.2c-1.7-0.8-3.1-1.9-4.3-3.4
		c-1.2-1.4-2.1-3-2.6-4.9C274,358.4,273.8,356.5,273.8,354.4z M275.8,354.4c0,1.8,0.3,3.5,0.8,5c0.5,1.6,1.2,3.1,2.2,4.3
		c0.9,1.3,2.1,2.2,3.5,3s3,1.2,4.8,1.2s3.5-0.4,4.8-1.2c1.4-0.8,2.6-1.7,3.5-3s1.7-2.7,2.2-4.3c0.5-1.6,0.8-3.2,0.8-5
		s-0.3-3.5-0.8-5c-0.5-1.6-1.2-3.1-2.2-4.3c-0.9-1.3-2.1-2.2-3.5-3s-3-1.2-4.8-1.2s-3.5,0.4-4.8,1.2c-1.4,0.8-2.6,1.7-3.5,3
		s-1.7,2.7-2.2,4.3C276.1,350.9,275.8,352.6,275.8,354.4z"/>
	<path fill="#231F20" d="M307.9,346.3h0.1c0.3-0.9,0.8-1.8,1.4-2.7c0.6-0.8,1.6-1.6,2.6-2.2s2.1-1,3.4-1.4c1.3-0.3,2.5-0.5,3.9-0.4
		v2.2c-1.2-0.1-2.5,0-3.9,0.4s-2.8,1.2-4.1,2.5c-0.5,0.5-1,1.2-1.4,1.7s-0.8,1.2-1,1.8s-0.5,1.4-0.6,2.2s-0.3,1.8-0.3,2.8V369h-2.2
		v-29.4h2.2L307.9,346.3L307.9,346.3z"/>
	<path fill="#231F20" d="M356.8,363.2L356.8,363.2c-0.5,0.9-0.9,1.7-1.6,2.5c-0.6,0.8-1.4,1.4-2.3,2.1c-0.9,0.6-1.9,1-3.1,1.4
		s-2.5,0.5-3.9,0.5c-3.1,0-5.6-0.6-7.2-2.1c-1.7-1.4-2.6-3.5-2.6-6.2c0-1.7,0.4-3.1,1-4.1s1.6-1.9,2.6-2.6s2.2-1,3.5-1.3
		s2.5-0.5,3.6-0.5l3.4-0.3c1.6-0.1,2.8-0.3,3.6-0.5c0.9-0.3,1.6-0.6,2.1-1s0.8-1,0.9-1.7c0.1-0.6,0.1-1.6,0.1-2.6
		c0-0.8-0.1-1.6-0.5-2.2c-0.3-0.6-0.8-1.3-1.4-1.8s-1.4-0.9-2.5-1.3c-1-0.3-2.3-0.5-3.8-0.5c-2.6,0-4.8,0.6-6.3,1.9
		s-2.5,3.2-2.6,5.8h-2.2c0.1-3.2,1.2-5.7,3.1-7.2c1.9-1.6,4.7-2.5,8.2-2.5s6.1,0.6,7.8,2.1c1.6,1.4,2.5,3.2,2.5,5.4v17.1
		c0,0.4,0,0.8,0,1.3c0,0.4,0.1,0.8,0.3,1.2s0.3,0.6,0.5,0.8c0.3,0.3,0.6,0.3,1.2,0.3c0.4,0,0.9,0,1.6-0.1v1.8
		c-0.5,0.1-1.2,0.3-1.8,0.3c-0.9,0-1.6-0.1-2.1-0.4s-0.9-0.5-1.2-0.9c-0.3-0.4-0.4-0.8-0.5-1.3s-0.1-1-0.1-1.7v-1.6L356.8,363.2
		L356.8,363.2z M356.8,352.4c-0.5,0.6-1.3,1-2.5,1.3c-1,0.3-2.3,0.4-3.6,0.5l-3.6,0.4c-1,0.1-2.1,0.3-3.2,0.5c-1,0.3-2.1,0.5-2.8,1
		c-0.8,0.5-1.6,1.2-2.1,2.1s-0.8,1.9-0.8,3.4c0,2.2,0.6,3.8,2.1,4.8c1.4,1,3.2,1.6,5.7,1.6s4.4-0.4,5.8-1.3s2.6-1.9,3.4-3.1
		s1.3-2.3,1.4-3.4c0.3-1,0.3-1.8,0.3-2.2L356.8,352.4L356.8,352.4z"/>
	<path fill="#231F20" d="M365.9,339.7h2.2v6.2h0.1c0.4-1.2,0.9-2.1,1.7-3c0.6-0.9,1.6-1.6,2.5-2.2s1.9-1,3.1-1.4
		c1.2-0.3,2.2-0.5,3.4-0.5c1.7,0,3.1,0.3,4.4,0.6c1.2,0.4,2.2,1,3,1.7c0.8,0.6,1.4,1.4,1.8,2.3s0.8,1.7,0.9,2.6s0.3,1.7,0.4,2.6
		c0,0.8,0,1.6,0,2.2v18.1h-2.2v-18.5c0-0.8,0-1.7-0.1-2.7c-0.1-1.2-0.4-2.2-1-3.1c-0.5-1-1.4-1.8-2.5-2.6c-1.2-0.8-2.7-1-4.7-1
		c-1.7,0-3.1,0.3-4.4,0.9s-2.5,1.4-3.4,2.6c-0.9,1-1.6,2.3-2.1,3.9s-0.8,3.1-0.8,4.9V369H366L365.9,339.7L365.9,339.7z"/>
	<path fill="#231F20" d="M418.2,362.7L418.2,362.7c-1.3,2.3-2.8,4-4.7,5.2c-1.8,1.2-4,1.7-6.7,1.7c-2.2,0-4.1-0.4-5.7-1.3
		c-1.6-0.8-2.8-1.9-3.9-3.4c-1-1.4-1.8-3-2.3-4.9c-0.5-1.8-0.8-3.8-0.8-5.8c0-2.2,0.3-4.1,0.8-6.1c0.5-1.9,1.3-3.5,2.5-4.9
		c1-1.4,2.5-2.5,4.1-3.2c1.7-0.8,3.5-1.2,5.8-1.2c1.2,0,2.3,0.1,3.5,0.5c1.2,0.3,2.2,0.8,3.1,1.4c1,0.6,1.8,1.4,2.6,2.3
		c0.8,0.9,1.3,1.9,1.7,3.1h0.1v-18h2.2V369h-2.2v-6.3H418.2z M407.3,367.9c1.8,0,3.5-0.4,4.8-1.2c1.3-0.8,2.5-1.8,3.4-3
		s1.6-2.7,1.9-4.3c0.4-1.6,0.6-3.2,0.6-4.9s-0.3-3.4-0.6-5c-0.4-1.6-1-3.1-1.9-4.3c-0.9-1.3-2.1-2.3-3.4-3.1c-1.4-0.8-3-1.2-4.9-1.2
		s-3.6,0.4-4.9,1.2c-1.4,0.8-2.5,1.7-3.4,3s-1.6,2.7-1.9,4.4s-0.6,3.4-0.6,5s0.3,3.4,0.6,5c0.4,1.6,1.2,3.1,1.9,4.3
		c0.9,1.3,2.1,2.2,3.4,3C403.6,367.6,405.4,367.9,407.3,367.9z"/>
	<path fill="#231F20" d="M462.6,363.2L462.6,363.2c-0.5,0.9-0.9,1.7-1.6,2.5c-0.6,0.8-1.4,1.4-2.3,2.1c-0.9,0.6-1.9,1-3.1,1.4
		s-2.5,0.5-3.9,0.5c-3.1,0-5.6-0.6-7.2-2.1c-1.7-1.3-2.6-3.5-2.6-6.2c0-1.7,0.4-3.1,1-4.1s1.6-1.9,2.6-2.6s2.2-1,3.5-1.3
		s2.5-0.5,3.6-0.5l3.4-0.3c1.6-0.1,2.8-0.3,3.6-0.5c0.9-0.3,1.6-0.6,2.1-1s0.8-1,0.9-1.7c0.1-0.6,0.1-1.6,0.1-2.6
		c0-0.8-0.1-1.6-0.5-2.2c-0.3-0.6-0.8-1.3-1.4-1.8s-1.4-0.9-2.5-1.3c-1-0.3-2.3-0.5-3.8-0.5c-2.6,0-4.8,0.6-6.3,1.9
		s-2.5,3.2-2.6,5.8h-2.2c0.1-3.2,1.2-5.7,3.1-7.2c1.9-1.6,4.7-2.5,8.2-2.5s6.1,0.6,7.8,2.1c1.6,1.4,2.5,3.2,2.5,5.4v17.1
		c0,0.4,0,0.8,0,1.3s0.1,0.8,0.3,1.2s0.3,0.6,0.5,0.8c0.3,0.3,0.6,0.3,1.2,0.3c0.4,0,0.9,0,1.6-0.1v1.8c-0.5,0.1-1.2,0.3-1.8,0.3
		c-0.9,0-1.6-0.1-2.1-0.4s-0.9-0.5-1.2-0.9c-0.3-0.4-0.4-0.8-0.5-1.3s-0.1-1-0.1-1.7v-1.6L462.6,363.2L462.6,363.2z M462.6,352.4
		c-0.5,0.6-1.3,1-2.5,1.3c-1,0.3-2.3,0.4-3.6,0.5l-3.6,0.4c-1,0.1-2.1,0.3-3.2,0.5c-1,0.3-2.1,0.5-2.8,1c-0.8,0.5-1.6,1.2-2.1,2.1
		s-0.8,1.9-0.8,3.4c0,2.2,0.6,3.8,2.1,4.8c1.4,1,3.2,1.6,5.7,1.6s4.4-0.4,5.8-1.3s2.6-1.9,3.4-3.1s1.3-2.3,1.4-3.4
		c0.3-1,0.3-1.8,0.3-2.2L462.6,352.4L462.6,352.4z"/>
	<path fill="#231F20" d="M493.8,348.7c-0.1-1.3-0.4-2.5-1-3.4c-0.5-1-1.3-1.8-2.2-2.5c-0.9-0.6-1.9-1.2-3.1-1.4
		c-1.2-0.4-2.5-0.5-3.8-0.5c-1.8,0-3.5,0.4-4.8,1.2c-1.4,0.8-2.6,1.7-3.5,3s-1.7,2.6-2.2,4.3c-0.5,1.6-0.8,3.2-0.8,4.9
		c0,1.9,0.3,3.8,0.6,5.4c0.5,1.7,1.2,3.1,2.1,4.4s2.1,2.2,3.5,2.8c1.4,0.6,3.1,1,4.9,1c1.4,0,2.6-0.3,3.8-0.6c1.2-0.5,2.2-1,3.1-1.9
		s1.7-1.8,2.2-2.8c0.5-1.2,0.9-2.3,1.2-3.6h2.2c-0.3,1.8-0.6,3.4-1.4,4.7c-0.8,1.4-1.7,2.5-2.7,3.5c-1.2,0.9-2.3,1.7-3.8,2.2
		c-1.4,0.5-2.8,0.8-4.4,0.8c-2.5,0-4.4-0.4-6.1-1.3s-3.1-1.9-4.1-3.5c-1-1.4-1.9-3.1-2.5-5c-0.5-1.9-0.8-3.9-0.8-6s0.3-4,0.9-5.8
		s1.4-3.4,2.6-4.8s2.6-2.5,4.3-3.2c1.7-0.8,3.6-1.2,5.8-1.2c1.6,0,3.1,0.3,4.5,0.6c1.4,0.4,2.6,1,3.8,1.8c1,0.8,1.9,1.8,2.6,3.1
		c0.6,1.3,1.2,2.7,1.3,4.3h-2.2V348.7L493.8,348.7z"/>
	<path fill="#231F20" d="M523.4,348.7c-0.1-1.3-0.4-2.5-1-3.4c-0.5-1-1.3-1.8-2.2-2.5c-0.9-0.6-1.9-1.2-3.1-1.4
		c-1.2-0.4-2.5-0.5-3.8-0.5c-1.8,0-3.5,0.4-4.8,1.2c-1.4,0.8-2.6,1.7-3.5,3s-1.7,2.6-2.2,4.3c-0.5,1.6-0.8,3.2-0.8,4.9
		c0,1.9,0.3,3.8,0.6,5.4c0.5,1.7,1.2,3.1,2.1,4.4s2.1,2.2,3.5,2.8c1.4,0.6,3.1,1,4.9,1c1.4,0,2.6-0.3,3.8-0.6c1.2-0.5,2.2-1,3.1-1.9
		c0.9-0.9,1.7-1.8,2.2-2.8c0.5-1.2,0.9-2.3,1.2-3.6h2.2c-0.3,1.8-0.6,3.4-1.4,4.7c-0.8,1.4-1.7,2.5-2.7,3.5
		c-1.2,0.9-2.3,1.7-3.8,2.2c-1.4,0.5-2.8,0.8-4.4,0.8c-2.5,0-4.4-0.4-6.1-1.3s-3.1-1.9-4.1-3.5c-1-1.4-1.9-3.1-2.5-5
		c-0.5-1.9-0.8-3.9-0.8-6s0.3-4,0.9-5.8s1.4-3.4,2.6-4.8s2.6-2.5,4.3-3.2c1.7-0.8,3.6-1.2,5.8-1.2c1.6,0,3.1,0.3,4.5,0.6
		c1.4,0.4,2.6,1,3.8,1.8c1,0.8,1.9,1.8,2.6,3.1c0.6,1.3,1.2,2.7,1.3,4.3h-2.2L523.4,348.7L523.4,348.7z"/>
	<path fill="#231F20" d="M531.7,354.7v0.4c0,1.7,0.3,3.4,0.6,4.9c0.5,1.6,1.2,3,2.1,4.1c0.9,1.2,2.1,2.1,3.4,2.8c1.3,0.6,3,1,4.7,1
		c3,0,5.3-0.8,7-2.3c1.7-1.6,2.8-3.6,3.5-6.5h2.2c-0.6,3.4-2.1,6.1-4.1,7.9c-2.2,1.8-5,2.7-8.5,2.7c-2.2,0-4-0.4-5.7-1.2
		c-1.6-0.8-3-1.8-4-3.2c-1-1.3-1.9-3-2.5-4.8s-0.8-3.9-0.8-6s0.3-4,0.8-6c0.5-1.9,1.4-3.5,2.5-4.9c1.2-1.4,2.5-2.6,4.1-3.4
		s3.6-1.3,5.8-1.3c2.1,0,3.9,0.4,5.4,1.2c1.6,0.8,2.8,1.8,4,3.1c1,1.3,1.8,2.8,2.5,4.5c0.6,1.7,0.8,3.6,0.8,5.6c0,0.1,0,0.4,0,0.6
		s0,0.4,0,0.6L531.7,354.7L531.7,354.7z M553.2,352.7c-0.1-1.6-0.4-3.1-0.8-4.5c-0.5-1.4-1.2-2.7-2.1-3.8s-1.9-1.9-3.2-2.6
		c-1.3-0.6-2.7-1-4.4-1c-1.8,0-3.2,0.4-4.7,1c-1.3,0.6-2.5,1.6-3.4,2.6s-1.7,2.3-2.1,3.8c-0.5,1.4-0.8,3-0.9,4.4h21.5v0.1H553.2z"/>
	<path fill="#231F20" d="M561.4,359.3c0.1,1.4,0.4,2.6,0.9,3.6s1.2,1.9,2.1,2.7c0.9,0.8,1.8,1.3,3,1.7c1.2,0.4,2.3,0.5,3.8,0.5
		c0.9,0,1.9-0.1,3.1-0.3c1-0.1,2.1-0.5,3-0.9c0.9-0.5,1.7-1,2.3-1.9c0.6-0.8,0.9-1.8,0.9-3.1c0-1.7-0.5-2.8-1.4-3.8
		c-1-0.8-2.2-1.4-3.8-1.9s-3.1-0.8-4.8-1.2c-1.7-0.3-3.4-0.8-4.8-1.3c-1.6-0.5-2.7-1.4-3.8-2.5s-1.4-2.6-1.4-4.5
		c0-1.4,0.3-2.6,1-3.6c0.6-1,1.4-1.7,2.5-2.3c1-0.5,2.2-1,3.4-1.2c1.3-0.3,2.5-0.4,3.8-0.4c1.6,0,3,0.1,4.3,0.5s2.5,0.9,3.5,1.7
		c1,0.8,1.7,1.7,2.3,2.8c0.5,1.2,0.8,2.6,0.8,4.3h-2.2c0-1.3-0.3-2.5-0.6-3.4c-0.4-0.9-1-1.7-1.8-2.3c-0.8-0.6-1.7-1-2.7-1.3
		s-2.2-0.4-3.4-0.4c-1,0-1.9,0.1-3,0.3s-1.9,0.5-2.7,0.9s-1.4,1-1.9,1.8s-0.8,1.6-0.8,2.6c0,1.2,0.3,2.1,0.9,2.8
		c0.5,0.8,1.3,1.3,2.2,1.7s1.9,0.8,3.1,1c1.2,0.3,2.3,0.5,3.5,0.8c1.4,0.3,2.8,0.5,4.1,0.9s2.3,0.9,3.4,1.4c0.9,0.6,1.7,1.4,2.2,2.5
		s0.8,2.2,0.8,3.8c0,1.6-0.4,2.8-1,3.9c-0.8,1-1.7,1.8-2.7,2.5c-1.2,0.6-2.3,1-3.6,1.3s-2.7,0.4-4,0.4c-1.7,0-3.2-0.3-4.7-0.6
		s-2.7-1.2-3.8-1.9c-1-0.8-1.9-1.9-2.5-3.2c-0.6-1.3-0.9-2.8-0.9-4.5h1.6v0.1H561.4z"/>
	<path fill="#231F20" d="M588.9,359.3c0.1,1.4,0.4,2.6,0.9,3.6s1.2,1.9,2.1,2.7c0.9,0.8,1.8,1.3,3,1.7c1.2,0.4,2.3,0.5,3.8,0.5
		c0.9,0,1.9-0.1,3.1-0.3c1-0.1,2.1-0.5,3-0.9c0.9-0.5,1.7-1,2.3-1.9c0.6-0.8,0.9-1.8,0.9-3.1c0-1.7-0.5-2.8-1.4-3.8
		c-1-0.8-2.2-1.4-3.8-1.9s-3.1-0.8-4.8-1.2c-1.7-0.3-3.4-0.8-4.8-1.3c-1.6-0.5-2.7-1.4-3.8-2.5s-1.4-2.6-1.4-4.5
		c0-1.4,0.3-2.6,1-3.6c0.6-1,1.4-1.7,2.5-2.3c1-0.5,2.2-1,3.4-1.2c1.3-0.3,2.5-0.4,3.8-0.4c1.6,0,3,0.1,4.3,0.5s2.5,0.9,3.5,1.7
		c1,0.8,1.7,1.7,2.3,2.8c0.5,1.2,0.8,2.6,0.8,4.3h-2.2c0-1.3-0.3-2.5-0.6-3.4c-0.4-0.9-1-1.7-1.8-2.3c-0.8-0.6-1.7-1-2.7-1.3
		s-2.2-0.4-3.4-0.4c-1,0-1.9,0.1-3,0.3s-1.9,0.5-2.7,0.9s-1.4,1-1.9,1.8s-0.8,1.6-0.8,2.6c0,1.2,0.3,2.1,0.9,2.8
		c0.5,0.8,1.3,1.3,2.2,1.7s1.9,0.8,3.1,1c1.2,0.3,2.3,0.5,3.5,0.8c1.4,0.3,2.8,0.5,4.1,0.9s2.3,0.9,3.4,1.4c0.9,0.6,1.7,1.4,2.2,2.5
		s0.8,2.2,0.8,3.8c0,1.6-0.4,2.8-1,3.9c-0.8,1-1.7,1.8-2.7,2.5c-1.2,0.6-2.3,1-3.6,1.3s-2.7,0.4-4,0.4c-1.7,0-3.2-0.3-4.7-0.6
		c-1.4-0.4-2.7-1.2-3.8-1.9c-1-0.8-1.9-1.9-2.5-3.2c-0.6-1.3-0.9-2.8-0.9-4.5h1.6v0.1H588.9z"/>
	<path fill="#231F20" d="M614,354.4c0-2.1,0.3-4,0.9-6c0.6-1.8,1.4-3.5,2.6-4.9s2.6-2.5,4.3-3.4c1.7-0.8,3.6-1.2,5.8-1.2
		s4.1,0.4,5.8,1.2c1.7,0.8,3.1,1.9,4.3,3.4c1.2,1.4,1.9,3,2.6,4.9c0.6,1.8,0.9,3.8,0.9,6s-0.3,4-0.9,6c-0.6,1.8-1.4,3.5-2.6,4.9
		c-1.2,1.4-2.6,2.5-4.3,3.4c-1.7,0.8-3.6,1.2-5.8,1.2s-4.1-0.4-5.8-1.2c-1.7-0.8-3.1-1.9-4.3-3.4c-1.2-1.4-2.1-3-2.6-4.9
		C614.2,358.4,614,356.5,614,354.4z M616.2,354.4c0,1.8,0.3,3.5,0.8,5c0.5,1.6,1.2,3.1,2.2,4.3c0.9,1.3,2.1,2.2,3.5,3s3,1.2,4.8,1.2
		s3.5-0.4,4.8-1.2c1.3-0.8,2.6-1.7,3.5-3s1.7-2.7,2.2-4.3c0.5-1.6,0.8-3.2,0.8-5s-0.3-3.5-0.8-5s-1.2-3.1-2.2-4.3
		c-0.9-1.3-2.1-2.2-3.5-3s-3-1.2-4.8-1.2s-3.5,0.4-4.8,1.2c-1.4,0.8-2.6,1.7-3.5,3s-1.7,2.7-2.2,4.3
		C616.4,350.9,616.2,352.6,616.2,354.4z"/>
	<path fill="#231F20" d="M648.2,346.3L648.2,346.3c0.4-0.9,0.9-1.8,1.5-2.7c0.6-0.9,1.6-1.6,2.6-2.2s2.1-1,3.4-1.4
		c1.3-0.3,2.5-0.5,3.9-0.4v2.2c-1.2-0.1-2.5,0-3.9,0.4s-2.8,1.2-4.1,2.5c-0.5,0.5-1,1.2-1.4,1.7s-0.8,1.2-1,1.8
		c-0.3,0.6-0.5,1.4-0.6,2.2c-0.1,0.8-0.3,1.8-0.3,2.8V369H646v-29.4h2.2V346.3z"/>
	<path fill="#231F20" d="M662.4,334.2v-5.8h2.2v5.8H662.4z M662.4,369v-29.4h2.2V369H662.4z"/>
	<path fill="#231F20" d="M672.2,354.7v0.4c0,1.7,0.3,3.4,0.6,4.9c0.5,1.6,1.2,3,2.1,4.1c0.9,1.2,2.1,2.1,3.4,2.8c1.3,0.6,3,1,4.7,1
		c3,0,5.3-0.8,7-2.3c1.7-1.6,2.8-3.6,3.5-6.5h2.2c-0.6,3.4-2.1,6.1-4.1,7.9c-2.2,1.8-5,2.7-8.5,2.7c-2.2,0-4-0.4-5.7-1.2
		c-1.6-0.8-3-1.8-4-3.2c-1-1.3-1.9-3-2.5-4.8c-0.5-1.8-0.8-3.9-0.8-6s0.3-4,0.8-6c0.5-1.9,1.4-3.5,2.5-4.9c1.2-1.4,2.5-2.6,4.1-3.4
		c1.7-0.8,3.6-1.3,5.8-1.3c2.1,0,3.9,0.4,5.4,1.2c1.6,0.8,2.8,1.8,4,3.1c1,1.3,1.8,2.8,2.5,4.5c0.6,1.7,0.8,3.6,0.8,5.6
		c0,0.1,0,0.4,0,0.6s0,0.4,0,0.6L672.2,354.7L672.2,354.7z M693.8,352.7c-0.1-1.6-0.4-3.1-0.8-4.5c-0.5-1.4-1.2-2.7-2.1-3.8
		c-0.9-1-1.9-1.9-3.2-2.6c-1.3-0.6-2.7-1-4.4-1c-1.8,0-3.2,0.4-4.7,1c-1.3,0.6-2.5,1.6-3.4,2.6s-1.7,2.3-2.1,3.8
		c-0.5,1.4-0.8,3-0.9,4.4h21.5L693.8,352.7L693.8,352.7z"/>
	<path fill="#231F20" d="M702,359.3c0.1,1.4,0.4,2.6,0.9,3.6s1.2,1.9,2.1,2.7c0.9,0.8,1.8,1.3,3,1.7c1.2,0.4,2.3,0.5,3.8,0.5
		c0.9,0,1.9-0.1,3.1-0.3c1-0.1,2.1-0.5,3-0.9c0.9-0.5,1.7-1,2.3-1.9c0.6-0.8,0.9-1.8,0.9-3.1c0-1.7-0.5-2.8-1.4-3.8
		c-1-0.8-2.2-1.4-3.8-1.9s-3.1-0.8-4.8-1.2c-1.7-0.3-3.4-0.8-4.8-1.3c-1.6-0.5-2.7-1.4-3.8-2.5c-1-1-1.4-2.6-1.4-4.5
		c0-1.4,0.3-2.6,1-3.6c0.6-1,1.4-1.7,2.5-2.3c1-0.5,2.2-1,3.4-1.2c1.3-0.3,2.5-0.4,3.8-0.4c1.6,0,3,0.1,4.3,0.5s2.5,0.9,3.5,1.7
		c1,0.8,1.7,1.7,2.3,2.8c0.5,1.2,0.8,2.6,0.8,4.3h-2.2c0-1.3-0.3-2.5-0.6-3.4c-0.4-0.9-1-1.7-1.8-2.3c-0.8-0.6-1.7-1-2.7-1.3
		s-2.2-0.4-3.4-0.4c-1,0-1.9,0.1-3,0.3s-1.9,0.5-2.7,0.9s-1.4,1-1.9,1.8s-0.8,1.6-0.8,2.6c0,1.2,0.3,2.1,0.9,2.8
		c0.5,0.8,1.3,1.3,2.2,1.7c0.9,0.4,1.9,0.8,3.1,1c1.2,0.3,2.3,0.5,3.5,0.8c1.4,0.3,2.8,0.5,4.1,0.9s2.3,0.9,3.4,1.4
		c0.9,0.6,1.7,1.4,2.2,2.5s0.8,2.2,0.8,3.8c0,1.6-0.4,2.8-1,3.9c-0.8,1-1.7,1.8-2.7,2.5c-1.2,0.6-2.3,1-3.6,1.3s-2.7,0.4-4,0.4
		c-1.7,0-3.2-0.3-4.7-0.6c-1.4-0.4-2.7-1.2-3.8-1.9c-1-0.8-1.9-1.9-2.5-3.2c-0.6-1.3-0.9-2.8-0.9-4.5h1.6L702,359.3L702,359.3z"/>
</g>
<g>
	<path fill="#231F20" d="M710.9,393.5L707,394c12.8-1.4,26-4.3,38-9.6c-6.5,2.8-13.8,4.7-21.2,6.2c-3.8,0.5-7.4,1.4-11.3,1.7
		c-1.9,0.3-3.8,0.4-5.6,0.6c-1.8,0.3-3.8,0.3-5.6,0.4c-14.9,1.2-29.4,1.7-40.6,3.1c-2.5-1.2-31.1-1.7-31.6-1.4
		c-6,0.3-11.9,0.4-18,0.4c4.1,0,8.3-0.1,12.4-0.1c-4.1,0-8.3,0.1-12.4,0.1c-38.4,0.5-80.2-1.3-123.3-3.6c-23.9-1.2-89-4.4-113.6-6
		c-3.6-0.3-7.1-0.4-10.7-0.6c6,0.4,6,0.4,11.9,0.8c-15-0.4-28.6-0.6-41.8-1c2.3,0.3,2.7,0.5,8.2,1l-6.7-0.4
		c-6.1,0.3-20.2-0.4-26.9-0.4c1.4-0.3-3.8-0.5-8.4-0.8l1.8,0.3c-17.5-0.9-37.8-1.6-53.4-2.2c-2.2-0.1-3.8-0.3-4.8-0.4l-15-0.4
		c1.2-0.4-12.4-0.8-5.3-0.8c-11.3,0-22.6-0.6-33.3-0.4c-19.2-0.5-38.8-0.9-58.8-0.8c-19.9,0.1-40,0.4-59.8,1.9l1,0.1
		c-6.9,0.5-13.5,1.3-20.2,2.3c-3.4,0.5-6.9,1.2-10.6,1.9c-3.6,0.9-7.5,1.7-11.4,3.8c-0.6,0.4-1.3,0.9-1.9,1.6
		c-0.6,0.6-1,1.4-1.4,2.1c-0.9,1.4-1.6,3-2.1,4.7c-0.9,3.2-0.6,7,0.6,9.8c0.1,0.4,0.3,0.8,0.5,1l0.6,0.9c0.4,0.6,0.8,1.3,1.3,1.8
		c1,1,1.8,2.1,2.8,2.7c0.9,0.6,1.8,1.3,2.6,1.9c0.8,0.4,1.6,0.8,2.1,1c5.8,3.5,10.4,5,14.9,6.5c4.5,1.4,9.2,2.5,15.8,3.8
		c-3.4-1,12.9,1.9,6.5,0.5c-4.3-1.2-6.6-1.6-8.8-2.1c-2.1-0.5-4-1-7.6-2.1l0.1,0.1c-4.1-1.3-8.3-2.7-12.2-4.4
		c-1.9-0.8-3.8-1.9-5.7-2.8c-1.7-1.2-3.6-2.2-4.9-3.6c-3.1-2.6-5.3-5.7-5.7-9.1c-0.6-3.2,1-7,3.1-9.7c0.5-0.6,2.5-1.7,4.3-2.3
		c1.9-0.6,3.9-1.2,6.1-1.7c4.1-0.9,8.5-1.4,12.9-1.9c8.8-0.9,17.7-1.4,26.7-1.8c23.9-1.3,50.1-0.9,75.2-0.5c27,0.3,56.2,1,79.3,1.6
		c5.6,0.1,9.4,0.5,14.2,0.9c21.4,0.6,48.4,1.9,72.5,2.8c-0.4,0-0.9,0-1.2-0.1c12.8,0.5,22.3,1.3,34.8,1.8c0-0.1,1.8,0,2.8,0
		c2.2,0.6,73.5,2.3,77.8,2.7c1.3,0,2.6,0.1,4,0.1c26.3,1.4,53.4,3.5,76.1,4.3c4.9-0.1,10.5-0.1,14.6-0.3c4,0.4,4.8,0,9.6,0.1
		c12.2,1.4,19.4,1.2,13.1,0.6c10.1,0.3,20.2,0.5,29.1,0.6c4.1,0,8.3,0,12.4,0c3.5,0,5.6,0.1,7.4,0.4c9.1,0,6.5,0.3,15.9,0.4
		c2.3,0.4,23.9-0.4,26.7-0.4h-1.6c11,0,18.4,0.6,29.2,0.4c7.5-0.1,15.1-0.4,22.9-0.8c3.9-0.3,7.8-0.6,11.8-1
		c3.9-0.6,7.8-0.9,11.6-1.7c3.9-0.8,7.8-1.4,11.5-2.6c3.8-0.9,7.5-2.3,11.1-3.5c7.1-2.8,14-6.3,19.8-10.7c0.1-0.4-5.3,3.8-5.8,3.5
		c7.2-4.4,14-10.2,19-17.5c0.6-0.9,1.3-1.8,1.8-2.7l1.6-2.8c1.2-1.9,1.8-4,2.7-6c1.4-4.1,2.7-8.4,3.2-12.7c0.6-3.1,1-7,1.2-8.4
		c0.1-2.8,0-3.6,0-4.3c-0.1-0.6-0.1-1-0.3-3.1l0.3-0.5c-0.8-5.8-0.6-8.7-1.9-14.1c-0.1-0.3-0.6-2.2-1.2-4.1c0.4-0.3-1.8-5.8-1.4-5.7
		l0,0c-0.4-1.2-0.6-1.9-1.2-3.4c-0.1-0.3-0.4-0.8-0.6-1.6c-0.1-0.4-0.4-0.8-0.6-1.3c-0.1-0.4-0.4-0.9-0.6-1
		c-0.1-0.3-0.3-0.5-0.5-0.8c-1.3-2.1-3.1-4.5-5-6.7c-3.9-4.7-8.8-8.4-9.8-8.9l-0.9-0.8c-2.8-1.8-4.1-2.3-2.6-1.3c0,0-0.8-0.6-1.8-1
		c-0.9-0.5-1.8-0.9-1.8-0.9l0.4,0.1c0,0-0.9-0.5-1.9-0.8c-1-0.4-1.9-0.8-1.9-0.8c-0.8-0.3-1.6-0.6-0.4-0.5c-1.2-0.3-2.5-0.5-3.8-0.6
		c-1.3,0-2.6-0.3-3.9-0.1c3.5,0,7.4,0.8,10.7,2.5c3.4,1.7,6.3,3.8,8.7,6c-2.1-1.7-6.1-4.5-8.9-5.6c-0.8-0.4-1.8-0.8-3.1-1.3
		c-1.3-0.3-2.7-0.9-4.3-0.9c-3.1-0.5-6.7,0.1-9.7,1c-0.6,0.3-1,0.6-1.7,1c-0.4,0.3-0.6,0.4-1.2,0.6c-0.4,0.3-0.9,0.6-1.6,1
		c-0.6,0.4-1.4,0.8-2.1,1.4c-0.6,0.6-1.4,1.4-2.3,2.2c0.9-1,1.9-2.1,3-3c1.2-0.8,2.3-1.8,3.6-2.3c-0.4-0.1-1.8,0.9-3.5,2.1
		c-1.6,1.2-3.1,2.8-3.9,3.5c-0.3,0.4-1.2,1.3-2.3,2.5c-1.2,1.2-2.6,2.3-3.6,3.2c0.8-1-1.9,1.3-3.5,2.1c-1.7,1-2.6,1.8-1.9,1.4
		c-0.1,0.3,1.6-0.6,2.8-1.6c1.4-0.9,2.6-1.7,1.6-0.8c-0.4,0.1-1.3,0.8-2.3,1.6c-1.2,0.6-2.3,1.6-3.2,2.1c0.1,0.1,1.3-0.6,0.3,0.3
		c-1.9,1.2-4,2.5-5.3,2.7c0.4-0.3,1.2-0.5,1.8-0.9c-1.3,0.6,2.2-1.3,5.3-3.8c1.6-1.2,3-2.5,3.9-3.2c0.8-0.8,1.2-1.2,0.4-0.5
		c0.4-0.3-2.6,2.6-6,4.9c-1.7,1.2-3.4,2.2-4.7,2.8c-0.5,0.3-1,0.5-1.3,0.6s-0.4,0.1-0.1,0.1c1.6-0.5-0.9,0.8,0.6,0.1
		c0,0,0.4-0.3,0.9-0.5c0.4-0.3,0.9-0.5,0.9-0.5c2.3-1,3.4-1.4,2.7-0.8c-1.9,1,0.6-0.6,3.1-2.7c2.5-1.9,4.8-4.1,3.4-3l1.2-0.9
		c-1,1.2-4.4,3.6-6,4.3c0.1,0.1-1.7,1.3-3.1,2.2l-0.5,0.3c-1.6,0.9-3.8,1.8-2.7,1.6c4.7-2.2,3.4-1.2,1.9,0.1c-1.4,1.2-3,2.5,1.8,0.3
		c-4.1,1.6,1.3-0.9,5-3.5c0.5-0.1,2.3-1.2,5-3.1c2.2-1.9,1.2-1.3,1.6-1.7c1.3-0.9,3.5-3.2,3.4-2.7c0.6-0.9,1.4-1.6,2.2-2.2
		s1.4-1.4,2.6-2.2c1.9-1.6-0.3,0,1.2-1.2c1.6-1,3.6-1.9,5.8-2.5c2.1-0.5,4.3-0.5,5.7-0.4c1.2,0.1,4.4,1.4,1.9,1.2
		c-5.4-0.6,2.2-0.4-3.6-0.8c1.3,0.4,0,0.1-1.7,0.4c-0.4,0-0.9,0.1-1.3,0.1c-0.4,0.1-0.9,0.3-1.3,0.4c-0.8,0.3-1.4,0.5-1.6,0.6
		c1.8-0.4,5.3-1.3,8.3-0.8L746,277c0.6,0,1.6,0.1,2.5,0.4c0.5,0.1,0.9,0.1,1.4,0.3c0.5,0.1,0.9,0.4,1.4,0.5s0.9,0.4,1.4,0.5
		c0.4,0.3,0.9,0.5,1.3,0.6c0.9,0.5,1.7,0.9,2.2,1.3c-0.6-0.3,0.4,0.5-1.4-0.4c0,0,0.3,0.1,0.5,0.3s0.6,0.4,1,0.6
		c0.8,0.5,1.6,1,1.6,1c0.4,0.3,0.8,0.5,0-0.1c1.4,0.9,2.8,2.1,3.8,3.1c0.1,0.1,3.9,3.4,7,7.2c3.1,3.8,5.3,7.9,5,7.8
		c1,2.6,1,3.2,1.9,5.7c0,0-0.4-1.4-1.3-3.6c-0.4-1-0.9-2.5-1.6-3.6c-0.8-1.2-1.6-2.6-2.5-3.8c-3.5-4.9-7.6-8.7-6.3-7.5
		c0.6,0.9,6.3,6.2,9.6,13.1c3.1,7,4.8,14.4,4.8,15.3c0.5,1.9,0.9,4.4,0.9,3.9c0.5,3.4-0.5-0.9-0.3,1.4c0,0,0-0.3,0.1,0.5l0.1,2.3
		c1,5.2,0.8,12.9,0.3,18.4c0-0.8,0-1.7-0.1-2.7c0-1.2,0-2.5-0.1-4.1l0.1-0.6c0-0.5-0.1-3.4-0.3-3.4c0,3.4-0.1,6.2-0.3,9.7
		c-0.1,0.6-0.3,1.3-0.4,1.8c0,0,0,0,0.1,0c-0.3,1.2-0.3,1-0.3,0.5c0,0,0-0.1,0-0.3c-0.4,1-0.8,4.1-1.8,7.8c-0.5,1.8-1,3.8-1.8,5.4
		c-0.6,1.8-1.6,3.4-2.3,4.7c-0.8,1.6,0,0.3-1,2.2c-0.9,1.3-1.7,2.5-2.5,3.5c-0.9,1-1.7,2.1-2.6,3c-0.8,1-1.8,1.9-2.8,2.8
		s-2.1,2.1-3.4,3c-1.4,1.4-1.6,1.7,0.5,0.3c0,0-0.9,0.8-1.9,1.6c-0.5,0.4-0.9,0.8-1.3,1c-0.4,0.3-0.6,0.4-0.6,0.4
		c3.4-3-7.9,4.5-4.1,1.4c-1.2,0.8-3.9,1.9-6.1,3.4c-0.1,0.3-0.4,0.6-3.6,2.1c-4.4,1.8-3.4,1.3-7.2,2.5c-0.9,0.1,0.4-0.4,0.1-0.5
		c-5.7,2.3-5.2,1.2-10.7,2.7c-3.5,0.9-10.5,2.2-10.6,2.6C710.4,394.2,710.4,393.9,710.9,393.5z"/>
</g>
</svg>
