<?xml version="1.0" encoding="utf-8"?>
<!-- Generator: Adobe Illustrator 17.1.0, SVG Export Plug-In . SVG Version: 6.00 Build 0)  -->
<!DOCTYPE svg PUBLIC "-//W3C//DTD SVG 1.1//EN" "http://www.w3.org/Graphics/SVG/1.1/DTD/svg11.dtd">
<svg version="1.1" id="Layer_1" xmlns="http://www.w3.org/2000/svg" xmlns:xlink="http://www.w3.org/1999/xlink" x="0px" y="0px"
	 viewBox="0 0 300 300" style="enable-background:new 0 0 300 300;" xml:space="preserve">
<style type="text/css">
	.st0{fill:#603813;}
	.st1{fill:#8C6239;}
	.st2{fill:#C7B299;}
	.st3{fill:none;stroke:#000000;stroke-width:1.8027;stroke-linecap:round;stroke-linejoin:round;stroke-miterlimit:10;}
</style>
<g>
	<g id="XMLID_2_">
		<g>
			<path d="M249.3,120.9c-4.1,4.3-8.3,8-14.3,8.9c-1,0.2-2.1,0.5-3.1,0.4c-6.1-0.8-6.2-0.8-10.1,2.4c1.4-2,2.5-3.7,3.6-5.3
				c0.2-0.1,0.4-0.2,0.6-0.2c9.8,5,16.1-0.2,22-6.2c-12.4-24.7-24.9-49.6-37.3-74.6c-3.9-7.8-8.1-15.5-11.6-23.5
				c-2.3-5.2-6.2-7-11.4-7.6c-14.4-1.7-28.8-2.6-43.3-2.2c-12.6,0.3-25,2.2-37.4,3.6c-3.1,0.4-4.2,3-5.4,5.4
				C85.4,54.4,69,86.9,52.6,119.3c-0.2,0.5-0.5,0.9-1,1.7c6.6,4,14.1,5.5,21.7,6.3c2.8,0.3,6-3.4,8.2,1.1c-4.5-2.7-9.6,0.4-14.3-1
				c-5-1.5-10.2-2.6-14.9-5c-0.5-0.3-0.9-0.7-1.7-1.3c6-12,12-23.8,18-35.7C79.5,63.9,90.5,42.5,101.1,21c2.1-4.2,4.6-6.1,9.4-6.8
				c27.2-4,54.4-4.7,81.6,0.3c2.2,0.4,3.9,0.9,5,3.1C214.4,52.1,231.9,86.4,249.3,120.9z"/>
			<path class="st0" d="M84.2,124.3c-1.4,0.2-1.3,2.2-2.9,2.2c-1.7-1.6-3.6-1.9-6.4-0.6c-3.3,1.5-7-0.3-10.5-1.1
				c-4-0.8-7.8-2-11.5-4.3c8.3-16.4,16.5-32.7,24.8-49.1c7.8-15.4,15.7-30.7,23.2-46.2c2.2-4.5,4.8-6.6,9.9-7.4
				c26.8-3.7,53.5-4.5,80.3-0.4c2.3,0.4,4.6,0.6,5.9,3.3c16.7,33.2,33.5,66.4,50.3,99.6c-3.4,4.5-7.4,6.9-12.3,7.8
				c-1.2,0.2-2.3,0.8-3.5,0.1c-1.9-1.1-3.7-1.6-5.3-1.2c-0.1-0.1-0.2-0.1-0.3-0.2c-0.1,0.1-0.2,0.3-0.3,0.4
				c-1.3,0.5-2.4,1.8-3.3,3.7c-1.7-1.3-3-2.3-4.5-3.5c-3.5,3.4-7.2,4-10.7,0.1c-0.2-0.2-0.7-0.5-0.8-0.4c-0.4,0.4-0.8,0.8-1.2,1.1
				c0,0-0.1,0-0.1,0c-0.1,0.1-0.1,0.1-0.2,0.2c-3.4,1.9-8.1,0-11.3,3.1c-1.9-0.1-2.8-2.3-4.8-3c-0.2,0-0.5,0.1-0.7,0.2
				c0,0-0.1-0.1-0.1-0.1c-0.1,0.1-0.1,0.1-0.1,0.2c-1.2,0.6-2,2.1-3.5,2.5c-1.3-0.2-1.2-1.9-2.5-2.3c-1.5-0.1-1.6,2.1-3.4,2
				c-0.9-1-1.9-2.1-2.9-3.2c-1.9-0.1-1.8,2.3-3.6,2.6c-1.5-0.8-3.2-1.8-4.9-2.7c-3.5,2.6-7.5,2.3-9.9-0.6c-0.2,0-0.3,0-0.4,0
				c-1.1,0.1-1.1,1.9-2.7,2.2c-0.3-0.7-0.8-1.6-1.4-2.8c-1.2,1.4-1.8,2.2-2.6,3.2c-0.9-0.8-1.7-1.6-2.9-2.7
				c-0.9,1.4-1.7,2.5-2.5,3.7c-2.2-1.6-4-3-5.8-4.3c-2.3,0.7-3.2,3.1-5.4,4.2c-1.5-1-2.9-2-4.3-2.9c-1.6,0-1.6,1.8-3.1,2.2
				c-1.1-1.2-2.3-2.4-3.6-3.8c-1.3,1.5-2.5,2.9-3.7,4.3c-2.5-0.3-3.8-2.8-6.2-3.7c-0.2,0.2-0.5,0.4-0.7,0.6
				c-0.1-0.1-0.2-0.1-0.3-0.2c-0.2,0.3-0.4,0.7-0.6,1c-0.9,0.8-1.9,1.6-2.9,2.4c-2.2-0.6-3-2.9-4.9-3.9c-1.7-0.1-2,2.1-3.6,2.3
				c-1.7,0.1-2.2-1.8-3.8-2.3c-1.3-0.1-1.3,1.8-2.9,2.1c-0.7-5.1-7.7,1.5-8-4.5C84.6,124.3,84.3,124.3,84.2,124.3z"/>
			<path d="M234.9,128.2c4.9-0.9,8.9-3.3,12.3-7.8c-16.8-33.2-33.6-66.3-50.3-99.6c-1.3-2.7-3.5-2.9-5.9-3.3
				c-26.8-4.1-53.5-3.3-80.3,0.4c-5.2,0.7-7.8,2.9-9.9,7.4c-7.5,15.5-15.5,30.8-23.2,46.2c-8.2,16.3-16.5,32.6-24.8,49.1
				c3.7,2.2,7.6,3.4,11.5,4.3c3.5,0.7,7.2,2.6,10.5,1.1c2.8-1.3,4.7-1,6.4,0.6c1.6-0.1,1.5-2,2.9-2.2c0.2,1.8-1.1,2.8-2.4,4.2
				c-0.1,0-0.1-0.1-0.2-0.1c-2.2-4.5-5.4-0.7-8.2-1.1c-7.6-0.8-15.1-2.3-21.7-6.3c0.4-0.7,0.7-1.2,1-1.7C69,86.9,85.4,54.4,101.7,22
				c1.2-2.4,2.4-5,5.4-5.4c12.4-1.5,24.8-3.4,37.4-3.6c14.5-0.4,28.9,0.5,43.3,2.2c5.2,0.6,9.1,2.4,11.4,7.6
				c3.5,8,7.7,15.7,11.6,23.5c12.5,24.9,25,49.9,37.3,74.6c-6,6.1-12.2,11.2-22,6.2c1.5-0.4,3.3,0.1,5.3,1.2
				C232.5,128.9,233.7,128.4,234.9,128.2z"/>
			<path d="M222.2,131c0.9-2,2-3.2,3.3-3.7c-1.1,1.6-2.2,3.3-3.6,5.3c-0.1,0.1-0.2,0.2-0.4,0.3c-0.6-0.5-1.3-1.1-2-1.6
				c-0.6-0.5-1.1-0.9-2-1.7c0,0,0,0,0,0c-0.2-0.2-0.4-0.3-0.6-0.5c-1.3,0.8-3.2,1.9-5,2.9c-2.6-1.1-4-3.7-6.9-3.7
				c0.4-0.3,0.8-0.6,1.2-1.1c0,0,0.6,0.2,0.8,0.4c3.6,3.9,7.2,3.3,10.7-0.1C219.2,128.8,220.5,129.7,222.2,131z"/>
			<path d="M216.9,129.1c0.2,0.2,0.4,0.3,0.6,0.5c-3.5,3-7.2,4-10.7,0c-0.2-0.2-0.8-0.3-0.8-0.3c-1.2,1.8-3,2.2-4.9,2.3
				c1.2-1,2.4-2.1,3.5-3.1c0.1-0.1,0.2-0.1,0.3-0.2c2.9,0,4.3,2.7,6.9,3.7C213.7,131,215.6,129.9,216.9,129.1z"/>
			<path d="M204.7,128.5c-1.2,1-2.3,2-3.5,3.1c-0.2,0-0.4,0-0.6,0c-3-3.4-5.3-0.3-7.4,1.3c-1.8-1.3-3.3-2.5-5.3-4
				c0.2-0.1,0.4-0.2,0.7-0.2c2,0.6,2.9,2.8,4.8,3C196.5,128.5,201.3,130.4,204.7,128.5z"/>
			<path d="M200.6,131.6c-2.5,0-5.1-0.2-6.8,2.2c-2.3-0.1-3.2-2.6-5.5-3.1c-1.2,0.9-2.4,1.8-3.9,3l-0.1-0.1c1.1-1.5,2.2-3.1,3.4-4.6
				c0.1-0.1,0.2-0.1,0.2-0.1c2,1.5,3.5,2.7,5.3,4C195.3,131.3,197.6,128.2,200.6,131.6z"/>
			<path d="M190.5,269.9c2,7.1,0.9,10.3-4.7,13.1c-7.2,3.6-15.1,4.7-23.1,5.4c-14,1.2-27.8,0.8-41.4-3.1c-1.9-0.5-3.7-1.2-5.5-2.1
				c-5.8-2.9-7-6-5.1-13.2c3.1,5,8,6.7,13,8c18.4,4.7,36.8,4.7,55.1-0.4C183.2,276.4,187.6,274.7,190.5,269.9z M185.7,281.2
				c2.4-1.3,4.7-2.9,3.7-5.8c-26,10.4-51.7,10.5-77.7-0.1c-0.8,2.2,0.7,3.8,2.6,5.1c2.6,1.8,5.6,2.8,8.7,3.6
				c14.4,3.8,29.1,3.7,43.8,2.2C173.3,285.7,179.8,284.4,185.7,281.2z"/>
			<path class="st1" d="M189.4,275.5c1,2.9-1.3,4.4-3.7,5.8c-5.9,3.2-12.4,4.5-19,5.1c-14.7,1.5-29.3,1.6-43.8-2.2
				c-3-0.8-6-1.9-8.7-3.6c-1.9-1.3-3.4-2.9-2.6-5.1C137.7,286,163.4,285.9,189.4,275.5z"/>
			<path d="M168.4,222.4c1.4,1,0.7,3.3-0.6,4.3c-7.2,5.3-5.2,12.8-5.1,19.8c0,3.3,2.6,4.7,5.7,5.3c4.9,0.9,9.7,1.9,14.2,4.1
				c3.8,1.8,5.4,4.6,5.3,9c-0.1,4.1-2.2,6.4-5.5,8c-6.2,3-12.8,4.1-19.6,4.7c-13.7,1.2-27.3,1-40.6-3.2c-7.2-2.3-8.9-4.8-8.8-11
				c0-3.6,1.8-5.5,4.6-7.1c4.6-2.5,9.6-3.4,14.6-4.4c4.1-0.8,6.1-2.9,6.3-7.3c0.4-7.8-0.1-15-8.1-20.1c4.9-3,6.7-6.3,7.1-10.7
				c-3-1.9-6.4-3.4-9.2-5.9c-8.4-7.3-10.1-17.6-5.6-27.7c1.8-4,4.6-6.4,7.9-8.6c9.8-6.6,11.2-17.5,3.6-26.6c-1-1.2-2.5-2.2-2.5-4.1
				c0.1-0.1,0.3-0.3,0.5-0.4c0.6,1.9,1.6,3.6,3.8,3.7c8.9,0.2,17.7,0.9,26.6-0.1c3.9-0.4,4.9-1.8,5.3-4.6c0.1,0,0.2,0.1,0.3,0.1
				c1,0.3,0.5,3.2-0.9,4.3c-7,5.3-5.3,12.9-4.9,19.9c0.2,4.1,4.3,6.1,7.5,7.8c5.2,2.8,7.6,7.4,9.4,12.5c3.6,10.8-1.4,21.6-12.6,27.8
				c-1.2,0.6-2.4,1.2-3.7,1.9c0.5,3.6,0.7,6.9,4.8,8.6C168.2,222.3,168.3,222.3,168.4,222.4z M165,221.1c-9.9,2.2-19,2.2-28.1,0.6
				C142.3,225.4,160.4,225.2,165,221.1C165,221.1,165,221.1,165,221.1C165,221,165,221.1,165,221.1z M124.7,260.9
				c0-0.1-0.1-0.3-0.1-0.4c-0.2-1.7,1.5-2.4,2.7-3.3c1.2-1,2.9-1.5,4-3.5c-2.8,0.7-5.3,1.1-7.6,2c-3.3,1.3-8.1,1.9-8.2,5.9
				c-0.1,4.4,4.9,5.1,8.3,6.2c11.3,3.5,23,3.7,34.7,3.1c8.2-0.4,16.5-1.4,24-5.2c4.6-2.4,4.6-5.3,0.1-7.8c-3.9-2.2-8.2-3.3-12.9-4
				c2.2,2.8,5.9,3.3,7.2,6.8c-0.2,0.3-0.4,0.5-0.6,0.7c0,0-0.1,0.1-0.1,0.1c-17.1,4.4-33.9,4.4-51.3,0
				C124.9,261.3,124.8,261.1,124.7,260.9z M181.9,271.3c2.1-1,4.4-2.1,3.8-5.3c-18.5,9.2-51,9.3-71-0.3c1.5,5.3,5.5,6.3,9,7.4
				c11.8,3.8,23.9,3.7,36.1,3.1C167.4,275.8,174.9,274.6,181.9,271.3z M172.4,205.9c6.7-6.1,8.6-15.7,5-23.5
				c-1.1-2.3-2.2-2.9-4.9-2.3c-14.5,3.4-29.2,3.4-43.7,0c-2.9-0.7-4,0.3-5,2.7c-3.4,7.9-1.5,16.9,5.1,23c6.1,5.7,13.5,8.2,22.8,8.2
				C158.9,214.1,166.2,211.5,172.4,205.9z M174.8,260.4c-3.7-2.5-6.1-7.3-11.2-6.3c-7.7,1.6-15.6,2.5-23.1,0.3
				c-6.8-1.9-9.7,2.8-14,6C142.6,264.9,158.6,264.9,174.8,260.4z M173.8,175.7c-4-1.6-5.9-5.8-10.3-4.8c-7.7,1.9-15.6,2.5-23.1,0.4
				c-5.8-1.6-8.7,1.7-12.5,4.5C136.4,180,164,180.1,173.8,175.7z M163.5,251.7c-5.4-5.9-2-13-2.8-20.1c-6.8,0.7-13.5,0.6-20.3,0.1
				c0,3.6-0.1,7,0,10.4c0.1,3.6,0.3,7.1-2.9,9.8C144.7,254.4,158.4,254.2,163.5,251.7z M164,169.3c-6-6.5-2.4-13.8-3.3-20.7
				c-6.7,0.9-13.5,0.8-20.1,0c-1.3,6.8,2.1,14-3.2,20.7C146.5,171.1,154.9,171.2,164,169.3z M162.9,228.3
				c-8.3,0.6-16.6,0.6-24.9-0.1C146.2,230.5,154.6,230.4,162.9,228.3z M160.7,218.1c-6.9,0.8-13.8,0.8-20.7-0.2
				C146.9,219.8,153.8,219.8,160.7,218.1z M135.1,224.9c10.4,2.2,20.9,2.6,31.3-0.2C156,226.8,145.5,226.5,135.1,224.9z M163.1,145
				c-8.3,1-16.6,0.7-24.9,0.2C146.5,147.2,154.8,147.6,163.1,145z M140.2,215c6.9,2,14,2.5,20.9-0.1
				C154.2,216.1,147.2,216.7,140.2,215z"/>
			<path d="M111.8,127.6c0.2-0.2,0.5-0.4,0.7-0.6c2.4,0.9,3.7,3.4,6.2,3.7c1.2-1.4,2.4-2.8,3.7-4.3c1.3,1.4,2.5,2.6,3.6,3.8
				c1.4-0.4,1.5-2.2,3.1-2.2c1.4,0.9,2.9,1.9,4.3,2.9c2.2-1.1,3.1-3.5,5.4-4.2c1.8,1.3,3.6,2.7,5.8,4.3c0.8-1.2,1.6-2.3,2.5-3.7
				c1.2,1.1,2,1.8,2.9,2.7c0.8-1,1.4-1.8,2.6-3.2c0.6,1.2,1,2.1,1.4,2.8c1.6-0.3,1.6-2,2.7-2.2c0.1,0,0.3,0,0.4,0
				c2.5,3,6.4,3.2,9.9,0.6c1.7,0.9,3.4,1.9,4.9,2.7c1.8-0.3,1.7-2.7,3.6-2.6c1,1.1,2,2.2,2.9,3.2c1.7,0.1,1.9-2.1,3.4-2
				c1.2,0.4,1.1,2.2,2.5,2.3c1.5-0.5,2.3-1.9,3.5-2.5c-1.1,1.5-2.3,3.1-3.4,4.6c-1.5-1-1.3-2.7-2.8-3.1c-1.4,0.4-1.3,2.7-3.1,2.3
				c-1.6-0.8-1.2-3.2-3.1-3.6c-1.8,0.1-1.6,2.5-3.2,2.7c-2.6-1.6-5.2-4.7-8.1,0.3c-0.1-0.1-0.3-0.2-0.4-0.3
				c-2.1-1.1-5.2,1.8-6.6-2.1c-0.5,3.5-0.5,4.1,2.1,4c4.4-0.1,5.8,4.2,9.2,5.5c-0.4,2.8-1.4,4.1-5.3,4.6c-8.9,1-17.8,0.4-26.6,0.1
				c-2.2-0.1-3.2-1.8-3.8-3.7c3.3-3,5.9-7.1,11.8-6.5c-1.8-2.6-3.9-3.7-5.9-5.3c-1.7,1.5-3.4,2.9-5.1,4.4c-1.5-1-2.8-1.9-4-2.7
				c-1.8,0.2-1.9,2.1-3.5,2.5c-1-1.1-2.1-2.3-3.2-3.5c-2,0.5-2.2,2.9-4.2,3.5c-1.7-1.1-3.6-2.3-5.8-3.7c-1.4,1-2.8,2.1-4.2,3.3
				c0.8-1.3,1.6-2.6,2.4-4.1C111.2,128.1,111.5,127.8,111.8,127.6z M166.9,140.8c-5.8,1.6-10.9,2.2-16.1,2.2
				c-5.3,0-10.6-0.5-15.8-1.6C142.1,144.7,162,144.5,166.9,140.8z M155.1,134.7c-0.6-1.8-1.3-3.3-2.8-4.2c-0.7,0.8-1.4,1.5-2.2,2.2
				c-1-0.9-1.8-1.6-3.3-2.9c-0.1,2.6-1.4,4.9,0.6,5.7C149.9,136.4,152.8,136.9,155.1,134.7z M136.9,138.6c5.5,3.5,23.6,3.3,27.6-0.4
				C155,140,145.9,140,136.9,138.6z"/>
			<path class="st1" d="M185.7,266c0.6,3.2-1.7,4.3-3.8,5.3c-7,3.3-14.5,4.6-22.2,4.9c-12.2,0.6-24.3,0.7-36.1-3.1
				c-3.5-1.1-7.5-2.1-9-7.4C134.7,275.3,167.2,275.2,185.7,266z"/>
			<path d="M184.2,133.6l0.1,0.1c-0.2,0.1-0.3,0.2-0.5,0.4c-1.5-1.5-3.2-3.2-4.8-0.2c-2-0.5-2.3-2.6-4.5-3.6c-0.4,0.8-0.8,1.9-1,2.2
				c-3.6,0.4-6.1-5.6-8.8,0.8c-0.2-0.5-0.5-0.8-0.8-1.1c2.8-4.9,5.4-1.9,8.1-0.3c1.6-0.2,1.4-2.6,3.2-2.7c1.9,0.4,1.5,2.9,3.1,3.6
				c1.8,0.4,1.7-1.9,3.1-2.3C182.9,130.9,182.8,132.6,184.2,133.6z"/>
			<path class="st1" d="M182.6,257.9c4.5,2.6,4.5,5.4-0.1,7.8c-7.5,3.9-15.7,4.8-24,5.2c-11.7,0.6-23.4,0.4-34.7-3.1
				c-3.4-1.1-8.4-1.8-8.3-6.2c0.1-4.1,4.9-4.6,8.2-5.9c2.3-0.9,4.8-1.3,7.6-2c-1.1,2-2.8,2.5-4,3.5c-1.1,0.9-2.8,1.6-2.7,3.3
				c0,0.1,0,0.3,0.1,0.4c-0.1,0.1-0.2,0.3-0.3,0.4c0.2,0,0.3,0.1,0.5,0.1c0.7,1.1,2.3,1.2,3.5,1.6c3.3,1.2,6.7,1.6,10.1,1.9
				c10.8,0.9,21.6,1.1,32.2-1.3c1.8-0.4,3.8-0.6,5.4-2.2c0.1,0,0.1,0,0.2,0c0,0,0,0,0-0.1c0.2-0.2,0.4-0.4,0.6-0.7
				c-1.2-3.5-5-4-7.2-6.8C174.5,254.6,178.7,255.7,182.6,257.9z"/>
			<path class="st0" d="M177.4,182.4c3.6,7.7,1.7,17.3-5,23.5c-6.1,5.6-13.5,8.2-20.7,8.1c-9.4,0-16.7-2.5-22.8-8.2
				c-6.6-6.2-8.5-15.1-5.1-23c1-2.4,2.1-3.4,5-2.7c14.5,3.4,29.2,3.4,43.7,0C175.1,179.5,176.3,180.1,177.4,182.4z"/>
			<path d="M176.2,261.4c-1.6,1.5-3.6,1.8-5.4,2.2c-10.7,2.4-21.4,2.2-32.2,1.3c-3.4-0.3-6.9-0.7-10.1-1.9c-1.2-0.4-2.8-0.5-3.5-1.6
				C142.4,265.8,159.1,265.8,176.2,261.4z"/>
			<path class="st1" d="M163.6,254.1c5.1-1,7.5,3.8,11.2,6.3c-16.2,4.5-32.1,4.5-48.2,0.1c4.2-3.2,7.1-7.9,14-6
				C148,256.6,155.8,255.7,163.6,254.1z"/>
			<path class="st0" d="M163.5,171c4.4-1.1,6.3,3.1,10.3,4.8c-9.9,4.4-37.4,4.3-46,0.1c3.8-2.8,6.7-6.1,12.5-4.5
				C147.9,173.5,155.8,172.9,163.5,171z"/>
			<path class="st1" d="M165,221.1C165,221.1,165,221.1,165,221.1c-4.6,4.1-22.7,4.3-28.1,0.6C146,223.2,155.1,223.2,165,221.1z"/>
			<path class="st2" d="M153,250.8c0.1,0,0.2,0,0.3,0c0-5.5,0-11,0-16.5c-0.2,0-0.4,0-0.7,0c-0.1,0-0.1,0-0.2,0c0,5.5,0,11,0,16.4
				C152.6,250.7,152.8,250.7,153,250.8z M156.3,235.2c-0.2,0-0.4,0-0.6,0c-0.2,4.8-0.5,9.6,0.1,14.4c0.2,0,0.3,0,0.5,0
				c0.2,0,0.5,0,0.7,0c0-4.8,0-9.6,0-14.4C156.7,235.2,156.5,235.2,156.3,235.2z M145.6,248.1c0.2,0.9,0.4,1.8,0.6,2.7
				c0-5.5,0-11,0-16.5c-0.1,0-0.2,0-0.3,0c-0.3,0-0.5,0.1-0.8,0.1C144.9,238.9,144.8,243.5,145.6,248.1z M142.2,250.9
				c0.1,0,0.1,0,0.2,0c0-5.5,0-11.1,0-16.6c-0.2,0.6-0.4,1.2-0.5,1.7c-1.4,5-1.2,9.9-0.6,14.9C141.6,250.8,141.9,250.8,142.2,250.9z
				 M149.5,234.3c-0.1,0-0.3,0.1-0.4,0.1c0,5.5,0,11,0,16.5c0.1,0,0.3,0,0.4,0c0.1,0,0.3,0,0.4,0c0-5.5,0-11.1,0-16.6
				C149.8,234.2,149.6,234.3,149.5,234.3z M160.7,231.7c0.8,7.1-2.6,14.1,2.8,20.1c-5.1,2.5-18.8,2.7-26,0.2c3.2-2.7,3-6.2,2.9-9.8
				c-0.1-3.4,0-6.8,0-10.4C147.2,232.2,153.9,232.4,160.7,231.7z"/>
			<path class="st2" d="M153.1,167.5c0.1,0,0.3,0,0.4,0c0-5.5,0-11,0-16.6c-0.2,0-0.3,0-0.5,0.1c-0.1,0-0.3,0-0.4,0
				c0,1.5,0,3.1,0,4.6c-0.1,2.2-0.1,4.4,0,6.6c0,1.8,0,3.5,0,5.3C152.8,167.5,152.9,167.5,153.1,167.5z M156.3,166.5
				c0.2,0,0.3,0,0.5,0c0-4.8,0-9.6,0-14.4c-0.3,0-0.6,0-0.9,0c0,4.8,0,9.5,0,14.3C156,166.5,156.1,166.5,156.3,166.5z M149.5,151.1
				c-0.1,0-0.3,0-0.4,0.1c0,5.5,0,11,0,16.5c0.3,0,0.5,0,0.8,0c0-5.5,0-11.1,0-16.6C149.8,151,149.6,151,149.5,151.1z M145.9,167.4
				c0,0,0.1,0,0.1,0c0-5.5,0-10.9,0-16.4c-0.1,0-0.1,0-0.2,0c-0.1,0-0.3,0-0.4,0c0,1.6,0,3.3,0,4.9c-0.1,2-0.1,4,0,6
				c0,1.8,0,3.6,0,5.5C145.6,167.4,145.7,167.4,145.9,167.4z M142.2,151c-0.3,0-0.5,0-0.8,0c-0.8,4.9-0.9,9.7,0.5,14.5
				c0.2,0.7,0.4,1.4,0.7,2.1c0-5.5,0-11.1,0-16.6C142.5,151,142.3,151,142.2,151z M160.7,148.6c0.9,6.9-2.7,14.2,3.3,20.7
				c-9,2-17.5,1.9-26.5,0c5.3-6.7,1.9-13.9,3.2-20.7C147.2,149.3,154,149.4,160.7,148.6z"/>
			<path class="st1" d="M150.8,142.9c5.2,0,10.4-0.6,16.1-2.2c-5,3.7-24.9,4-32,0.6C140.2,142.4,145.5,143,150.8,142.9z"/>
			<path d="M157,235.2c0,4.8,0,9.6,0,14.4c-0.2,0-0.5,0-0.7,0v-0.1c0-4.8,0-9.6,0-14.4C156.5,235.2,156.7,235.2,157,235.2z"/>
			<path d="M156.3,166.5c-0.1,0-0.2,0-0.4,0c0-4.8,0-9.5,0-14.3c0.3,0,0.6,0,0.9,0c0,4.8,0,9.6,0,14.4
				C156.6,166.5,156.4,166.5,156.3,166.5z"/>
			<path d="M156.3,249.6L156.3,249.6c-0.1,0.1-0.3,0.1-0.5,0.1c-0.6-4.8-0.3-9.6-0.1-14.4c0.2,0,0.4,0,0.6,0
				C156.3,240,156.3,244.8,156.3,249.6z"/>
			<path class="st1" d="M152.3,130.4c1.5,0.9,2.1,2.4,2.8,4.2c-2.3,2.3-5.2,1.8-7.6,0.8c-2-0.8-0.8-3.1-0.6-5.7
				c1.5,1.3,2.4,2,3.3,2.9C150.9,131.9,151.6,131.2,152.3,130.4z"/>
			<path class="st1" d="M137.9,228.2c8.3,0.7,16.6,0.8,24.9,0.1C154.6,230.4,146.2,230.5,137.9,228.2z"/>
			<path d="M153.5,150.9c0,5.5,0,11.1,0,16.6c-0.1,0-0.3,0-0.4,0c-0.2-1.8-0.4-3.5-0.5-5.2c0-2.2,0-4.4,0-6.6
				c0.1-1.5,0.2-3.1,0.4-4.7C153.2,151,153.3,151,153.5,150.9z"/>
			<path d="M153.3,234.3c0,5.5,0,11,0,16.5c-0.1,0-0.2,0-0.3,0c-0.9-5.5-0.1-11-0.3-16.5C152.9,234.3,153.1,234.3,153.3,234.3z"/>
			<path class="st1" d="M140,217.9c6.8,1,13.8,1,20.7,0.2C153.8,219.8,146.9,219.8,140,217.9z"/>
			<path d="M153.1,167.5c-0.2,0-0.3,0-0.5,0c0-1.8,0-3.5,0-5.3C152.7,164,152.9,165.8,153.1,167.5z"/>
			<path d="M152.6,151c0.1,0,0.3,0,0.4,0c-0.2,1.6-0.3,3.1-0.4,4.7C152.6,154.1,152.6,152.6,152.6,151z"/>
			<path d="M153,250.8c-0.2,0-0.4,0-0.5,0c0-5.5,0-11,0-16.4c0.1,0,0.1,0,0.2,0C152.9,239.8,152.1,245.3,153,250.8z"/>
			<path class="st1" d="M166.4,224.7c-10.4,2.9-20.8,2.5-31.3,0.2C145.5,226.5,156,226.8,166.4,224.7z"/>
			<path class="st1" d="M138.2,145.2c8.3,0.6,16.6,0.8,24.9-0.2C154.8,147.6,146.5,147.2,138.2,145.2z"/>
			<path class="st1" d="M161.1,214.9c-7,2.6-14,2.1-20.9,0.1C147.2,216.7,154.2,216.1,161.1,214.9z"/>
			<path class="st1" d="M164.5,138.2c-4,3.7-22.1,3.9-27.6,0.4C145.9,140,155,140,164.5,138.2z"/>
			<path d="M149.9,234.2c0,5.5,0,11.1,0,16.6c-0.1,0-0.3,0-0.4,0c0-5.5,0-11,0-16.5C149.6,234.3,149.8,234.2,149.9,234.2z"/>
			<path d="M149.5,151.1c0.1,0,0.3,0,0.4-0.1c0,5.5,0,11.1,0,16.6c-0.3,0-0.5,0-0.8,0c0-5.5,0-11,0-16.5
				C149.2,151.1,149.4,151.1,149.5,151.1z"/>
			<path d="M149.5,234.3c0,5.5,0,11,0,16.5c-0.1,0-0.3,0-0.4,0c0-5.5,0-11,0-16.5C149.2,234.3,149.4,234.3,149.5,234.3z"/>
			<path d="M146.2,234.3c0,5.5,0,11,0,16.5c-0.2-0.9-0.5-1.8-0.6-2.7c-0.4-4.6-0.3-9.2,0.3-13.7C146,234.3,146.1,234.3,146.2,234.3z
				"/>
			<path d="M146,151c0,5.5,0,10.9,0,16.4c0,0-0.1,0-0.1,0c-0.2-1.8-0.4-3.6-0.5-5.4c0-2,0-4,0-6c0.1-1.6,0.2-3.3,0.4-4.9
				C145.9,151,145.9,151,146,151z"/>
			<path d="M145.1,234.4c0.3,0,0.5,0,0.8-0.1c-0.6,4.6-0.7,9.1-0.3,13.7C144.8,243.5,144.9,238.9,145.1,234.4z"/>
			<path d="M145.9,167.4c-0.1,0-0.3,0-0.5,0c0-1.8,0-3.7,0-5.5C145.5,163.8,145.7,165.6,145.9,167.4z"/>
			<path d="M145.4,151.1c0.1,0,0.3,0,0.4,0c-0.2,1.6-0.3,3.3-0.4,4.9C145.4,154.3,145.4,152.7,145.4,151.1z"/>
			<path d="M142.6,151c0,5.5,0,11.1,0,16.6c-0.3-0.7-0.5-1.4-0.7-2.1c0.1-4.8-0.4-9.7,0.3-14.5C142.3,151,142.5,151,142.6,151z"/>
			<path d="M142.4,234.2c0,5.6,0,11.1,0,16.6c-0.1,0-0.1,0-0.2,0c-0.8-4.9-0.2-9.9-0.3-14.9C142,235.4,142.2,234.8,142.4,234.2z"/>
			<path d="M142.2,250.9c-0.3,0-0.6,0-0.9,0c-0.6-5-0.8-9.9,0.6-14.9C142,240.9,141.4,245.9,142.2,250.9z"/>
			<path d="M141.4,150.9c0.3,0,0.5,0,0.8,0c-0.8,4.8-0.3,9.7-0.3,14.5C140.5,160.6,140.6,155.8,141.4,150.9z"/>
			<path d="M98.6,131.1L98.6,131.1c-1.1-0.5-1.6-1.8-3-2c-0.7,0.7-1.5,1.5-2.2,2.3c-0.5-0.2-0.9-0.2-1-0.4c-2.1-4.3-6.3-1.4-9.3-2.6
				c-0.1,0-0.6,0.5-0.7,0.5c-0.2-0.2-0.4-0.3-0.6-0.4c1.3-1.3,2.6-2.3,2.4-4.2c0.2,0,0.4,0,0.6,0c0.3,6.1,7.3-0.6,8,4.5
				c1.6-0.3,1.6-2.2,2.9-2.1c1.6,0.5,2.1,2.4,3.8,2.3c1.6-0.2,2-2.3,3.6-2.3c2,1,2.8,3.3,4.9,3.9c1-0.8,1.9-1.6,2.9-2.4
				c-0.9,1.5-1.7,2.8-2.4,4.1c-0.1,0.1-0.1,0.1-0.2,0.2c-2.2-2.2-3.7-3.7-5.3-5.3C101.7,128.4,100.4,129.5,98.6,131.1z"/>
			<path d="M108.3,132.5c-0.2,0.1-0.3,0.2-0.5,0.4c-1.6-1.4-3.1-2.8-4.9-4.3c-1.2,1-2.3,1.9-3.3,2.8c-0.4,0-0.7-0.1-1-0.2l0,0
				c1.8-1.6,3.1-2.7,4.5-3.8C104.6,128.9,106.1,130.3,108.3,132.5z"/>
		</g>
		<g>
			<path class="st3" d="M156.7,128.3c0.8,0.9,1.5,1.8,2.4,2.9c1.4,0.2,3.6-3.1,4.4,0.7c0.1,0.2,0.1,0.5,0.1,0.8
				c0.1-0.2,0.2-0.4,0.3-0.5c2.8-4.9,5.4-1.9,8.1-0.3c1.6-0.2,1.4-2.6,3.2-2.7c1.9,0.4,1.5,2.9,3.1,3.6c1.8,0.4,1.7-1.9,3.1-2.3
				c1.4,0.4,1.2,2.1,2.8,3.1c1.1-1.5,2.2-3.1,3.4-4.6c0-0.1,0.1-0.1,0.1-0.2c0,0,0.1,0.1,0.1,0.1c2,1.5,3.5,2.7,5.3,4
				c2.2-1.6,4.5-4.7,7.4-1.3c0.1,0.1,0.2,0.2,0.2,0.3c0.1-0.1,0.2-0.2,0.3-0.3c1.2-1,2.4-2.1,3.5-3.1c0.1-0.1,0.2-0.1,0.2-0.2
				c0,0,0.1,0,0.1,0c2.9,0,4.3,2.7,6.9,3.7c1.8-1.1,3.7-2.2,5-2.9c0.2,0.2,0.4,0.3,0.6,0.5c1.1,1,2.3,1.9,4.1,3.4
				c0.1-0.2,0.2-0.3,0.3-0.5c1.4-2,2.5-3.7,3.6-5.3c0.1-0.1,0.2-0.3,0.3-0.4c0.1,0.1,0.2,0.1,0.3,0.2c9.8,5,16.1-0.2,22-6.2
				c-12.4-24.7-24.9-49.6-37.3-74.6c-3.9-7.8-8.1-15.5-11.6-23.5c-2.3-5.2-6.2-7-11.4-7.6c-14.4-1.7-28.8-2.6-43.3-2.2
				c-12.6,0.3-25,2.2-37.4,3.6c-3.1,0.4-4.2,3-5.4,5.4C85.4,54.4,69,86.9,52.6,119.3c-0.2,0.5-0.5,0.9-1,1.7
				c6.6,4,14.1,5.5,21.7,6.3c2.8,0.3,6-3.4,8.2,1.1c0,0.1,0.1,0.1,0.1,0.2c0,0,0.1-0.1,0.1-0.1c1.3-1.3,2.6-2.3,2.4-4.2c0,0,0,0,0,0
				"/>
			<path class="st3" d="M135.5,227.5c5.4,5.5,5.9,19.1,0.9,23.9c-1,1-2,1.9-3.6,1.8c-4.9-0.3-9.2,1.5-13.5,3.5
				c-2.3,1.1-5.1,1.9-4.9,5c0.2,3,2.8,4.3,5.3,5.4c6,2.7,12.5,4.1,18.9,4.4c12.7,0.5,25.4,1.1,37.9-2.5c3.5-1,6.5-2.6,9.4-4.6"/>
			<path class="st3" d="M190.1,273.9c1.3,3.7-0.2,5.8-3.6,7.8c-7.5,4.3-15.8,5.6-23.9,6c-14,0.6-28.2,1.1-41.9-3.4
				c-2.6-0.8-5.1-1.8-7.2-3.5c-2.4-1.9-3.5-3.9-2.2-6.8"/>
			<path class="st3" d="M111.2,271.6c3.3,5.4,9.2,6.8,14.5,7.9c17.2,3.7,34.6,4,51.8-0.6c4.3-1.2,8-3.2,11.8-5.4
				c1.8-1,0.9-2.2,1.3-3.3"/>
			<path class="st3" d="M165.3,227.5c-6,6.1-3.3,13.8-3.3,20.7c0,2.4,3.3,4.8,6.5,4.9c5.2,0.3,9.9,1.6,14.5,4c2.6,1.4,4.1,3,4,5.9
				c0,3.8-0.1,7.3-4.5,9.1c-6.5,2.7-13.4,4.6-20.3,4.8c-12.4,0.3-24.8,1.2-37-2.5c-3.2-1-6.3-2.1-9-4.1c-1.8-1.4-2.6-3.2-1.4-5.4"/>
			<path class="st3" d="M162.6,147.7c-1.7,5.3-1.2,10.9-0.7,16.2c0.3,3.8,4.6,5.4,7.4,7.8c2.1,1.8,5.5,2.5,6.1,6.2
				c-16.3,3.8-32.4,3.8-48.6,0.2c-0.3-2,0.2-2.8,2-4c11.3-7.6,11.1-7.8,11-21.5c0-1.9-1.6-3.1-1-5"/>
			<path class="st3" d="M132.8,253.6c-1.6,3.1-5.7,3.5-8.1,7.3c-0.1,0.1-0.2,0.3-0.3,0.4c0.2,0,0.3,0.1,0.5,0.1
				c17.4,4.4,34.2,4.4,51.3,0c0.1,0,0.1,0,0.2,0c0,0,0,0,0-0.1c-1.9-4.2-6.1-4.8-8.4-7.7"/>
			<path class="st3" d="M176.1,179.2c5.9,7.9,5.1,18.1-1.9,26.1c-7,7.9-22.3,12.7-33.9,7.6c-2.4,1.5-2,4-2.1,6.6
				c7.4,2.2,15.1,2.2,22.5,0.5c2.1-0.5,3.3,0,4.3,1c0,0,0,0,0,0c0.4,0.4,0.8,0.9,1.2,1.4"/>
			<path class="st3" d="M125.2,178.8c-9.3,13-0.8,28.4,11.3,32.9c0.8,0.3,1.5,0.9,2.3,1.3"/>
			<path class="st3" d="M168.4,221.6c0,0.2,0,0.5,0,0.8c0,0.5,0,0.9-0.5,1c-10.5,1.3-21,3.2-31.5,0c-0.2,0-0.3-0.3-0.5-0.4"/>
			<path class="st3" d="M168,224.3c-1.8,4.5-6.1,2.8-9,3c-7.6,0.4-15.3-0.1-23-0.2c-1.5,0-2.2-0.8-2.3-2.9c0.9-1,2.1-2.5,3.2-3.9"/>
			<path class="st3" d="M164.8,140c-9.6,2.8-19.2,2.8-28.9,0"/>
			<path class="st3" d="M136.4,252.3c9.4,3.7,18.9,2.9,28.4,0.5"/>
			<path class="st3" d="M136.4,169.3c9.5,3.3,18.9,3.3,28.4,0"/>
			<path class="st3" d="M168.4,138.7c0,0.2,0,0.4-0.1,0.7c-0.4,2.8-1.4,4.1-5.3,4.6c-8.9,1-17.8,0.4-26.6,0.1
				c-2.2-0.1-3.2-1.8-3.8-3.7c-0.1-0.3-0.2-0.5-0.2-0.8"/>
			<path class="st3" d="M136,144.6c5,5,25.2,5,29.3,0"/>
			<path class="st3" d="M139.1,230.2c7.6,1.5,15.3,0.8,23,0.5"/>
			<path class="st3" d="M139.1,216.2c7.5,2.3,15,1.4,22.5,0.5"/>
			<path class="st3" d="M167.5,140.9c-3.2-5.4-8-5.2-13.1-3.6c-3.1,0.9-6,0.5-9-0.4c-4.9-1.6-9,0-12.1,4"/>
			<path class="st3" d="M149.5,150.4c0,0.2,0,0.4,0,0.7c0,5.5,0,11,0,16.5"/>
			<path class="st3" d="M145.9,150.4c0,0.2,0,0.4-0.1,0.6c-0.2,1.6-0.3,3.3-0.4,4.9c-0.1,2-0.1,4,0,6c0.1,1.8,0.2,3.6,0.5,5.4
				c0,0,0,0.1,0,0.1"/>
			<path class="st3" d="M142.3,150.4c0,0.2-0.1,0.4-0.1,0.6c-0.8,4.8-0.3,9.7-0.3,14.5c0,0.7,0,1.4-0.1,2.1"/>
			<path class="st3" d="M141.8,234.2c0,0.6,0,1.2,0.1,1.7c0.1,5-0.5,10,0.3,14.9c0,0.2,0,0.3,0.1,0.5"/>
			<path class="st3" d="M145.9,234.2c0,0,0,0.1,0,0.1c-0.6,4.6-0.7,9.1-0.3,13.7c0.1,1.1,0.2,2.2,0.3,3.3"/>
			<path class="st3" d="M153.1,150.4c0,0.2-0.1,0.4-0.1,0.6c-0.2,1.6-0.3,3.1-0.4,4.7c-0.1,2.2-0.1,4.4,0,6.6
				c0.1,1.8,0.2,3.5,0.5,5.2v0"/>
			<path class="st3" d="M149.5,234.2C149.5,234.2,149.5,234.3,149.5,234.2c0,5.6,0,11.1,0,16.6c0,0.2,0,0.4,0,0.6"/>
			<path class="st3" d="M152.7,234.2C152.7,234.2,152.7,234.3,152.7,234.2c0.3,5.6-0.5,11.1,0.3,16.5c0,0.2,0.1,0.4,0.1,0.6"/>
			<path class="st3" d="M156.3,152.2c0,4.8,0,9.5,0,14.3c0,0,0,0.1,0,0.1"/>
			<path class="st3" d="M156.3,235.1C156.3,235.1,156.3,235.2,156.3,235.1c0,4.8,0,9.6,0,14.4"/>
			<path class="st3" d="M84.6,126.5c0.9,0.4,1.2,2.3,2.2,1.7c3-1.7,4.8-0.5,5.9,1.9c2.2,0,1.4-2.3,3.1-2.8c0.8,1.2,1.8,2.5,2.8,3.8
				c1.8-1.6,3.1-2.7,4.5-3.8c1.6,1.6,3.1,3.1,5.3,5.3c0,0,0,0.1,0.1,0.1c0.1-0.1,0.1-0.2,0.1-0.2c0.8-1.3,1.6-2.6,2.4-4.1
				c0.2-0.3,0.4-0.6,0.6-1c0.1,0.1,0.2,0.1,0.3,0.2c2.7,1.8,4.7,3.1,6.8,4.6c1.2-1.6,2.5-3.2,3.7-4.8c1.3,1.3,2.7,2.4,2.8,3.6
				c1-0.6,2.1-1.2,3.2-1.9c2.2,0.1,3.4,2.4,5.6,2.9c1.4-1.5,2.8-3,4.6-5c1.1,3.7,8.2,2.5,6,8.5"/>
			<path class="st3" d="M145,131.9c0.1-1.2,1.1-1.9,1.8-2.7c1.6-0.4,3.3,4.3,5,0c2.9,0.4,3.1,3.2,4.5,5"/>
			<path class="st3" d="M161.7,213.5c1.9,1.7,0.2,4,0.9,5.9"/>
			<path class="st3" d="M156.7,127c0,0.1-0.1,0.2-0.1,0.3c-0.4,1.1-0.8,2.2-1.2,3.3"/>
		</g>
	</g>
</g>
</svg>
